<svg width="171.98" height="171.98" version="1.1" viewBox="0 0 45.504 45.505" xmlns="http://www.w3.org/2000/svg" xmlns:xlink="http://www.w3.org/1999/xlink">
 <defs>
  <linearGradient id="verde">
   <stop stop-color="#1d3209" offset="0"/>
   <stop stop-color="#3a6712" offset=".11087"/>
   <stop stop-color="#5b9e1c" offset=".54248"/>
   <stop stop-color="#1d3209" offset="1"/>
  </linearGradient>
  <linearGradient id="linearGradient8768" x1="300.3" x2="300.3" y1="63.365" y2="36.063" gradientTransform="matrix(.092852 0 0 .1134 -21.437 -9.315)" gradientUnits="userSpaceOnUse" xlink:href="#verde"/>
 </defs>
 <path d="m2.4803 3.8822h39.758v38.882h-39.758z" fill="#bcdba1" stroke-width=".45777"/>
 <text x="19.143011" y="111.81448" dominant-baseline="auto" fill="#4d4d4d" font-family="'Arial Rounded MT Bold'" font-size="18.91px" letter-spacing="0px" stroke-width=".47275" word-spacing="0px" style="font-feature-settings:normal;font-variant-alternates:normal;font-variant-caps:normal;font-variant-ligatures:normal;font-variant-numeric:normal;font-variant-position:normal;line-height:1.25;shape-padding:0;text-decoration-color:#000000;text-decoration-line:none;text-decoration-style:solid;text-indent:0;text-orientation:mixed;text-transform:none;white-space:normal" xml:space="preserve"><tspan x="19.143011" y="128.85536" stroke-width=".47275"/></text>
 <g transform="translate(-.1494 .48841)">
  <g transform="translate(31.594 6.0193)">
   <path d="m-1.131-1.8654c0.37904-0.22634 0.73302-0.37135 1.5552-0.37229 0.82213 0 11.138-0.00651 11.695-0.00729 0.55622-3.388e-4 0.92382 0.24633 1.1392 0.37498 0.07288 0.043786 0.15021 0.072421 0.22496 0.06902 0.14568-0.00663 0.28589-0.12541 0.39452-0.42419 0.16429-0.45193 0.34719-2.1604-0.0886-2.9419-0.10835-0.19407-0.19697-0.25827-0.27608-0.2633-0.27487-0.017456-0.35165 0.23886-0.49488 0.23886-0.21529 0-12.306-0.015395-12.912-0.015395-0.60705 4.338e-4 -1.0376 0.065344-1.1892-0.11232-0.060587-0.070792-0.17333-0.11628-0.28459-0.11115-0.16778 0.00774-0.33216 0.13011-0.30917 0.45041 0.038018 0.53243 0.45311 1.5567 0.10143 2.6511-0.067242 0.20924 0.010907 0.51829 0.23357 0.52797 0.05961 0.00259 0.13054-0.016484 0.21066-0.06442z" fill="url(#linearGradient8768)" stroke-width=".42862"/>
   <path d="m-0.95485-1.9849c-0.20435-0.00868-0.44113-0.12616-0.39988-0.31733 0.13263-0.61471 0.14622-1.1467 0.029575-1.7763-0.073431-0.39634-0.22045-0.77501-0.16017-1.0419 0.027342-0.12105 0.19557-0.17386 0.47711-0.068629-0.20603-0.23474-0.65503-0.34931-0.61936 0.16095 0.036133 0.51203 0.4098 1.8661 0.092645 2.7586-0.052401 0.14747-0.014545 0.31372 0.080261 0.38522 0.044807 0.033792 0.10243 0.062534 0.16618 0.045887 0.12183-0.031812 0.20719-0.10323 0.33365-0.1466z" fill="#1d3209" stroke-width=".43452"/>
   <path d="m13.402-2.0308c0.37377-0.26119 0.37199-1.2231 0.36277-1.6004-0.0106-0.43389-0.13363-1.3597-0.24402-1.5043-0.07555-0.098962-0.13847-0.13348-0.36254-0.050999 0.15951-0.11178 0.2154-0.23609 0.35252-0.19307 0.08939 0.028048 0.23614 0.26522 0.28787 0.45229 0.17637 0.4019 0.20157 1.0365 0.17499 1.5596-0.02295 0.45174-0.06344 1.1102-0.33981 1.4386-0.06338 0.075307-0.1215 0.089134-0.1863 0.093885-0.07545 0.00553-0.30274-0.17143-0.53208-0.28706 0.30466 0.096595 0.37936 0.16645 0.4866 0.091503z" fill="#1d3209" stroke-width=".43885"/>
  </g>
  <g transform="translate(16.742 6.0193)">
   <path d="m-1.131-1.8654c0.37904-0.22634 0.73302-0.37135 1.5552-0.37229 0.82213 0 11.138-0.00651 11.695-0.00729 0.55622-3.388e-4 0.92382 0.24633 1.1392 0.37498 0.07288 0.043786 0.15021 0.072421 0.22496 0.06902 0.14568-0.00663 0.28589-0.12541 0.39452-0.42419 0.16429-0.45193 0.34719-2.1604-0.0886-2.9419-0.10835-0.19407-0.19697-0.25827-0.27608-0.2633-0.27487-0.017456-0.35165 0.23886-0.49488 0.23886-0.21529 0-12.306-0.015395-12.912-0.015395-0.60705 4.338e-4 -1.0376 0.065344-1.1892-0.11232-0.060587-0.070792-0.17333-0.11628-0.28459-0.11115-0.16778 0.00774-0.33216 0.13011-0.30917 0.45041 0.038018 0.53243 0.45311 1.5567 0.10143 2.6511-0.067242 0.20924 0.010907 0.51829 0.23357 0.52797 0.05961 0.00259 0.13054-0.016484 0.21066-0.06442z" fill="url(#linearGradient8768)" stroke-width=".42862"/>
   <path d="m-0.95485-1.9849c-0.20435-0.00868-0.44113-0.12616-0.39988-0.31733 0.13263-0.61471 0.14622-1.1467 0.029575-1.7763-0.073431-0.39634-0.22045-0.77501-0.16017-1.0419 0.027342-0.12105 0.19557-0.17386 0.47711-0.068629-0.20603-0.23474-0.65503-0.34931-0.61936 0.16095 0.036133 0.51203 0.4098 1.8661 0.092645 2.7586-0.052401 0.14747-0.014545 0.31372 0.080261 0.38522 0.044807 0.033792 0.10243 0.062534 0.16618 0.045887 0.12183-0.031812 0.20719-0.10323 0.33365-0.1466z" fill="#1d3209" stroke-width=".43452"/>
   <path d="m13.402-2.0308c0.37377-0.26119 0.37199-1.2231 0.36277-1.6004-0.0106-0.43389-0.13363-1.3597-0.24402-1.5043-0.07555-0.098962-0.13847-0.13348-0.36254-0.050999 0.15951-0.11178 0.2154-0.23609 0.35252-0.19307 0.08939 0.028048 0.23614 0.26522 0.28787 0.45229 0.17637 0.4019 0.20157 1.0365 0.17499 1.5596-0.02295 0.45174-0.06344 1.1102-0.33981 1.4386-0.06338 0.075307-0.1215 0.089134-0.1863 0.093885-0.07545 0.00553-0.30274-0.17143-0.53208-0.28706 0.30466 0.096595 0.37936 0.16645 0.4866 0.091503z" fill="#1d3209" stroke-width=".43885"/>
  </g>
  <g transform="translate(1.828 6.0193)">
   <path d="m-1.131-1.8654c0.37904-0.22634 0.73302-0.37135 1.5552-0.37229 0.82213 0 11.138-0.00651 11.695-0.00729 0.55622-3.388e-4 0.92382 0.24633 1.1392 0.37498 0.07288 0.043786 0.15021 0.072421 0.22496 0.06902 0.14568-0.00663 0.28589-0.12541 0.39452-0.42419 0.16429-0.45193 0.34719-2.1604-0.0886-2.9419-0.10835-0.19407-0.19697-0.25827-0.27608-0.2633-0.27487-0.017456-0.35165 0.23886-0.49488 0.23886-0.21529 0-12.306-0.015395-12.912-0.015395-0.60705 4.338e-4 -1.0376 0.065344-1.1892-0.11232-0.060587-0.070792-0.17333-0.11628-0.28459-0.11115-0.16778 0.00774-0.33216 0.13011-0.30917 0.45041 0.038018 0.53243 0.45311 1.5567 0.10143 2.6511-0.067242 0.20924 0.010907 0.51829 0.23357 0.52797 0.05961 0.00259 0.13054-0.016484 0.21066-0.06442z" fill="url(#linearGradient8768)" stroke-width=".42862"/>
   <path d="m-0.95485-1.9849c-0.20435-0.00868-0.44113-0.12616-0.39988-0.31733 0.13263-0.61471 0.14622-1.1467 0.029575-1.7763-0.073431-0.39634-0.22045-0.77501-0.16017-1.0419 0.027342-0.12105 0.19557-0.17386 0.47711-0.068629-0.20603-0.23474-0.65503-0.34931-0.61936 0.16095 0.036133 0.51203 0.4098 1.8661 0.092645 2.7586-0.052401 0.14747-0.014545 0.31372 0.080261 0.38522 0.044807 0.033792 0.10243 0.062534 0.16618 0.045887 0.12183-0.031812 0.20719-0.10323 0.33365-0.1466z" fill="#1d3209" stroke-width=".43452"/>
   <path d="m13.402-2.0308c0.37377-0.26119 0.37199-1.2231 0.36277-1.6004-0.0106-0.43389-0.13363-1.3597-0.24402-1.5043-0.07555-0.098962-0.13847-0.13348-0.36254-0.050999 0.15951-0.11178 0.2154-0.23609 0.35252-0.19307 0.08939 0.028048 0.23614 0.26522 0.28787 0.45229 0.17637 0.4019 0.20157 1.0365 0.17499 1.5596-0.02295 0.45174-0.06344 1.1102-0.33981 1.4386-0.06338 0.075307-0.1215 0.089134-0.1863 0.093885-0.07545 0.00553-0.30274-0.17143-0.53208-0.28706 0.30466 0.096595 0.37936 0.16645 0.4866 0.091503z" fill="#1d3209" stroke-width=".43885"/>
  </g>
 </g>
 <g transform="matrix(-1 0 0 1 45.654 40.154)">
  <g transform="translate(31.594 6.0193)">
   <path d="m-1.131-1.8654c0.37904-0.22634 0.73302-0.37135 1.5552-0.37229 0.82213 0 11.138-0.00651 11.695-0.00729 0.55622-3.388e-4 0.92382 0.24633 1.1392 0.37498 0.07288 0.043786 0.15021 0.072421 0.22496 0.06902 0.14568-0.00663 0.28589-0.12541 0.39452-0.42419 0.16429-0.45193 0.34719-2.1604-0.0886-2.9419-0.10835-0.19407-0.19697-0.25827-0.27608-0.2633-0.27487-0.017456-0.35165 0.23886-0.49488 0.23886-0.21529 0-12.306-0.015395-12.912-0.015395-0.60705 4.338e-4 -1.0376 0.065344-1.1892-0.11232-0.060587-0.070792-0.17333-0.11628-0.28459-0.11115-0.16778 0.00774-0.33216 0.13011-0.30917 0.45041 0.038018 0.53243 0.45311 1.5567 0.10143 2.6511-0.067242 0.20924 0.010907 0.51829 0.23357 0.52797 0.05961 0.00259 0.13054-0.016484 0.21066-0.06442z" fill="url(#linearGradient8768)" stroke-width=".42862"/>
   <path d="m-0.95485-1.9849c-0.20435-0.00868-0.44113-0.12616-0.39988-0.31733 0.13263-0.61471 0.14622-1.1467 0.029575-1.7763-0.073431-0.39634-0.22045-0.77501-0.16017-1.0419 0.027342-0.12105 0.19557-0.17386 0.47711-0.068629-0.20603-0.23474-0.65503-0.34931-0.61936 0.16095 0.036133 0.51203 0.4098 1.8661 0.092645 2.7586-0.052401 0.14747-0.014545 0.31372 0.080261 0.38522 0.044807 0.033792 0.10243 0.062534 0.16618 0.045887 0.12183-0.031812 0.20719-0.10323 0.33365-0.1466z" fill="#1d3209" stroke-width=".43452"/>
   <path d="m13.402-2.0308c0.37377-0.26119 0.37199-1.2231 0.36277-1.6004-0.0106-0.43389-0.13363-1.3597-0.24402-1.5043-0.07555-0.098962-0.13847-0.13348-0.36254-0.050999 0.15951-0.11178 0.2154-0.23609 0.35252-0.19307 0.08939 0.028048 0.23614 0.26522 0.28787 0.45229 0.17637 0.4019 0.20157 1.0365 0.17499 1.5596-0.02295 0.45174-0.06344 1.1102-0.33981 1.4386-0.06338 0.075307-0.1215 0.089134-0.1863 0.093885-0.07545 0.00553-0.30274-0.17143-0.53208-0.28706 0.30466 0.096595 0.37936 0.16645 0.4866 0.091503z" fill="#1d3209" stroke-width=".43885"/>
  </g>
  <g transform="translate(16.742 6.0193)">
   <path d="m-1.131-1.8654c0.37904-0.22634 0.73302-0.37135 1.5552-0.37229 0.82213 0 11.138-0.00651 11.695-0.00729 0.55622-3.388e-4 0.92382 0.24633 1.1392 0.37498 0.07288 0.043786 0.15021 0.072421 0.22496 0.06902 0.14568-0.00663 0.28589-0.12541 0.39452-0.42419 0.16429-0.45193 0.34719-2.1604-0.0886-2.9419-0.10835-0.19407-0.19697-0.25827-0.27608-0.2633-0.27487-0.017456-0.35165 0.23886-0.49488 0.23886-0.21529 0-12.306-0.015395-12.912-0.015395-0.60705 4.338e-4 -1.0376 0.065344-1.1892-0.11232-0.060587-0.070792-0.17333-0.11628-0.28459-0.11115-0.16778 0.00774-0.33216 0.13011-0.30917 0.45041 0.038018 0.53243 0.45311 1.5567 0.10143 2.6511-0.067242 0.20924 0.010907 0.51829 0.23357 0.52797 0.05961 0.00259 0.13054-0.016484 0.21066-0.06442z" fill="url(#linearGradient8768)" stroke-width=".42862"/>
   <path d="m-0.95485-1.9849c-0.20435-0.00868-0.44113-0.12616-0.39988-0.31733 0.13263-0.61471 0.14622-1.1467 0.029575-1.7763-0.073431-0.39634-0.22045-0.77501-0.16017-1.0419 0.027342-0.12105 0.19557-0.17386 0.47711-0.068629-0.20603-0.23474-0.65503-0.34931-0.61936 0.16095 0.036133 0.51203 0.4098 1.8661 0.092645 2.7586-0.052401 0.14747-0.014545 0.31372 0.080261 0.38522 0.044807 0.033792 0.10243 0.062534 0.16618 0.045887 0.12183-0.031812 0.20719-0.10323 0.33365-0.1466z" fill="#1d3209" stroke-width=".43452"/>
   <path d="m13.402-2.0308c0.37377-0.26119 0.37199-1.2231 0.36277-1.6004-0.0106-0.43389-0.13363-1.3597-0.24402-1.5043-0.07555-0.098962-0.13847-0.13348-0.36254-0.050999 0.15951-0.11178 0.2154-0.23609 0.35252-0.19307 0.08939 0.028048 0.23614 0.26522 0.28787 0.45229 0.17637 0.4019 0.20157 1.0365 0.17499 1.5596-0.02295 0.45174-0.06344 1.1102-0.33981 1.4386-0.06338 0.075307-0.1215 0.089134-0.1863 0.093885-0.07545 0.00553-0.30274-0.17143-0.53208-0.28706 0.30466 0.096595 0.37936 0.16645 0.4866 0.091503z" fill="#1d3209" stroke-width=".43885"/>
  </g>
  <g transform="translate(1.828 6.0193)">
   <path d="m-1.131-1.8654c0.37904-0.22634 0.73302-0.37135 1.5552-0.37229 0.82213 0 11.138-0.00651 11.695-0.00729 0.55622-3.388e-4 0.92382 0.24633 1.1392 0.37498 0.07288 0.043786 0.15021 0.072421 0.22496 0.06902 0.14568-0.00663 0.28589-0.12541 0.39452-0.42419 0.16429-0.45193 0.34719-2.1604-0.0886-2.9419-0.10835-0.19407-0.19697-0.25827-0.27608-0.2633-0.27487-0.017456-0.35165 0.23886-0.49488 0.23886-0.21529 0-12.306-0.015395-12.912-0.015395-0.60705 4.338e-4 -1.0376 0.065344-1.1892-0.11232-0.060587-0.070792-0.17333-0.11628-0.28459-0.11115-0.16778 0.00774-0.33216 0.13011-0.30917 0.45041 0.038018 0.53243 0.45311 1.5567 0.10143 2.6511-0.067242 0.20924 0.010907 0.51829 0.23357 0.52797 0.05961 0.00259 0.13054-0.016484 0.21066-0.06442z" fill="url(#linearGradient8768)" stroke-width=".42862"/>
   <path d="m-0.95485-1.9849c-0.20435-0.00868-0.44113-0.12616-0.39988-0.31733 0.13263-0.61471 0.14622-1.1467 0.029575-1.7763-0.073431-0.39634-0.22045-0.77501-0.16017-1.0419 0.027342-0.12105 0.19557-0.17386 0.47711-0.068629-0.20603-0.23474-0.65503-0.34931-0.61936 0.16095 0.036133 0.51203 0.4098 1.8661 0.092645 2.7586-0.052401 0.14747-0.014545 0.31372 0.080261 0.38522 0.044807 0.033792 0.10243 0.062534 0.16618 0.045887 0.12183-0.031812 0.20719-0.10323 0.33365-0.1466z" fill="#1d3209" stroke-width=".43452"/>
   <path d="m13.402-2.0308c0.37377-0.26119 0.37199-1.2231 0.36277-1.6004-0.0106-0.43389-0.13363-1.3597-0.24402-1.5043-0.07555-0.098962-0.13847-0.13348-0.36254-0.050999 0.15951-0.11178 0.2154-0.23609 0.35252-0.19307 0.08939 0.028048 0.23614 0.26522 0.28787 0.45229 0.17637 0.4019 0.20157 1.0365 0.17499 1.5596-0.02295 0.45174-0.06344 1.1102-0.33981 1.4386-0.06338 0.075307-0.1215 0.089134-0.1863 0.093885-0.07545 0.00553-0.30274-0.17143-0.53208-0.28706 0.30466 0.096595 0.37936 0.16645 0.4866 0.091503z" fill="#1d3209" stroke-width=".43885"/>
  </g>
 </g>
 <g transform="rotate(90 22.492 22.342)">
  <g transform="translate(31.594 6.0193)">
   <path d="m-1.131-1.8654c0.37904-0.22634 0.73302-0.37135 1.5552-0.37229 0.82213 0 11.138-0.00651 11.695-0.00729 0.55622-3.388e-4 0.92382 0.24633 1.1392 0.37498 0.07288 0.043786 0.15021 0.072421 0.22496 0.06902 0.14568-0.00663 0.28589-0.12541 0.39452-0.42419 0.16429-0.45193 0.34719-2.1604-0.0886-2.9419-0.10835-0.19407-0.19697-0.25827-0.27608-0.2633-0.27487-0.017456-0.35165 0.23886-0.49488 0.23886-0.21529 0-12.306-0.015395-12.912-0.015395-0.60705 4.338e-4 -1.0376 0.065344-1.1892-0.11232-0.060587-0.070792-0.17333-0.11628-0.28459-0.11115-0.16778 0.00774-0.33216 0.13011-0.30917 0.45041 0.038018 0.53243 0.45311 1.5567 0.10143 2.6511-0.067242 0.20924 0.010907 0.51829 0.23357 0.52797 0.05961 0.00259 0.13054-0.016484 0.21066-0.06442z" fill="url(#linearGradient8768)" stroke-width=".42862"/>
   <path d="m-0.95485-1.9849c-0.20435-0.00868-0.44113-0.12616-0.39988-0.31733 0.13263-0.61471 0.14622-1.1467 0.029575-1.7763-0.073431-0.39634-0.22045-0.77501-0.16017-1.0419 0.027342-0.12105 0.19557-0.17386 0.47711-0.068629-0.20603-0.23474-0.65503-0.34931-0.61936 0.16095 0.036133 0.51203 0.4098 1.8661 0.092645 2.7586-0.052401 0.14747-0.014545 0.31372 0.080261 0.38522 0.044807 0.033792 0.10243 0.062534 0.16618 0.045887 0.12183-0.031812 0.20719-0.10323 0.33365-0.1466z" fill="#1d3209" stroke-width=".43452"/>
   <path d="m13.402-2.0308c0.37377-0.26119 0.37199-1.2231 0.36277-1.6004-0.0106-0.43389-0.13363-1.3597-0.24402-1.5043-0.07555-0.098962-0.13847-0.13348-0.36254-0.050999 0.15951-0.11178 0.2154-0.23609 0.35252-0.19307 0.08939 0.028048 0.23614 0.26522 0.28787 0.45229 0.17637 0.4019 0.20157 1.0365 0.17499 1.5596-0.02295 0.45174-0.06344 1.1102-0.33981 1.4386-0.06338 0.075307-0.1215 0.089134-0.1863 0.093885-0.07545 0.00553-0.30274-0.17143-0.53208-0.28706 0.30466 0.096595 0.37936 0.16645 0.4866 0.091503z" fill="#1d3209" stroke-width=".43885"/>
  </g>
  <g transform="translate(16.742 6.0193)">
   <path d="m-1.131-1.8654c0.37904-0.22634 0.73302-0.37135 1.5552-0.37229 0.82213 0 11.138-0.00651 11.695-0.00729 0.55622-3.388e-4 0.92382 0.24633 1.1392 0.37498 0.07288 0.043786 0.15021 0.072421 0.22496 0.06902 0.14568-0.00663 0.28589-0.12541 0.39452-0.42419 0.16429-0.45193 0.34719-2.1604-0.0886-2.9419-0.10835-0.19407-0.19697-0.25827-0.27608-0.2633-0.27487-0.017456-0.35165 0.23886-0.49488 0.23886-0.21529 0-12.306-0.015395-12.912-0.015395-0.60705 4.338e-4 -1.0376 0.065344-1.1892-0.11232-0.060587-0.070792-0.17333-0.11628-0.28459-0.11115-0.16778 0.00774-0.33216 0.13011-0.30917 0.45041 0.038018 0.53243 0.45311 1.5567 0.10143 2.6511-0.067242 0.20924 0.010907 0.51829 0.23357 0.52797 0.05961 0.00259 0.13054-0.016484 0.21066-0.06442z" fill="url(#linearGradient8768)" stroke-width=".42862"/>
   <path d="m-0.95485-1.9849c-0.20435-0.00868-0.44113-0.12616-0.39988-0.31733 0.13263-0.61471 0.14622-1.1467 0.029575-1.7763-0.073431-0.39634-0.22045-0.77501-0.16017-1.0419 0.027342-0.12105 0.19557-0.17386 0.47711-0.068629-0.20603-0.23474-0.65503-0.34931-0.61936 0.16095 0.036133 0.51203 0.4098 1.8661 0.092645 2.7586-0.052401 0.14747-0.014545 0.31372 0.080261 0.38522 0.044807 0.033792 0.10243 0.062534 0.16618 0.045887 0.12183-0.031812 0.20719-0.10323 0.33365-0.1466z" fill="#1d3209" stroke-width=".43452"/>
   <path d="m13.402-2.0308c0.37377-0.26119 0.37199-1.2231 0.36277-1.6004-0.0106-0.43389-0.13363-1.3597-0.24402-1.5043-0.07555-0.098962-0.13847-0.13348-0.36254-0.050999 0.15951-0.11178 0.2154-0.23609 0.35252-0.19307 0.08939 0.028048 0.23614 0.26522 0.28787 0.45229 0.17637 0.4019 0.20157 1.0365 0.17499 1.5596-0.02295 0.45174-0.06344 1.1102-0.33981 1.4386-0.06338 0.075307-0.1215 0.089134-0.1863 0.093885-0.07545 0.00553-0.30274-0.17143-0.53208-0.28706 0.30466 0.096595 0.37936 0.16645 0.4866 0.091503z" fill="#1d3209" stroke-width=".43885"/>
  </g>
  <g transform="translate(1.828 6.0193)">
   <path d="m-1.131-1.8654c0.37904-0.22634 0.73302-0.37135 1.5552-0.37229 0.82213 0 11.138-0.00651 11.695-0.00729 0.55622-3.388e-4 0.92382 0.24633 1.1392 0.37498 0.07288 0.043786 0.15021 0.072421 0.22496 0.06902 0.14568-0.00663 0.28589-0.12541 0.39452-0.42419 0.16429-0.45193 0.34719-2.1604-0.0886-2.9419-0.10835-0.19407-0.19697-0.25827-0.27608-0.2633-0.27487-0.017456-0.35165 0.23886-0.49488 0.23886-0.21529 0-12.306-0.015395-12.912-0.015395-0.60705 4.338e-4 -1.0376 0.065344-1.1892-0.11232-0.060587-0.070792-0.17333-0.11628-0.28459-0.11115-0.16778 0.00774-0.33216 0.13011-0.30917 0.45041 0.038018 0.53243 0.45311 1.5567 0.10143 2.6511-0.067242 0.20924 0.010907 0.51829 0.23357 0.52797 0.05961 0.00259 0.13054-0.016484 0.21066-0.06442z" fill="url(#linearGradient8768)" stroke-width=".42862"/>
   <path d="m-0.95485-1.9849c-0.20435-0.00868-0.44113-0.12616-0.39988-0.31733 0.13263-0.61471 0.14622-1.1467 0.029575-1.7763-0.073431-0.39634-0.22045-0.77501-0.16017-1.0419 0.027342-0.12105 0.19557-0.17386 0.47711-0.068629-0.20603-0.23474-0.65503-0.34931-0.61936 0.16095 0.036133 0.51203 0.4098 1.8661 0.092645 2.7586-0.052401 0.14747-0.014545 0.31372 0.080261 0.38522 0.044807 0.033792 0.10243 0.062534 0.16618 0.045887 0.12183-0.031812 0.20719-0.10323 0.33365-0.1466z" fill="#1d3209" stroke-width=".43452"/>
   <path d="m13.402-2.0308c0.37377-0.26119 0.37199-1.2231 0.36277-1.6004-0.0106-0.43389-0.13363-1.3597-0.24402-1.5043-0.07555-0.098962-0.13847-0.13348-0.36254-0.050999 0.15951-0.11178 0.2154-0.23609 0.35252-0.19307 0.08939 0.028048 0.23614 0.26522 0.28787 0.45229 0.17637 0.4019 0.20157 1.0365 0.17499 1.5596-0.02295 0.45174-0.06344 1.1102-0.33981 1.4386-0.06338 0.075307-0.1215 0.089134-0.1863 0.093885-0.07545 0.00553-0.30274-0.17143-0.53208-0.28706 0.30466 0.096595 0.37936 0.16645 0.4866 0.091503z" fill="#1d3209" stroke-width=".43885"/>
  </g>
 </g>
 <g transform="matrix(0 -1 -1 0 5.2965 45.654)">
  <g transform="translate(31.594 6.0193)">
   <path d="m-1.131-1.8654c0.37904-0.22634 0.73302-0.37135 1.5552-0.37229 0.82213 0 11.138-0.00651 11.695-0.00729 0.55622-3.388e-4 0.92382 0.24633 1.1392 0.37498 0.07288 0.043786 0.15021 0.072421 0.22496 0.06902 0.14568-0.00663 0.28589-0.12541 0.39452-0.42419 0.16429-0.45193 0.34719-2.1604-0.0886-2.9419-0.10835-0.19407-0.19697-0.25827-0.27608-0.2633-0.27487-0.017456-0.35165 0.23886-0.49488 0.23886-0.21529 0-12.306-0.015395-12.912-0.015395-0.60705 4.338e-4 -1.0376 0.065344-1.1892-0.11232-0.060587-0.070792-0.17333-0.11628-0.28459-0.11115-0.16778 0.00774-0.33216 0.13011-0.30917 0.45041 0.038018 0.53243 0.45311 1.5567 0.10143 2.6511-0.067242 0.20924 0.010907 0.51829 0.23357 0.52797 0.05961 0.00259 0.13054-0.016484 0.21066-0.06442z" fill="url(#linearGradient8768)" stroke-width=".42862"/>
   <path d="m-0.95485-1.9849c-0.20435-0.00868-0.44113-0.12616-0.39988-0.31733 0.13263-0.61471 0.14622-1.1467 0.029575-1.7763-0.073431-0.39634-0.22045-0.77501-0.16017-1.0419 0.027342-0.12105 0.19557-0.17386 0.47711-0.068629-0.20603-0.23474-0.65503-0.34931-0.61936 0.16095 0.036133 0.51203 0.4098 1.8661 0.092645 2.7586-0.052401 0.14747-0.014545 0.31372 0.080261 0.38522 0.044807 0.033792 0.10243 0.062534 0.16618 0.045887 0.12183-0.031812 0.20719-0.10323 0.33365-0.1466z" fill="#1d3209" stroke-width=".43452"/>
   <path d="m13.402-2.0308c0.37377-0.26119 0.37199-1.2231 0.36277-1.6004-0.0106-0.43389-0.13363-1.3597-0.24402-1.5043-0.07555-0.098962-0.13847-0.13348-0.36254-0.050999 0.15951-0.11178 0.2154-0.23609 0.35252-0.19307 0.08939 0.028048 0.23614 0.26522 0.28787 0.45229 0.17637 0.4019 0.20157 1.0365 0.17499 1.5596-0.02295 0.45174-0.06344 1.1102-0.33981 1.4386-0.06338 0.075307-0.1215 0.089134-0.1863 0.093885-0.07545 0.00553-0.30274-0.17143-0.53208-0.28706 0.30466 0.096595 0.37936 0.16645 0.4866 0.091503z" fill="#1d3209" stroke-width=".43885"/>
  </g>
  <g transform="translate(16.742 6.0193)">
   <path d="m-1.131-1.8654c0.37904-0.22634 0.73302-0.37135 1.5552-0.37229 0.82213 0 11.138-0.00651 11.695-0.00729 0.55622-3.388e-4 0.92382 0.24633 1.1392 0.37498 0.07288 0.043786 0.15021 0.072421 0.22496 0.06902 0.14568-0.00663 0.28589-0.12541 0.39452-0.42419 0.16429-0.45193 0.34719-2.1604-0.0886-2.9419-0.10835-0.19407-0.19697-0.25827-0.27608-0.2633-0.27487-0.017456-0.35165 0.23886-0.49488 0.23886-0.21529 0-12.306-0.015395-12.912-0.015395-0.60705 4.338e-4 -1.0376 0.065344-1.1892-0.11232-0.060587-0.070792-0.17333-0.11628-0.28459-0.11115-0.16778 0.00774-0.33216 0.13011-0.30917 0.45041 0.038018 0.53243 0.45311 1.5567 0.10143 2.6511-0.067242 0.20924 0.010907 0.51829 0.23357 0.52797 0.05961 0.00259 0.13054-0.016484 0.21066-0.06442z" fill="url(#linearGradient8768)" stroke-width=".42862"/>
   <path d="m-0.95485-1.9849c-0.20435-0.00868-0.44113-0.12616-0.39988-0.31733 0.13263-0.61471 0.14622-1.1467 0.029575-1.7763-0.073431-0.39634-0.22045-0.77501-0.16017-1.0419 0.027342-0.12105 0.19557-0.17386 0.47711-0.068629-0.20603-0.23474-0.65503-0.34931-0.61936 0.16095 0.036133 0.51203 0.4098 1.8661 0.092645 2.7586-0.052401 0.14747-0.014545 0.31372 0.080261 0.38522 0.044807 0.033792 0.10243 0.062534 0.16618 0.045887 0.12183-0.031812 0.20719-0.10323 0.33365-0.1466z" fill="#1d3209" stroke-width=".43452"/>
   <path d="m13.402-2.0308c0.37377-0.26119 0.37199-1.2231 0.36277-1.6004-0.0106-0.43389-0.13363-1.3597-0.24402-1.5043-0.07555-0.098962-0.13847-0.13348-0.36254-0.050999 0.15951-0.11178 0.2154-0.23609 0.35252-0.19307 0.08939 0.028048 0.23614 0.26522 0.28787 0.45229 0.17637 0.4019 0.20157 1.0365 0.17499 1.5596-0.02295 0.45174-0.06344 1.1102-0.33981 1.4386-0.06338 0.075307-0.1215 0.089134-0.1863 0.093885-0.07545 0.00553-0.30274-0.17143-0.53208-0.28706 0.30466 0.096595 0.37936 0.16645 0.4866 0.091503z" fill="#1d3209" stroke-width=".43885"/>
  </g>
  <g transform="translate(1.828 6.0193)">
   <path d="m-1.131-1.8654c0.37904-0.22634 0.73302-0.37135 1.5552-0.37229 0.82213 0 11.138-0.00651 11.695-0.00729 0.55622-3.388e-4 0.92382 0.24633 1.1392 0.37498 0.07288 0.043786 0.15021 0.072421 0.22496 0.06902 0.14568-0.00663 0.28589-0.12541 0.39452-0.42419 0.16429-0.45193 0.34719-2.1604-0.0886-2.9419-0.10835-0.19407-0.19697-0.25827-0.27608-0.2633-0.27487-0.017456-0.35165 0.23886-0.49488 0.23886-0.21529 0-12.306-0.015395-12.912-0.015395-0.60705 4.338e-4 -1.0376 0.065344-1.1892-0.11232-0.060587-0.070792-0.17333-0.11628-0.28459-0.11115-0.16778 0.00774-0.33216 0.13011-0.30917 0.45041 0.038018 0.53243 0.45311 1.5567 0.10143 2.6511-0.067242 0.20924 0.010907 0.51829 0.23357 0.52797 0.05961 0.00259 0.13054-0.016484 0.21066-0.06442z" fill="url(#linearGradient8768)" stroke-width=".42862"/>
   <path d="m-0.95485-1.9849c-0.20435-0.00868-0.44113-0.12616-0.39988-0.31733 0.13263-0.61471 0.14622-1.1467 0.029575-1.7763-0.073431-0.39634-0.22045-0.77501-0.16017-1.0419 0.027342-0.12105 0.19557-0.17386 0.47711-0.068629-0.20603-0.23474-0.65503-0.34931-0.61936 0.16095 0.036133 0.51203 0.4098 1.8661 0.092645 2.7586-0.052401 0.14747-0.014545 0.31372 0.080261 0.38522 0.044807 0.033792 0.10243 0.062534 0.16618 0.045887 0.12183-0.031812 0.20719-0.10323 0.33365-0.1466z" fill="#1d3209" stroke-width=".43452"/>
   <path d="m13.402-2.0308c0.37377-0.26119 0.37199-1.2231 0.36277-1.6004-0.0106-0.43389-0.13363-1.3597-0.24402-1.5043-0.07555-0.098962-0.13847-0.13348-0.36254-0.050999 0.15951-0.11178 0.2154-0.23609 0.35252-0.19307 0.08939 0.028048 0.23614 0.26522 0.28787 0.45229 0.17637 0.4019 0.20157 1.0365 0.17499 1.5596-0.02295 0.45174-0.06344 1.1102-0.33981 1.4386-0.06338 0.075307-0.1215 0.089134-0.1863 0.093885-0.07545 0.00553-0.30274-0.17143-0.53208-0.28706 0.30466 0.096595 0.37936 0.16645 0.4866 0.091503z" fill="#1d3209" stroke-width=".43885"/>
  </g>
 </g>
 <g transform="matrix(.93534 0 0 .92015 .0039817 .0043176)">
  <g stroke-width=".42862">
   <path d="m4.8141 1.0252c-0.038579 0.00123-0.07767 0.010469-0.11481 0.027989-0.6399 0.31131-1.1847 0.70693-1.7031 1.1913l-0.00245-1.12e-4c-0.53741 0.5165-0.9982 1.0632-1.4218 1.6853-0.20911 0.30903-0.32726 0.51888-0.34307 0.54768-0.06882 0.12525-0.039289 0.27763 0.062 0.36936l-0.00112 1.76e-4c8.003e-4 4.658e-4 0.00299 0.00187 0.00384 0.00277 0.00117 9.07e-4 0.00197 0.00224 0.0032 0.00315l0.00112-1.756e-4c0.15178 0.12556 0.35584 0.082831 0.43852-0.061926 0.20416-0.31066 0.37735-0.60146 0.57299-0.86683 0.20305-0.27302 0.4793-0.61167 0.77748-0.92577 0.4711-0.5134 0.98417-0.88565 1.5763-1.2539 0.10799-0.061678 0.18877-0.10162 0.28566-0.14677 0.14906-0.070968 0.21416-0.24888 0.14514-0.39933-0.051516-0.11237-0.16412-0.17708-0.27987-0.17292z" fill="#c59726"/>
   <path d="m5.0282 1.1003c0.020551 0.12945-0.045098 0.26211-0.16858 0.32065-0.38746 0.18369-0.76139 0.42878-1.1059 0.70338-0.26228 0.21475-0.53757 0.46955-0.77177 0.71407-0.2604 0.27526-0.51602 0.61055-0.75764 0.90385-0.27274 0.3311-0.40541 0.74833-0.71222 0.97711-0.072145 0.029514-0.12932 0.027626-0.23379 0.0019207 0.058082 0.12375 0.12744 0.13954 0.26723 0.16326 0.18457-0.01488 0.25139-0.17117 0.29636-0.24416 0.042148-0.068404 0.3863-0.58788 0.51127-0.75871 0.22313-0.29967 0.51672-0.64372 0.76024-0.90352 0.22398-0.23415 0.52938-0.51078 0.76562-0.70637 0.36125-0.27324 0.71558-0.51704 1.1039-0.7006 0.068755-0.032502 0.12007-0.088941 0.14418-0.1608 0.032139-0.14014-0.011396-0.23819-0.099087-0.31008z" fill="#9f5a1b"/>
   <path d="m4.6417 1.0967c-0.86635 0.4102-1.673 1.1906-2.2507 1.8551-0.32267 0.37649-0.63773 0.77316-0.87894 1.1078-0.076847 0.11522-0.24538 0.3558-0.24789 0.42543-8.002e-4 0.022749 0.014229 0.048785 0.046971 0.063575 0.079197 0.035767 0.13034-0.044976 0.14258-0.063087 0.052541-0.07778 0.25184-0.36129 0.47915-0.65806 0.18723-0.24442 0.47208-0.58991 0.73682-0.88571 0.24438-0.27302 0.51582-0.53984 0.75007-0.75364 0.40742-0.35419 0.83664-0.68694 1.2947-0.90003 0.048673-0.022653 0.075378-0.084482 0.051276-0.13668-0.030818-0.066739-0.086592-0.07245-0.1241-0.05469z" fill="#e0c97e"/>
   <path d="m4.8429 0.97546c-0.051981-0.0024969-0.10441 0.0082994-0.15173 0.030501-0.31017 0.14547-0.62045 0.32883-0.9232 0.54502l-0.050674 0.036466 0.00133 2.876e-4c-0.2543 0.18533-0.50652 0.39519-0.75204 0.6274-0.00235 0.00203-0.0048 0.00427-0.00718 0.00654l-0.046309 0.042884 0.00224 1.024e-4c-0.23291 0.22348-0.46299 0.46851-0.68473 0.73136-0.00235 0.00288-0.00469 0.00536-0.00702 0.00809l-0.037784 0.045493 0.00133 6.08e-5c-0.22585 0.27154-0.43946 0.5545-0.6339 0.84142l-0.028298 0.041721 9.07e-4 4.11e-5c-0.19324 0.28998-0.30411 0.48605-0.31596 0.50769-0.067265 0.12146-0.050376 0.26977 0.035941 0.37193l-0.00627 0.00144 0.039934 0.033324c8.536e-4 9.07e-4 0.00165 0.00181 0.00256 0.00267l0.00876 0.00727 0.00155-3.574e-4c0.013647 0.010836 0.0269 0.020711 0.040601 0.028463 0.042388 0.023267 0.090033 0.037597 0.13829 0.040281l0.00886 1.83e-4c0.11747 0.00283 0.22573-0.058717 0.28377-0.1588l0.00117-1.74e-4 0.00578-0.00994c0.007632-0.015451 0.20285-0.36197 0.55518-0.83595l0.00687-0.00968c0.23634-0.31852 0.48755-0.61846 0.74783-0.89388l4.705e-4 2.13e-5 0.00632-0.00747c0.24707-0.25947 0.5036-0.49703 0.7623-0.70584l6.936e-4 3.15e-5 0.00671-0.00613c0.25892-0.20794 0.52526-0.38834 0.78939-0.53786l2.262e-4 1.07e-5 0.0073-0.00453c0.1098-0.060661 0.20878-0.11285 0.30501-0.15763 0.080374-0.037634 0.14047-0.10617 0.16996-0.1911 0.027332-0.080484 0.022995-0.16666-0.012346-0.24336-0.050177-0.10871-0.15508-0.18076-0.27365-0.18771zm-0.00261 0.052427c0.1016 0.00595 0.19079 0.066204 0.23309 0.15836 0.029413 0.064014 0.033084 0.13577 0.010441 0.20269-0.02411 0.071849-0.075242 0.12868-0.14418 0.16079-0.094145 0.044426-0.19243 0.095724-0.30025 0.15541l-0.79443-0.14618c0.28474-0.19961 0.5751-0.36916 0.86463-0.50557 0.040862-0.019322 0.086189-0.027842 0.13066-0.025503zm-1.0542 0.57274 0.32102 0.059063 0.4617 0.085693c-0.24561 0.14289-0.49198 0.31186-0.73313 0.50495l-0.80006-0.03239c0.24533-0.22836 0.49737-0.436 0.75047-0.61726zm-0.011695 0.69992c-0.24174 0.19859-0.48162 0.42175-0.71318 0.66505l-0.76356 0.027962c0.22284-0.2613 0.45279-0.50519 0.68539-0.72601l0.14673 0.0058687zm-0.76381 0.71928c-0.24575 0.26198-0.48334 0.54721-0.70719 0.84871l-0.51144 0.00826-0.17129 0.00256c0.19387-0.28355 0.40615-0.56397 0.63172-0.832zm-0.74686 0.90168c-0.31007 0.42133-0.49221 0.73508-0.52745 0.79731l-0.43284 0.082818c-0.090868-0.084874-0.11395-0.22372-0.053405-0.33438 0.01258-0.023192 0.12797-0.22855 0.33497-0.53539zm-0.5693 0.85838c-0.052946 0.061148-0.13048 0.095389-0.21316 0.093551l-0.00756 5.112e-4c-0.03876-0.00176-0.076453-0.012687-0.11126-0.03016l0.13154-0.02546z" fill="#8d7129"/>
  </g>
  <g stroke-width=".42862">
   <path d="m1.5126 1.1197c0.038552 0.00187 0.077487 0.011743 0.11433 0.02987 0.6347 0.32178 1.173 0.72629 1.6834 1.2191l0.00245-7.15e-5c0.52885 0.52526 0.9806 1.0795 1.394 1.7084 0.20401 0.31243 0.3187 0.52419 0.33403 0.55324 0.066754 0.12637 0.034727 0.27824-0.068057 0.36829l0.00112 1.942e-4c-8.003e-4 4.524e-4 -0.00304 0.00181-0.00389 0.00267-0.00117 9.07e-4 -0.00203 0.00219-0.00325 0.00309l-0.00112-1.942e-4c-0.15385 0.12307-0.35718 0.077002-0.43747-0.069094-0.19903-0.31398-0.36743-0.60757-0.55868-0.87613-0.19854-0.27632-0.46919-0.61946-0.76218-0.93841-0.46261-0.52107-0.9695-0.90169-1.5555-1.2796-0.10696-0.063443-0.18708-0.1047-0.28322-0.15144-0.14788-0.073406-0.21005-0.25237-0.13856-0.40166 0.053357-0.11151 0.16701-0.17437 0.28268-0.1683z" fill="#c59726"/>
   <path d="m1.2973 1.1913c-0.022675 0.1291 0.040787 0.26281 0.16329 0.32337 0.38439 0.19003 0.75425 0.44123 1.0942 0.72145 0.25872 0.21902 0.52979 0.47832 0.75994 0.72664 0.25585 0.2795 0.50592 0.61894 0.7427 0.91617 0.26727 0.33553 0.39307 0.75489 0.69608 0.98868 0.071651 0.030699 0.12885 0.029744 0.23373 0.00574-0.060106 0.12277-0.12972 0.13743-0.26988 0.15884-0.1843-0.017905-0.24855-0.17528-0.29231-0.24899-0.041017-0.069088-0.37659-0.59414-0.49874-0.767-0.21818-0.3033-0.50608-0.65212-0.74531-0.91588-0.2201-0.2378-0.52092-0.5194-0.75392-0.71885-0.35672-0.27914-0.707-0.52872-1.0923-0.71863-0.068213-0.033628-0.1186-0.090901-0.14152-0.16314-0.029834-0.14065 0.015308-0.23797 0.10416-0.30841z" fill="#9f5a1b"/>
   <path d="m1.6837 1.1941c0.8595 0.42437 1.6533 1.2179 2.2199 1.8918 0.31644 0.38174 0.62495 0.78353 0.86063 1.1221 0.074945 0.11646 0.2395 0.35978 0.24087 0.42944 4.423e-4 0.022755-0.015029 0.048545-0.048011 0.062795-0.079773 0.034465-0.12959-0.04711-0.14153-0.06542-0.051255-0.078632-0.24588-0.36537-0.46828-0.66584-0.18319-0.24747-0.46233-0.59758-0.72218-0.89769-0.23987-0.27699-0.50689-0.54824-0.7376-0.76585-0.40155-0.36084-0.82525-0.70058-1.2798-0.92117-0.048294-0.023448-0.073981-0.085708-0.049025-0.1375 0.03191-0.066224 0.087772-0.071018 0.12498-0.052644z" fill="#e0c97e"/>
   <path d="m1.4845 1.0695c0.052018-0.00164 0.10426 0.010013 0.15121 0.032988 0.30774 0.15054 0.61497 0.33897 0.91413 0.56011l0.050065 0.037293-0.00133 2.662e-4c0.25123 0.18948 0.49997 0.40346 0.74165 0.63966 0.00235 0.00208 0.00475 0.00437 0.00707 0.00665l0.0456 0.043642-0.00224 6.56e-5c0.22921 0.22728 0.45524 0.47605 0.67263 0.74251 0.00229 0.00293 0.00464 0.00544 0.00689 0.0082l0.037032 0.046112-0.00133 3.95e-5c0.22137 0.27521 0.4303 0.56164 0.62001 0.85172l0.02761 0.04218-9.07e-4 2.61e-5c0.18846 0.29312 0.29609 0.49098 0.30758 0.51281 0.065262 0.12255 0.045941 0.27056-0.042041 0.37129l0.00625 0.00155-0.040473 0.032662c-8.536e-4 9.07e-4 -0.00165 0.00176-0.00256 0.00267l-0.00888 0.00712-0.00155-3.831e-4c-0.013823 0.010612-0.027236 0.020268-0.041065 0.027791-0.042767 0.022568-0.090638 0.036114-0.13893 0.038003l-0.00886 3.79e-5c-0.11751 9.067e-4 -0.22475-0.062416-0.28113-0.16344l-0.00117-1.926e-4 -0.00562-0.010041c-0.0073803-0.015563-0.19689-0.36524-0.54139-0.84495l-0.00671-0.0098c-0.23108-0.32235-0.47733-0.62638-0.73306-0.90603l-4.717e-4 1.39e-5 -0.0062-0.00758c-0.24278-0.26349-0.49538-0.50523-0.7506-0.71826l-6.936e-4 1.97e-5 -0.0066-0.00624c-0.25548-0.21216-0.51882-0.39691-0.78045-0.55074l-2.268e-4 7e-6 -0.00723-0.00469c-0.10878-0.062456-0.20689-0.11627-0.30238-0.16262-0.079746-0.038947-0.1387-0.10846-0.1668-0.19386-0.026007-0.080922-0.020254-0.16702 0.01634-0.24312 0.051955-0.10787 0.15802-0.17819 0.2767-0.18319zm0.00176 0.052464c-0.10168 0.00428-0.19185 0.063063-0.23566 0.15451-0.03046 0.063522-0.035307 0.13521-0.013765 0.2025 0.022925 0.072235 0.073119 0.1299 0.14152 0.16314 0.093403 0.045963 0.19084 0.098871 0.29766 0.16032l0.79671-0.13312c-0.28143-0.20426-0.56896-0.37855-0.85621-0.5197-0.040537-0.019991-0.08572-0.029253-0.13022-0.027645zm1.0446 0.58997-0.32194 0.053785-0.46304 0.0781c0.24323 0.1469 0.4868 0.3199 0.72474 0.51692l0.80048-0.019249c-0.24155-0.23236-0.49015-0.44411-0.74023-0.6295zm2.012e-4 0.70002c0.23845 0.20253 0.47463 0.4296 0.70217 0.67667l0.763 0.040494c-0.21851-0.26492-0.44443-0.51256-0.67337-0.73717l-0.14681 0.00347zm0.7519 0.73173c0.24141 0.26598 0.47429 0.55508 0.69316 0.86021l0.51124 0.016656 0.17123 0.00538c-0.18919-0.28669-0.39684-0.57056-0.61798-0.84226zm0.73196 0.91383c0.30311 0.42636 0.48007 0.74306 0.51429 0.80586l0.43142 0.089913c0.09225-0.083371 0.11761-0.22182 0.058888-0.33345-0.012196-0.0234-0.1242-0.23062-0.32613-0.54082zm0.55513 0.86761c0.051933 0.062009 0.1289 0.097519 0.21159 0.097038l0.00755 6.402e-4c0.038781-0.00112 0.076652-0.011433 0.11174-0.02833l-0.13111-0.02762z" fill="#8d7129"/>
  </g>
 </g>
 <g transform="matrix(.93534 0 0 .92015 39.562 .0043176)">
  <g stroke-width=".42862">
   <path d="m4.8141 1.0252c-0.038579 0.00123-0.07767 0.010469-0.11481 0.027989-0.6399 0.31131-1.1847 0.70693-1.7031 1.1913l-0.00245-1.12e-4c-0.53741 0.5165-0.9982 1.0632-1.4218 1.6853-0.20911 0.30903-0.32726 0.51888-0.34307 0.54768-0.06882 0.12525-0.039289 0.27763 0.062 0.36936l-0.00112 1.76e-4c8.003e-4 4.658e-4 0.00299 0.00187 0.00384 0.00277 0.00117 9.07e-4 0.00197 0.00224 0.0032 0.00315l0.00112-1.756e-4c0.15178 0.12556 0.35584 0.082831 0.43852-0.061926 0.20416-0.31066 0.37735-0.60146 0.57299-0.86683 0.20305-0.27302 0.4793-0.61167 0.77748-0.92577 0.4711-0.5134 0.98417-0.88565 1.5763-1.2539 0.10799-0.061678 0.18877-0.10162 0.28566-0.14677 0.14906-0.070968 0.21416-0.24888 0.14514-0.39933-0.051516-0.11237-0.16412-0.17708-0.27987-0.17292z" fill="#c59726"/>
   <path d="m5.0282 1.1003c0.020551 0.12945-0.045098 0.26211-0.16858 0.32065-0.38746 0.18369-0.76139 0.42878-1.1059 0.70338-0.26228 0.21475-0.53757 0.46955-0.77177 0.71407-0.2604 0.27526-0.51602 0.61055-0.75764 0.90385-0.27274 0.3311-0.40541 0.74833-0.71222 0.97711-0.072145 0.029514-0.12932 0.027626-0.23379 0.0019207 0.058082 0.12375 0.12744 0.13954 0.26723 0.16326 0.18457-0.01488 0.25139-0.17117 0.29636-0.24416 0.042148-0.068404 0.3863-0.58788 0.51127-0.75871 0.22313-0.29967 0.51672-0.64372 0.76024-0.90352 0.22398-0.23415 0.52938-0.51078 0.76562-0.70637 0.36125-0.27324 0.71558-0.51704 1.1039-0.7006 0.068755-0.032502 0.12007-0.088941 0.14418-0.1608 0.032139-0.14014-0.011396-0.23819-0.099087-0.31008z" fill="#9f5a1b"/>
   <path d="m4.6417 1.0967c-0.86635 0.4102-1.673 1.1906-2.2507 1.8551-0.32267 0.37649-0.63773 0.77316-0.87894 1.1078-0.076847 0.11522-0.24538 0.3558-0.24789 0.42543-8.002e-4 0.022749 0.014229 0.048785 0.046971 0.063575 0.079197 0.035767 0.13034-0.044976 0.14258-0.063087 0.052541-0.07778 0.25184-0.36129 0.47915-0.65806 0.18723-0.24442 0.47208-0.58991 0.73682-0.88571 0.24438-0.27302 0.51582-0.53984 0.75007-0.75364 0.40742-0.35419 0.83664-0.68694 1.2947-0.90003 0.048673-0.022653 0.075378-0.084482 0.051276-0.13668-0.030818-0.066739-0.086592-0.07245-0.1241-0.05469z" fill="#e0c97e"/>
   <path d="m4.8429 0.97546c-0.051981-0.0024969-0.10441 0.0082994-0.15173 0.030501-0.31017 0.14547-0.62045 0.32883-0.9232 0.54502l-0.050674 0.036466 0.00133 2.876e-4c-0.2543 0.18533-0.50652 0.39519-0.75204 0.6274-0.00235 0.00203-0.0048 0.00427-0.00718 0.00654l-0.046309 0.042884 0.00224 1.024e-4c-0.23291 0.22348-0.46299 0.46851-0.68473 0.73136-0.00235 0.00288-0.00469 0.00536-0.00702 0.00809l-0.037784 0.045493 0.00133 6.08e-5c-0.22585 0.27154-0.43946 0.5545-0.6339 0.84142l-0.028298 0.041721 9.07e-4 4.11e-5c-0.19324 0.28998-0.30411 0.48605-0.31596 0.50769-0.067265 0.12146-0.050376 0.26977 0.035941 0.37193l-0.00627 0.00144 0.039934 0.033324c8.536e-4 9.07e-4 0.00165 0.00181 0.00256 0.00267l0.00876 0.00727 0.00155-3.574e-4c0.013647 0.010836 0.0269 0.020711 0.040601 0.028463 0.042388 0.023267 0.090033 0.037597 0.13829 0.040281l0.00886 1.83e-4c0.11747 0.00283 0.22573-0.058717 0.28377-0.1588l0.00117-1.74e-4 0.00578-0.00994c0.007632-0.015451 0.20285-0.36197 0.55518-0.83595l0.00687-0.00968c0.23634-0.31852 0.48755-0.61846 0.74783-0.89388l4.705e-4 2.13e-5 0.00632-0.00747c0.24707-0.25947 0.5036-0.49703 0.7623-0.70584l6.936e-4 3.15e-5 0.00671-0.00613c0.25892-0.20794 0.52526-0.38834 0.78939-0.53786l2.262e-4 1.07e-5 0.0073-0.00453c0.1098-0.060661 0.20878-0.11285 0.30501-0.15763 0.080374-0.037634 0.14047-0.10617 0.16996-0.1911 0.027332-0.080484 0.022995-0.16666-0.012346-0.24336-0.050177-0.10871-0.15508-0.18076-0.27365-0.18771zm-0.00261 0.052427c0.1016 0.00595 0.19079 0.066204 0.23309 0.15836 0.029413 0.064014 0.033084 0.13577 0.010441 0.20269-0.02411 0.071849-0.075242 0.12868-0.14418 0.16079-0.094145 0.044426-0.19243 0.095724-0.30025 0.15541l-0.79443-0.14618c0.28474-0.19961 0.5751-0.36916 0.86463-0.50557 0.040862-0.019322 0.086189-0.027842 0.13066-0.025503zm-1.0542 0.57274 0.32102 0.059063 0.4617 0.085693c-0.24561 0.14289-0.49198 0.31186-0.73313 0.50495l-0.80006-0.03239c0.24533-0.22836 0.49737-0.436 0.75047-0.61726zm-0.011695 0.69992c-0.24174 0.19859-0.48162 0.42175-0.71318 0.66505l-0.76356 0.027962c0.22284-0.2613 0.45279-0.50519 0.68539-0.72601l0.14673 0.0058687zm-0.76381 0.71928c-0.24575 0.26198-0.48334 0.54721-0.70719 0.84871l-0.51144 0.00826-0.17129 0.00256c0.19387-0.28355 0.40615-0.56397 0.63172-0.832zm-0.74686 0.90168c-0.31007 0.42133-0.49221 0.73508-0.52745 0.79731l-0.43284 0.082818c-0.090868-0.084874-0.11395-0.22372-0.053405-0.33438 0.01258-0.023192 0.12797-0.22855 0.33497-0.53539zm-0.5693 0.85838c-0.052946 0.061148-0.13048 0.095389-0.21316 0.093551l-0.00756 5.112e-4c-0.03876-0.00176-0.076453-0.012687-0.11126-0.03016l0.13154-0.02546z" fill="#8d7129"/>
  </g>
  <g stroke-width=".42862">
   <path d="m1.5126 1.1197c0.038552 0.00187 0.077487 0.011743 0.11433 0.02987 0.6347 0.32178 1.173 0.72629 1.6834 1.2191l0.00245-7.15e-5c0.52885 0.52526 0.9806 1.0795 1.394 1.7084 0.20401 0.31243 0.3187 0.52419 0.33403 0.55324 0.066754 0.12637 0.034727 0.27824-0.068057 0.36829l0.00112 1.942e-4c-8.003e-4 4.524e-4 -0.00304 0.00181-0.00389 0.00267-0.00117 9.07e-4 -0.00203 0.00219-0.00325 0.00309l-0.00112-1.942e-4c-0.15385 0.12307-0.35718 0.077002-0.43747-0.069094-0.19903-0.31398-0.36743-0.60757-0.55868-0.87613-0.19854-0.27632-0.46919-0.61946-0.76218-0.93841-0.46261-0.52107-0.9695-0.90169-1.5555-1.2796-0.10696-0.063443-0.18708-0.1047-0.28322-0.15144-0.14788-0.073406-0.21005-0.25237-0.13856-0.40166 0.053357-0.11151 0.16701-0.17437 0.28268-0.1683z" fill="#c59726"/>
   <path d="m1.2973 1.1913c-0.022675 0.1291 0.040787 0.26281 0.16329 0.32337 0.38439 0.19003 0.75425 0.44123 1.0942 0.72145 0.25872 0.21902 0.52979 0.47832 0.75994 0.72664 0.25585 0.2795 0.50592 0.61894 0.7427 0.91617 0.26727 0.33553 0.39307 0.75489 0.69608 0.98868 0.071651 0.030699 0.12885 0.029744 0.23373 0.00574-0.060106 0.12277-0.12972 0.13743-0.26988 0.15884-0.1843-0.017905-0.24855-0.17528-0.29231-0.24899-0.041017-0.069088-0.37659-0.59414-0.49874-0.767-0.21818-0.3033-0.50608-0.65212-0.74531-0.91588-0.2201-0.2378-0.52092-0.5194-0.75392-0.71885-0.35672-0.27914-0.707-0.52872-1.0923-0.71863-0.068213-0.033628-0.1186-0.090901-0.14152-0.16314-0.029834-0.14065 0.015308-0.23797 0.10416-0.30841z" fill="#9f5a1b"/>
   <path d="m1.6837 1.1941c0.8595 0.42437 1.6533 1.2179 2.2199 1.8918 0.31644 0.38174 0.62495 0.78353 0.86063 1.1221 0.074945 0.11646 0.2395 0.35978 0.24087 0.42944 4.423e-4 0.022755-0.015029 0.048545-0.048011 0.062795-0.079773 0.034465-0.12959-0.04711-0.14153-0.06542-0.051255-0.078632-0.24588-0.36537-0.46828-0.66584-0.18319-0.24747-0.46233-0.59758-0.72218-0.89769-0.23987-0.27699-0.50689-0.54824-0.7376-0.76585-0.40155-0.36084-0.82525-0.70058-1.2798-0.92117-0.048294-0.023448-0.073981-0.085708-0.049025-0.1375 0.03191-0.066224 0.087772-0.071018 0.12498-0.052644z" fill="#e0c97e"/>
   <path d="m1.4845 1.0695c0.052018-0.00164 0.10426 0.010013 0.15121 0.032988 0.30774 0.15054 0.61497 0.33897 0.91413 0.56011l0.050065 0.037293-0.00133 2.662e-4c0.25123 0.18948 0.49997 0.40346 0.74165 0.63966 0.00235 0.00208 0.00475 0.00437 0.00707 0.00665l0.0456 0.043642-0.00224 6.56e-5c0.22921 0.22728 0.45524 0.47605 0.67263 0.74251 0.00229 0.00293 0.00464 0.00544 0.00689 0.0082l0.037032 0.046112-0.00133 3.95e-5c0.22137 0.27521 0.4303 0.56164 0.62001 0.85172l0.02761 0.04218-9.07e-4 2.61e-5c0.18846 0.29312 0.29609 0.49098 0.30758 0.51281 0.065262 0.12255 0.045941 0.27056-0.042041 0.37129l0.00625 0.00155-0.040473 0.032662c-8.536e-4 9.07e-4 -0.00165 0.00176-0.00256 0.00267l-0.00888 0.00712-0.00155-3.831e-4c-0.013823 0.010612-0.027236 0.020268-0.041065 0.027791-0.042767 0.022568-0.090638 0.036114-0.13893 0.038003l-0.00886 3.79e-5c-0.11751 9.067e-4 -0.22475-0.062416-0.28113-0.16344l-0.00117-1.926e-4 -0.00562-0.010041c-0.0073803-0.015563-0.19689-0.36524-0.54139-0.84495l-0.00671-0.0098c-0.23108-0.32235-0.47733-0.62638-0.73306-0.90603l-4.717e-4 1.39e-5 -0.0062-0.00758c-0.24278-0.26349-0.49538-0.50523-0.7506-0.71826l-6.936e-4 1.97e-5 -0.0066-0.00624c-0.25548-0.21216-0.51882-0.39691-0.78045-0.55074l-2.268e-4 7e-6 -0.00723-0.00469c-0.10878-0.062456-0.20689-0.11627-0.30238-0.16262-0.079746-0.038947-0.1387-0.10846-0.1668-0.19386-0.026007-0.080922-0.020254-0.16702 0.01634-0.24312 0.051955-0.10787 0.15802-0.17819 0.2767-0.18319zm0.00176 0.052464c-0.10168 0.00428-0.19185 0.063063-0.23566 0.15451-0.03046 0.063522-0.035307 0.13521-0.013765 0.2025 0.022925 0.072235 0.073119 0.1299 0.14152 0.16314 0.093403 0.045963 0.19084 0.098871 0.29766 0.16032l0.79671-0.13312c-0.28143-0.20426-0.56896-0.37855-0.85621-0.5197-0.040537-0.019991-0.08572-0.029253-0.13022-0.027645zm1.0446 0.58997-0.32194 0.053785-0.46304 0.0781c0.24323 0.1469 0.4868 0.3199 0.72474 0.51692l0.80048-0.019249c-0.24155-0.23236-0.49015-0.44411-0.74023-0.6295zm2.012e-4 0.70002c0.23845 0.20253 0.47463 0.4296 0.70217 0.67667l0.763 0.040494c-0.21851-0.26492-0.44443-0.51256-0.67337-0.73717l-0.14681 0.00347zm0.7519 0.73173c0.24141 0.26598 0.47429 0.55508 0.69316 0.86021l0.51124 0.016656 0.17123 0.00538c-0.18919-0.28669-0.39684-0.57056-0.61798-0.84226zm0.73196 0.91383c0.30311 0.42636 0.48007 0.74306 0.51429 0.80586l0.43142 0.089913c0.09225-0.083371 0.11761-0.22182 0.058888-0.33345-0.012196-0.0234-0.1242-0.23062-0.32613-0.54082zm0.55513 0.86761c0.051933 0.062009 0.1289 0.097519 0.21159 0.097038l0.00755 6.402e-4c0.038781-0.00112 0.076652-0.011433 0.11174-0.02833l-0.13111-0.02762z" fill="#8d7129"/>
  </g>
 </g>
 <g transform="matrix(.93534 0 0 -.92015 39.562 45.326)">
  <g stroke-width=".42862">
   <path d="m4.8141 1.0252c-0.038579 0.00123-0.07767 0.010469-0.11481 0.027989-0.6399 0.31131-1.1847 0.70693-1.7031 1.1913l-0.00245-1.12e-4c-0.53741 0.5165-0.9982 1.0632-1.4218 1.6853-0.20911 0.30903-0.32726 0.51888-0.34307 0.54768-0.06882 0.12525-0.039289 0.27763 0.062 0.36936l-0.00112 1.76e-4c8.003e-4 4.658e-4 0.00299 0.00187 0.00384 0.00277 0.00117 9.07e-4 0.00197 0.00224 0.0032 0.00315l0.00112-1.756e-4c0.15178 0.12556 0.35584 0.082831 0.43852-0.061926 0.20416-0.31066 0.37735-0.60146 0.57299-0.86683 0.20305-0.27302 0.4793-0.61167 0.77748-0.92577 0.4711-0.5134 0.98417-0.88565 1.5763-1.2539 0.10799-0.061678 0.18877-0.10162 0.28566-0.14677 0.14906-0.070968 0.21416-0.24888 0.14514-0.39933-0.051516-0.11237-0.16412-0.17708-0.27987-0.17292z" fill="#c59726"/>
   <path d="m5.0282 1.1003c0.020551 0.12945-0.045098 0.26211-0.16858 0.32065-0.38746 0.18369-0.76139 0.42878-1.1059 0.70338-0.26228 0.21475-0.53757 0.46955-0.77177 0.71407-0.2604 0.27526-0.51602 0.61055-0.75764 0.90385-0.27274 0.3311-0.40541 0.74833-0.71222 0.97711-0.072145 0.029514-0.12932 0.027626-0.23379 0.0019207 0.058082 0.12375 0.12744 0.13954 0.26723 0.16326 0.18457-0.01488 0.25139-0.17117 0.29636-0.24416 0.042148-0.068404 0.3863-0.58788 0.51127-0.75871 0.22313-0.29967 0.51672-0.64372 0.76024-0.90352 0.22398-0.23415 0.52938-0.51078 0.76562-0.70637 0.36125-0.27324 0.71558-0.51704 1.1039-0.7006 0.068755-0.032502 0.12007-0.088941 0.14418-0.1608 0.032139-0.14014-0.011396-0.23819-0.099087-0.31008z" fill="#9f5a1b"/>
   <path d="m4.6417 1.0967c-0.86635 0.4102-1.673 1.1906-2.2507 1.8551-0.32267 0.37649-0.63773 0.77316-0.87894 1.1078-0.076847 0.11522-0.24538 0.3558-0.24789 0.42543-8.002e-4 0.022749 0.014229 0.048785 0.046971 0.063575 0.079197 0.035767 0.13034-0.044976 0.14258-0.063087 0.052541-0.07778 0.25184-0.36129 0.47915-0.65806 0.18723-0.24442 0.47208-0.58991 0.73682-0.88571 0.24438-0.27302 0.51582-0.53984 0.75007-0.75364 0.40742-0.35419 0.83664-0.68694 1.2947-0.90003 0.048673-0.022653 0.075378-0.084482 0.051276-0.13668-0.030818-0.066739-0.086592-0.07245-0.1241-0.05469z" fill="#e0c97e"/>
   <path d="m4.8429 0.97546c-0.051981-0.0024969-0.10441 0.0082994-0.15173 0.030501-0.31017 0.14547-0.62045 0.32883-0.9232 0.54502l-0.050674 0.036466 0.00133 2.876e-4c-0.2543 0.18533-0.50652 0.39519-0.75204 0.6274-0.00235 0.00203-0.0048 0.00427-0.00718 0.00654l-0.046309 0.042884 0.00224 1.024e-4c-0.23291 0.22348-0.46299 0.46851-0.68473 0.73136-0.00235 0.00288-0.00469 0.00536-0.00702 0.00809l-0.037784 0.045493 0.00133 6.08e-5c-0.22585 0.27154-0.43946 0.5545-0.6339 0.84142l-0.028298 0.041721 9.07e-4 4.11e-5c-0.19324 0.28998-0.30411 0.48605-0.31596 0.50769-0.067265 0.12146-0.050376 0.26977 0.035941 0.37193l-0.00627 0.00144 0.039934 0.033324c8.536e-4 9.07e-4 0.00165 0.00181 0.00256 0.00267l0.00876 0.00727 0.00155-3.574e-4c0.013647 0.010836 0.0269 0.020711 0.040601 0.028463 0.042388 0.023267 0.090033 0.037597 0.13829 0.040281l0.00886 1.83e-4c0.11747 0.00283 0.22573-0.058717 0.28377-0.1588l0.00117-1.74e-4 0.00578-0.00994c0.007632-0.015451 0.20285-0.36197 0.55518-0.83595l0.00687-0.00968c0.23634-0.31852 0.48755-0.61846 0.74783-0.89388l4.705e-4 2.13e-5 0.00632-0.00747c0.24707-0.25947 0.5036-0.49703 0.7623-0.70584l6.936e-4 3.15e-5 0.00671-0.00613c0.25892-0.20794 0.52526-0.38834 0.78939-0.53786l2.262e-4 1.07e-5 0.0073-0.00453c0.1098-0.060661 0.20878-0.11285 0.30501-0.15763 0.080374-0.037634 0.14047-0.10617 0.16996-0.1911 0.027332-0.080484 0.022995-0.16666-0.012346-0.24336-0.050177-0.10871-0.15508-0.18076-0.27365-0.18771zm-0.00261 0.052427c0.1016 0.00595 0.19079 0.066204 0.23309 0.15836 0.029413 0.064014 0.033084 0.13577 0.010441 0.20269-0.02411 0.071849-0.075242 0.12868-0.14418 0.16079-0.094145 0.044426-0.19243 0.095724-0.30025 0.15541l-0.79443-0.14618c0.28474-0.19961 0.5751-0.36916 0.86463-0.50557 0.040862-0.019322 0.086189-0.027842 0.13066-0.025503zm-1.0542 0.57274 0.32102 0.059063 0.4617 0.085693c-0.24561 0.14289-0.49198 0.31186-0.73313 0.50495l-0.80006-0.03239c0.24533-0.22836 0.49737-0.436 0.75047-0.61726zm-0.011695 0.69992c-0.24174 0.19859-0.48162 0.42175-0.71318 0.66505l-0.76356 0.027962c0.22284-0.2613 0.45279-0.50519 0.68539-0.72601l0.14673 0.0058687zm-0.76381 0.71928c-0.24575 0.26198-0.48334 0.54721-0.70719 0.84871l-0.51144 0.00826-0.17129 0.00256c0.19387-0.28355 0.40615-0.56397 0.63172-0.832zm-0.74686 0.90168c-0.31007 0.42133-0.49221 0.73508-0.52745 0.79731l-0.43284 0.082818c-0.090868-0.084874-0.11395-0.22372-0.053405-0.33438 0.01258-0.023192 0.12797-0.22855 0.33497-0.53539zm-0.5693 0.85838c-0.052946 0.061148-0.13048 0.095389-0.21316 0.093551l-0.00756 5.112e-4c-0.03876-0.00176-0.076453-0.012687-0.11126-0.03016l0.13154-0.02546z" fill="#8d7129"/>
  </g>
  <g stroke-width=".42862">
   <path d="m1.5126 1.1197c0.038552 0.00187 0.077487 0.011743 0.11433 0.02987 0.6347 0.32178 1.173 0.72629 1.6834 1.2191l0.00245-7.15e-5c0.52885 0.52526 0.9806 1.0795 1.394 1.7084 0.20401 0.31243 0.3187 0.52419 0.33403 0.55324 0.066754 0.12637 0.034727 0.27824-0.068057 0.36829l0.00112 1.942e-4c-8.003e-4 4.524e-4 -0.00304 0.00181-0.00389 0.00267-0.00117 9.07e-4 -0.00203 0.00219-0.00325 0.00309l-0.00112-1.942e-4c-0.15385 0.12307-0.35718 0.077002-0.43747-0.069094-0.19903-0.31398-0.36743-0.60757-0.55868-0.87613-0.19854-0.27632-0.46919-0.61946-0.76218-0.93841-0.46261-0.52107-0.9695-0.90169-1.5555-1.2796-0.10696-0.063443-0.18708-0.1047-0.28322-0.15144-0.14788-0.073406-0.21005-0.25237-0.13856-0.40166 0.053357-0.11151 0.16701-0.17437 0.28268-0.1683z" fill="#c59726"/>
   <path d="m1.2973 1.1913c-0.022675 0.1291 0.040787 0.26281 0.16329 0.32337 0.38439 0.19003 0.75425 0.44123 1.0942 0.72145 0.25872 0.21902 0.52979 0.47832 0.75994 0.72664 0.25585 0.2795 0.50592 0.61894 0.7427 0.91617 0.26727 0.33553 0.39307 0.75489 0.69608 0.98868 0.071651 0.030699 0.12885 0.029744 0.23373 0.00574-0.060106 0.12277-0.12972 0.13743-0.26988 0.15884-0.1843-0.017905-0.24855-0.17528-0.29231-0.24899-0.041017-0.069088-0.37659-0.59414-0.49874-0.767-0.21818-0.3033-0.50608-0.65212-0.74531-0.91588-0.2201-0.2378-0.52092-0.5194-0.75392-0.71885-0.35672-0.27914-0.707-0.52872-1.0923-0.71863-0.068213-0.033628-0.1186-0.090901-0.14152-0.16314-0.029834-0.14065 0.015308-0.23797 0.10416-0.30841z" fill="#9f5a1b"/>
   <path d="m1.6837 1.1941c0.8595 0.42437 1.6533 1.2179 2.2199 1.8918 0.31644 0.38174 0.62495 0.78353 0.86063 1.1221 0.074945 0.11646 0.2395 0.35978 0.24087 0.42944 4.423e-4 0.022755-0.015029 0.048545-0.048011 0.062795-0.079773 0.034465-0.12959-0.04711-0.14153-0.06542-0.051255-0.078632-0.24588-0.36537-0.46828-0.66584-0.18319-0.24747-0.46233-0.59758-0.72218-0.89769-0.23987-0.27699-0.50689-0.54824-0.7376-0.76585-0.40155-0.36084-0.82525-0.70058-1.2798-0.92117-0.048294-0.023448-0.073981-0.085708-0.049025-0.1375 0.03191-0.066224 0.087772-0.071018 0.12498-0.052644z" fill="#e0c97e"/>
   <path d="m1.4845 1.0695c0.052018-0.00164 0.10426 0.010013 0.15121 0.032988 0.30774 0.15054 0.61497 0.33897 0.91413 0.56011l0.050065 0.037293-0.00133 2.662e-4c0.25123 0.18948 0.49997 0.40346 0.74165 0.63966 0.00235 0.00208 0.00475 0.00437 0.00707 0.00665l0.0456 0.043642-0.00224 6.56e-5c0.22921 0.22728 0.45524 0.47605 0.67263 0.74251 0.00229 0.00293 0.00464 0.00544 0.00689 0.0082l0.037032 0.046112-0.00133 3.95e-5c0.22137 0.27521 0.4303 0.56164 0.62001 0.85172l0.02761 0.04218-9.07e-4 2.61e-5c0.18846 0.29312 0.29609 0.49098 0.30758 0.51281 0.065262 0.12255 0.045941 0.27056-0.042041 0.37129l0.00625 0.00155-0.040473 0.032662c-8.536e-4 9.07e-4 -0.00165 0.00176-0.00256 0.00267l-0.00888 0.00712-0.00155-3.831e-4c-0.013823 0.010612-0.027236 0.020268-0.041065 0.027791-0.042767 0.022568-0.090638 0.036114-0.13893 0.038003l-0.00886 3.79e-5c-0.11751 9.067e-4 -0.22475-0.062416-0.28113-0.16344l-0.00117-1.926e-4 -0.00562-0.010041c-0.0073803-0.015563-0.19689-0.36524-0.54139-0.84495l-0.00671-0.0098c-0.23108-0.32235-0.47733-0.62638-0.73306-0.90603l-4.717e-4 1.39e-5 -0.0062-0.00758c-0.24278-0.26349-0.49538-0.50523-0.7506-0.71826l-6.936e-4 1.97e-5 -0.0066-0.00624c-0.25548-0.21216-0.51882-0.39691-0.78045-0.55074l-2.268e-4 7e-6 -0.00723-0.00469c-0.10878-0.062456-0.20689-0.11627-0.30238-0.16262-0.079746-0.038947-0.1387-0.10846-0.1668-0.19386-0.026007-0.080922-0.020254-0.16702 0.01634-0.24312 0.051955-0.10787 0.15802-0.17819 0.2767-0.18319zm0.00176 0.052464c-0.10168 0.00428-0.19185 0.063063-0.23566 0.15451-0.03046 0.063522-0.035307 0.13521-0.013765 0.2025 0.022925 0.072235 0.073119 0.1299 0.14152 0.16314 0.093403 0.045963 0.19084 0.098871 0.29766 0.16032l0.79671-0.13312c-0.28143-0.20426-0.56896-0.37855-0.85621-0.5197-0.040537-0.019991-0.08572-0.029253-0.13022-0.027645zm1.0446 0.58997-0.32194 0.053785-0.46304 0.0781c0.24323 0.1469 0.4868 0.3199 0.72474 0.51692l0.80048-0.019249c-0.24155-0.23236-0.49015-0.44411-0.74023-0.6295zm2.012e-4 0.70002c0.23845 0.20253 0.47463 0.4296 0.70217 0.67667l0.763 0.040494c-0.21851-0.26492-0.44443-0.51256-0.67337-0.73717l-0.14681 0.00347zm0.7519 0.73173c0.24141 0.26598 0.47429 0.55508 0.69316 0.86021l0.51124 0.016656 0.17123 0.00538c-0.18919-0.28669-0.39684-0.57056-0.61798-0.84226zm0.73196 0.91383c0.30311 0.42636 0.48007 0.74306 0.51429 0.80586l0.43142 0.089913c0.09225-0.083371 0.11761-0.22182 0.058888-0.33345-0.012196-0.0234-0.1242-0.23062-0.32613-0.54082zm0.55513 0.86761c0.051933 0.062009 0.1289 0.097519 0.21159 0.097038l0.00755 6.402e-4c0.038781-0.00112 0.076652-0.011433 0.11174-0.02833l-0.13111-0.02762z" fill="#8d7129"/>
  </g>
 </g>
 <g transform="matrix(.93534 0 0 -.92015 .027368 45.326)">
  <g stroke-width=".42862">
   <path d="m4.8141 1.0252c-0.038579 0.00123-0.07767 0.010469-0.11481 0.027989-0.6399 0.31131-1.1847 0.70693-1.7031 1.1913l-0.00245-1.12e-4c-0.53741 0.5165-0.9982 1.0632-1.4218 1.6853-0.20911 0.30903-0.32726 0.51888-0.34307 0.54768-0.06882 0.12525-0.039289 0.27763 0.062 0.36936l-0.00112 1.76e-4c8.003e-4 4.658e-4 0.00299 0.00187 0.00384 0.00277 0.00117 9.07e-4 0.00197 0.00224 0.0032 0.00315l0.00112-1.756e-4c0.15178 0.12556 0.35584 0.082831 0.43852-0.061926 0.20416-0.31066 0.37735-0.60146 0.57299-0.86683 0.20305-0.27302 0.4793-0.61167 0.77748-0.92577 0.4711-0.5134 0.98417-0.88565 1.5763-1.2539 0.10799-0.061678 0.18877-0.10162 0.28566-0.14677 0.14906-0.070968 0.21416-0.24888 0.14514-0.39933-0.051516-0.11237-0.16412-0.17708-0.27987-0.17292z" fill="#c59726"/>
   <path d="m5.0282 1.1003c0.020551 0.12945-0.045098 0.26211-0.16858 0.32065-0.38746 0.18369-0.76139 0.42878-1.1059 0.70338-0.26228 0.21475-0.53757 0.46955-0.77177 0.71407-0.2604 0.27526-0.51602 0.61055-0.75764 0.90385-0.27274 0.3311-0.40541 0.74833-0.71222 0.97711-0.072145 0.029514-0.12932 0.027626-0.23379 0.0019207 0.058082 0.12375 0.12744 0.13954 0.26723 0.16326 0.18457-0.01488 0.25139-0.17117 0.29636-0.24416 0.042148-0.068404 0.3863-0.58788 0.51127-0.75871 0.22313-0.29967 0.51672-0.64372 0.76024-0.90352 0.22398-0.23415 0.52938-0.51078 0.76562-0.70637 0.36125-0.27324 0.71558-0.51704 1.1039-0.7006 0.068755-0.032502 0.12007-0.088941 0.14418-0.1608 0.032139-0.14014-0.011396-0.23819-0.099087-0.31008z" fill="#9f5a1b"/>
   <path d="m4.6417 1.0967c-0.86635 0.4102-1.673 1.1906-2.2507 1.8551-0.32267 0.37649-0.63773 0.77316-0.87894 1.1078-0.076847 0.11522-0.24538 0.3558-0.24789 0.42543-8.002e-4 0.022749 0.014229 0.048785 0.046971 0.063575 0.079197 0.035767 0.13034-0.044976 0.14258-0.063087 0.052541-0.07778 0.25184-0.36129 0.47915-0.65806 0.18723-0.24442 0.47208-0.58991 0.73682-0.88571 0.24438-0.27302 0.51582-0.53984 0.75007-0.75364 0.40742-0.35419 0.83664-0.68694 1.2947-0.90003 0.048673-0.022653 0.075378-0.084482 0.051276-0.13668-0.030818-0.066739-0.086592-0.07245-0.1241-0.05469z" fill="#e0c97e"/>
   <path d="m4.8429 0.97546c-0.051981-0.0024969-0.10441 0.0082994-0.15173 0.030501-0.31017 0.14547-0.62045 0.32883-0.9232 0.54502l-0.050674 0.036466 0.00133 2.876e-4c-0.2543 0.18533-0.50652 0.39519-0.75204 0.6274-0.00235 0.00203-0.0048 0.00427-0.00718 0.00654l-0.046309 0.042884 0.00224 1.024e-4c-0.23291 0.22348-0.46299 0.46851-0.68473 0.73136-0.00235 0.00288-0.00469 0.00536-0.00702 0.00809l-0.037784 0.045493 0.00133 6.08e-5c-0.22585 0.27154-0.43946 0.5545-0.6339 0.84142l-0.028298 0.041721 9.07e-4 4.11e-5c-0.19324 0.28998-0.30411 0.48605-0.31596 0.50769-0.067265 0.12146-0.050376 0.26977 0.035941 0.37193l-0.00627 0.00144 0.039934 0.033324c8.536e-4 9.07e-4 0.00165 0.00181 0.00256 0.00267l0.00876 0.00727 0.00155-3.574e-4c0.013647 0.010836 0.0269 0.020711 0.040601 0.028463 0.042388 0.023267 0.090033 0.037597 0.13829 0.040281l0.00886 1.83e-4c0.11747 0.00283 0.22573-0.058717 0.28377-0.1588l0.00117-1.74e-4 0.00578-0.00994c0.007632-0.015451 0.20285-0.36197 0.55518-0.83595l0.00687-0.00968c0.23634-0.31852 0.48755-0.61846 0.74783-0.89388l4.705e-4 2.13e-5 0.00632-0.00747c0.24707-0.25947 0.5036-0.49703 0.7623-0.70584l6.936e-4 3.15e-5 0.00671-0.00613c0.25892-0.20794 0.52526-0.38834 0.78939-0.53786l2.262e-4 1.07e-5 0.0073-0.00453c0.1098-0.060661 0.20878-0.11285 0.30501-0.15763 0.080374-0.037634 0.14047-0.10617 0.16996-0.1911 0.027332-0.080484 0.022995-0.16666-0.012346-0.24336-0.050177-0.10871-0.15508-0.18076-0.27365-0.18771zm-0.00261 0.052427c0.1016 0.00595 0.19079 0.066204 0.23309 0.15836 0.029413 0.064014 0.033084 0.13577 0.010441 0.20269-0.02411 0.071849-0.075242 0.12868-0.14418 0.16079-0.094145 0.044426-0.19243 0.095724-0.30025 0.15541l-0.79443-0.14618c0.28474-0.19961 0.5751-0.36916 0.86463-0.50557 0.040862-0.019322 0.086189-0.027842 0.13066-0.025503zm-1.0542 0.57274 0.32102 0.059063 0.4617 0.085693c-0.24561 0.14289-0.49198 0.31186-0.73313 0.50495l-0.80006-0.03239c0.24533-0.22836 0.49737-0.436 0.75047-0.61726zm-0.011695 0.69992c-0.24174 0.19859-0.48162 0.42175-0.71318 0.66505l-0.76356 0.027962c0.22284-0.2613 0.45279-0.50519 0.68539-0.72601l0.14673 0.0058687zm-0.76381 0.71928c-0.24575 0.26198-0.48334 0.54721-0.70719 0.84871l-0.51144 0.00826-0.17129 0.00256c0.19387-0.28355 0.40615-0.56397 0.63172-0.832zm-0.74686 0.90168c-0.31007 0.42133-0.49221 0.73508-0.52745 0.79731l-0.43284 0.082818c-0.090868-0.084874-0.11395-0.22372-0.053405-0.33438 0.01258-0.023192 0.12797-0.22855 0.33497-0.53539zm-0.5693 0.85838c-0.052946 0.061148-0.13048 0.095389-0.21316 0.093551l-0.00756 5.112e-4c-0.03876-0.00176-0.076453-0.012687-0.11126-0.03016l0.13154-0.02546z" fill="#8d7129"/>
  </g>
  <g stroke-width=".42862">
   <path d="m1.5126 1.1197c0.038552 0.00187 0.077487 0.011743 0.11433 0.02987 0.6347 0.32178 1.173 0.72629 1.6834 1.2191l0.00245-7.15e-5c0.52885 0.52526 0.9806 1.0795 1.394 1.7084 0.20401 0.31243 0.3187 0.52419 0.33403 0.55324 0.066754 0.12637 0.034727 0.27824-0.068057 0.36829l0.00112 1.942e-4c-8.003e-4 4.524e-4 -0.00304 0.00181-0.00389 0.00267-0.00117 9.07e-4 -0.00203 0.00219-0.00325 0.00309l-0.00112-1.942e-4c-0.15385 0.12307-0.35718 0.077002-0.43747-0.069094-0.19903-0.31398-0.36743-0.60757-0.55868-0.87613-0.19854-0.27632-0.46919-0.61946-0.76218-0.93841-0.46261-0.52107-0.9695-0.90169-1.5555-1.2796-0.10696-0.063443-0.18708-0.1047-0.28322-0.15144-0.14788-0.073406-0.21005-0.25237-0.13856-0.40166 0.053357-0.11151 0.16701-0.17437 0.28268-0.1683z" fill="#c59726"/>
   <path d="m1.2973 1.1913c-0.022675 0.1291 0.040787 0.26281 0.16329 0.32337 0.38439 0.19003 0.75425 0.44123 1.0942 0.72145 0.25872 0.21902 0.52979 0.47832 0.75994 0.72664 0.25585 0.2795 0.50592 0.61894 0.7427 0.91617 0.26727 0.33553 0.39307 0.75489 0.69608 0.98868 0.071651 0.030699 0.12885 0.029744 0.23373 0.00574-0.060106 0.12277-0.12972 0.13743-0.26988 0.15884-0.1843-0.017905-0.24855-0.17528-0.29231-0.24899-0.041017-0.069088-0.37659-0.59414-0.49874-0.767-0.21818-0.3033-0.50608-0.65212-0.74531-0.91588-0.2201-0.2378-0.52092-0.5194-0.75392-0.71885-0.35672-0.27914-0.707-0.52872-1.0923-0.71863-0.068213-0.033628-0.1186-0.090901-0.14152-0.16314-0.029834-0.14065 0.015308-0.23797 0.10416-0.30841z" fill="#9f5a1b"/>
   <path d="m1.6837 1.1941c0.8595 0.42437 1.6533 1.2179 2.2199 1.8918 0.31644 0.38174 0.62495 0.78353 0.86063 1.1221 0.074945 0.11646 0.2395 0.35978 0.24087 0.42944 4.423e-4 0.022755-0.015029 0.048545-0.048011 0.062795-0.079773 0.034465-0.12959-0.04711-0.14153-0.06542-0.051255-0.078632-0.24588-0.36537-0.46828-0.66584-0.18319-0.24747-0.46233-0.59758-0.72218-0.89769-0.23987-0.27699-0.50689-0.54824-0.7376-0.76585-0.40155-0.36084-0.82525-0.70058-1.2798-0.92117-0.048294-0.023448-0.073981-0.085708-0.049025-0.1375 0.03191-0.066224 0.087772-0.071018 0.12498-0.052644z" fill="#e0c97e"/>
   <path d="m1.4845 1.0695c0.052018-0.00164 0.10426 0.010013 0.15121 0.032988 0.30774 0.15054 0.61497 0.33897 0.91413 0.56011l0.050065 0.037293-0.00133 2.662e-4c0.25123 0.18948 0.49997 0.40346 0.74165 0.63966 0.00235 0.00208 0.00475 0.00437 0.00707 0.00665l0.0456 0.043642-0.00224 6.56e-5c0.22921 0.22728 0.45524 0.47605 0.67263 0.74251 0.00229 0.00293 0.00464 0.00544 0.00689 0.0082l0.037032 0.046112-0.00133 3.95e-5c0.22137 0.27521 0.4303 0.56164 0.62001 0.85172l0.02761 0.04218-9.07e-4 2.61e-5c0.18846 0.29312 0.29609 0.49098 0.30758 0.51281 0.065262 0.12255 0.045941 0.27056-0.042041 0.37129l0.00625 0.00155-0.040473 0.032662c-8.536e-4 9.07e-4 -0.00165 0.00176-0.00256 0.00267l-0.00888 0.00712-0.00155-3.831e-4c-0.013823 0.010612-0.027236 0.020268-0.041065 0.027791-0.042767 0.022568-0.090638 0.036114-0.13893 0.038003l-0.00886 3.79e-5c-0.11751 9.067e-4 -0.22475-0.062416-0.28113-0.16344l-0.00117-1.926e-4 -0.00562-0.010041c-0.0073803-0.015563-0.19689-0.36524-0.54139-0.84495l-0.00671-0.0098c-0.23108-0.32235-0.47733-0.62638-0.73306-0.90603l-4.717e-4 1.39e-5 -0.0062-0.00758c-0.24278-0.26349-0.49538-0.50523-0.7506-0.71826l-6.936e-4 1.97e-5 -0.0066-0.00624c-0.25548-0.21216-0.51882-0.39691-0.78045-0.55074l-2.268e-4 7e-6 -0.00723-0.00469c-0.10878-0.062456-0.20689-0.11627-0.30238-0.16262-0.079746-0.038947-0.1387-0.10846-0.1668-0.19386-0.026007-0.080922-0.020254-0.16702 0.01634-0.24312 0.051955-0.10787 0.15802-0.17819 0.2767-0.18319zm0.00176 0.052464c-0.10168 0.00428-0.19185 0.063063-0.23566 0.15451-0.03046 0.063522-0.035307 0.13521-0.013765 0.2025 0.022925 0.072235 0.073119 0.1299 0.14152 0.16314 0.093403 0.045963 0.19084 0.098871 0.29766 0.16032l0.79671-0.13312c-0.28143-0.20426-0.56896-0.37855-0.85621-0.5197-0.040537-0.019991-0.08572-0.029253-0.13022-0.027645zm1.0446 0.58997-0.32194 0.053785-0.46304 0.0781c0.24323 0.1469 0.4868 0.3199 0.72474 0.51692l0.80048-0.019249c-0.24155-0.23236-0.49015-0.44411-0.74023-0.6295zm2.012e-4 0.70002c0.23845 0.20253 0.47463 0.4296 0.70217 0.67667l0.763 0.040494c-0.21851-0.26492-0.44443-0.51256-0.67337-0.73717l-0.14681 0.00347zm0.7519 0.73173c0.24141 0.26598 0.47429 0.55508 0.69316 0.86021l0.51124 0.016656 0.17123 0.00538c-0.18919-0.28669-0.39684-0.57056-0.61798-0.84226zm0.73196 0.91383c0.30311 0.42636 0.48007 0.74306 0.51429 0.80586l0.43142 0.089913c0.09225-0.083371 0.11761-0.22182 0.058888-0.33345-0.012196-0.0234-0.1242-0.23062-0.32613-0.54082zm0.55513 0.86761c0.051933 0.062009 0.1289 0.097519 0.21159 0.097038l0.00755 6.402e-4c0.038781-0.00112 0.076652-0.011433 0.11174-0.02833l-0.13111-0.02762z" fill="#8d7129"/>
  </g>
 </g>
</svg>
