<svg width="21.806" height="12.954" version="1.1" viewBox="0 0 5.7695 3.4274" xmlns="http://www.w3.org/2000/svg" xmlns:xlink="http://www.w3.org/1999/xlink">
 <path d="m0.60935 0c-0.33598 0-0.60937 0.16241-0.60937 0.362v2.7023c0 0.19959 0.2734 0.36316 0.60937 0.36316h4.5488c0.33598 0 0.61133-0.16357 0.61133-0.36316v-2.7023c0-0.19959-0.27535-0.362-0.61133-0.362z" color="#000000" color-rendering="auto" dominant-baseline="auto" fill="#520" fill-rule="evenodd" image-rendering="auto" shape-rendering="auto" solid-color="#000000" style="font-feature-settings:normal;font-variant-alternates:normal;font-variant-caps:normal;font-variant-ligatures:normal;font-variant-numeric:normal;font-variant-position:normal;isolation:auto;mix-blend-mode:normal;shape-padding:0;text-decoration-color:#000000;text-decoration-line:none;text-decoration-style:solid;text-indent:0;text-orientation:mixed;text-transform:none;white-space:normal"/>
 <text x="18.592361" y="110.96937" dominant-baseline="auto" fill="#4d4d4d" font-family="'Arial Rounded MT Bold'" font-size="18.91px" letter-spacing="0px" stroke-width=".47275" word-spacing="0px" style="font-feature-settings:normal;font-variant-alternates:normal;font-variant-caps:normal;font-variant-ligatures:normal;font-variant-numeric:normal;font-variant-position:normal;line-height:1.25;shape-padding:0;text-decoration-color:#000000;text-decoration-line:none;text-decoration-style:solid;text-indent:0;text-orientation:mixed;text-transform:none;white-space:normal" xml:space="preserve"><tspan x="18.592361" y="128.01025" stroke-width=".47275"/></text>
 <path d="m0.63828 0.16103h4.4753c0.2677 0 0.48321 0.12297 0.48321 0.27571v2.5535c0 0.15274-0.21551 0.27571-0.48321 0.27571h-4.4753c-0.2677 0-0.48321-0.12297-0.48321-0.27571v-2.5535c0-0.15274 0.21551-0.27571 0.48321-0.27571z" fill="#f60" fill-rule="evenodd"/>
 <path d="m0.72263 0.26179h4.2983c0.25711 0 0.4641 0.11499 0.4641 0.25782v2.3878c0 0.14283-0.20699 0.25782-0.4641 0.25782h-4.2983c-0.25711 0-0.4641-0.11499-0.4641-0.25782v-2.3878c0-0.14283 0.20699-0.25782 0.4641-0.25782z" fill="#ff7f2a" fill-rule="evenodd"/>
</svg>
