<svg width="31.876" height="7.741" version="1.1" viewBox="0 0 8.434 2.0482" xmlns="http://www.w3.org/2000/svg" xmlns:xlink="http://www.w3.org/1999/xlink">
 <path d="m2.8246 0.15464c-0.7829-0.0089329-1.2053 0.0089153-1.422 0.050482-0.50222 0.09631-0.93118 0.51042-0.90378 1.0064 0.021414 0.38753 0.38579 0.86315 1.6476 0.796 1.8999-0.179 1.1011 0.16706 4.4235-0.013053 1.2593-0.06827 1.6369-1.0845 1.5316-1.3778-0.18026-0.50217-1.4016-0.51177-2.0377-0.46205-1.5561 0.12165-2.1134 0.012845-3.2392 0z" color="#000000" color-rendering="auto" dominant-baseline="auto" fill="#002539" fill-rule="evenodd" image-rendering="auto" shape-rendering="auto" solid-color="#000000" style="font-feature-settings:normal;font-variant-alternates:normal;font-variant-caps:normal;font-variant-ligatures:normal;font-variant-numeric:normal;font-variant-position:normal;isolation:auto;mix-blend-mode:normal;shape-padding:0;text-decoration-color:#000000;text-decoration-line:none;text-decoration-style:solid;text-indent:0;text-orientation:mixed;text-transform:none;white-space:normal"/>
 <text x="19.497972" y="111.14056" dominant-baseline="auto" fill="#4d4d4d" font-family="'Arial Rounded MT Bold'" font-size="18.91px" letter-spacing="0px" stroke-width=".47275" word-spacing="0px" style="font-feature-settings:normal;font-variant-alternates:normal;font-variant-caps:normal;font-variant-ligatures:normal;font-variant-numeric:normal;font-variant-position:normal;line-height:1.25;shape-padding:0;text-decoration-color:#000000;text-decoration-line:none;text-decoration-style:solid;text-indent:0;text-orientation:mixed;text-transform:none;white-space:normal" xml:space="preserve"><tspan x="19.497972" y="128.18146" stroke-width=".47275"/></text>
 <path d="m2.8528 0.21672c-0.76004-0.0082201-1.1701 0.0082039-1.3805 0.046454-0.48755 0.088626-0.90399 0.4697-0.87739 0.92611 0.020788 0.35661 0.37453 0.79428 1.5995 0.73249 1.8444-0.16471 1.0689 0.15373 4.2943-0.012011 1.2225-0.062823 1.5891-0.99798 1.4869-1.2679-0.175-0.46211-1.3607-0.47094-1.9782-0.42518-1.5107 0.11194-2.0517 0.01182-3.1446 0z" color="#000000" color-rendering="auto" dominant-baseline="auto" fill="#5aa5cf" fill-rule="evenodd" image-rendering="auto" shape-rendering="auto" solid-color="#000000" style="font-feature-settings:normal;font-variant-alternates:normal;font-variant-caps:normal;font-variant-ligatures:normal;font-variant-numeric:normal;font-variant-position:normal;isolation:auto;mix-blend-mode:normal;shape-padding:0;text-decoration-color:#000000;text-decoration-line:none;text-decoration-style:solid;text-indent:0;text-orientation:mixed;text-transform:none;white-space:normal"/>
 <path d="m2.9344 0.37899c-0.73368-0.0070175-1.1295 0.0070036-1.3326 0.039657-0.47064 0.075659-0.87264 0.40098-0.84696 0.79062 0.020067 0.30444 0.36154 0.67807 1.544 0.62532 1.7804-0.14062 1.0318 0.13124 4.1454-0.010254 1.1801-0.053631 1.534-0.85197 1.4353-1.0824-0.16893-0.3945-1.3135-0.40204-1.9096-0.36297-1.4583 0.095565-1.9806 0.010091-3.0355 0z" color="#000000" color-rendering="auto" dominant-baseline="auto" fill="#5292b5" fill-rule="evenodd" image-rendering="auto" shape-rendering="auto" solid-color="#000000" style="font-feature-settings:normal;font-variant-alternates:normal;font-variant-caps:normal;font-variant-ligatures:normal;font-variant-numeric:normal;font-variant-position:normal;isolation:auto;mix-blend-mode:normal;shape-padding:0;text-decoration-color:#000000;text-decoration-line:none;text-decoration-style:solid;text-indent:0;text-orientation:mixed;text-transform:none;white-space:normal"/>
 <g transform="translate(.50583 .22184)">
  <path d="m0.37552 0.16223c-0.13097-0.11561-0.089372-0.14125-0.19564-0.29627-0.096076-0.14015-0.4434 0.016529-0.12669 0.25635 0.086663 0.065623 0.18455 0.062912 0.32232 0.039911z" fill="#002539"/>
  <path d="m0.28392 0.12198c-0.089438-0.078608-0.052986-0.10682-0.12556-0.21222-0.065611-0.095294-0.3028 0.011239-0.086515 0.17431 0.059183 0.044621 0.11799 0.05355 0.21207 0.037911z" fill="#5aa5cf"/>
  <path d="m0.23929 0.11189c-0.060474-0.053151-0.035827-0.072226-0.084896-0.14349-0.044363-0.064434-0.20474 0.0075995-0.058498 0.11786 0.040017 0.030171 0.079776 0.036208 0.14339 0.025633z" fill="#5292b5"/>
 </g>
 <g transform="rotate(-26.893 1.3932 -.21341)">
  <path d="m0.37552 0.16223c-0.13097-0.11561-0.089372-0.14125-0.19564-0.29627-0.096076-0.14015-0.4434 0.016529-0.12669 0.25635 0.086663 0.065623 0.18455 0.062912 0.32232 0.039911z" fill="#002539"/>
  <path d="m0.28392 0.12198c-0.089438-0.078608-0.052986-0.10682-0.12556-0.21222-0.065611-0.095294-0.3028 0.011239-0.086515 0.17431 0.059183 0.044621 0.11799 0.05355 0.21207 0.037911z" fill="#5aa5cf"/>
  <path d="m0.23929 0.11189c-0.060474-0.053151-0.035827-0.072226-0.084896-0.14349-0.044363-0.064434-0.20474 0.0075995-0.058498 0.11786 0.040017 0.030171 0.079776 0.036208 0.14339 0.025633z" fill="#5292b5"/>
 </g>
 <g transform="matrix(-1.0537 -.60344 -.60344 1.0537 7.8165 1.9331)">
  <path d="m0.37552 0.16223c-0.13097-0.11561-0.089372-0.14125-0.19564-0.29627-0.096076-0.14015-0.4434 0.016529-0.12669 0.25635 0.086663 0.065623 0.18455 0.062912 0.32232 0.039911z" fill="#002539"/>
  <path d="m0.28392 0.12198c-0.089438-0.078608-0.052986-0.10682-0.12556-0.21222-0.065611-0.095294-0.3028 0.011239-0.086515 0.17431 0.059183 0.044621 0.11799 0.05355 0.21207 0.037911z" fill="#5aa5cf"/>
  <path d="m0.23929 0.11189c-0.060474-0.053151-0.035827-0.072226-0.084896-0.14349-0.044363-0.064434-0.20474 0.0075995-0.058498 0.11786 0.040017 0.030171 0.079776 0.036208 0.14339 0.025633z" fill="#5292b5"/>
 </g>
 <g transform="matrix(-1.026 .64947 -.64947 -1.026 8.2921 1.44)">
  <path d="m0.37552 0.16223c-0.13097-0.11561-0.089372-0.14125-0.19564-0.29627-0.096076-0.14015-0.4434 0.016529-0.12669 0.25635 0.086663 0.065623 0.18455 0.062912 0.32232 0.039911z" fill="#002539"/>
  <path d="m0.28392 0.12198c-0.089438-0.078608-0.052986-0.10682-0.12556-0.21222-0.065611-0.095294-0.3028 0.011239-0.086515 0.17431 0.059183 0.044621 0.11799 0.05355 0.21207 0.037911z" fill="#5aa5cf"/>
  <path d="m0.23929 0.11189c-0.060474-0.053151-0.035827-0.072226-0.084896-0.14349-0.044363-0.064434-0.20474 0.0075995-0.058498 0.11786 0.040017 0.030171 0.079776 0.036208 0.14339 0.025633z" fill="#5292b5"/>
 </g>
 <g transform="matrix(-1.1378 -.42405 -.42405 1.1378 8.2952 .25435)">
  <path d="m0.37552 0.16223c-0.13097-0.11561-0.089372-0.14125-0.19564-0.29627-0.096076-0.14015-0.4434 0.016529-0.12669 0.25635 0.086663 0.065623 0.18455 0.062912 0.32232 0.039911z" fill="#002539"/>
  <path d="m0.28392 0.12198c-0.089438-0.078608-0.052986-0.10682-0.12556-0.21222-0.065611-0.095294-0.3028 0.011239-0.086515 0.17431 0.059183 0.044621 0.11799 0.05355 0.21207 0.037911z" fill="#5aa5cf"/>
  <path d="m0.23929 0.11189c-0.060474-0.053151-0.035827-0.072226-0.084896-0.14349-0.044363-0.064434-0.20474 0.0075995-0.058498 0.11786 0.040017 0.030171 0.079776 0.036208 0.14339 0.025633z" fill="#5292b5"/>
 </g>
 <g transform="matrix(.87774 .13907 .13907 -.87774 .36461 1.8022)">
  <path d="m0.37552 0.16223c-0.13097-0.11561-0.089372-0.14125-0.19564-0.29627-0.096076-0.14015-0.4434 0.016529-0.12669 0.25635 0.086663 0.065623 0.18455 0.062912 0.32232 0.039911z" fill="#002539"/>
  <path d="m0.28392 0.12198c-0.089438-0.078608-0.052986-0.10682-0.12556-0.21222-0.065611-0.095294-0.3028 0.011239-0.086515 0.17431 0.059183 0.044621 0.11799 0.05355 0.21207 0.037911z" fill="#5aa5cf"/>
  <path d="m0.23929 0.11189c-0.060474-0.053151-0.035827-0.072226-0.084896-0.14349-0.044363-0.064434-0.20474 0.0075995-0.058498 0.11786 0.040017 0.030171 0.079776 0.036208 0.14339 0.025633z" fill="#5292b5"/>
 </g>
 <g transform="matrix(.87774 .13907 .13907 -.87774 .078126 1.2526)">
  <path d="m0.37552 0.16223c-0.13097-0.11561-0.089372-0.14125-0.19564-0.29627-0.096076-0.14015-0.4434 0.016529-0.12669 0.25635 0.086663 0.065623 0.18455 0.062912 0.32232 0.039911z" fill="#002539"/>
  <path d="m0.28392 0.12198c-0.089438-0.078608-0.052986-0.10682-0.12556-0.21222-0.065611-0.095294-0.3028 0.011239-0.086515 0.17431 0.059183 0.044621 0.11799 0.05355 0.21207 0.037911z" fill="#5aa5cf"/>
  <path d="m0.23929 0.11189c-0.060474-0.053151-0.035827-0.072226-0.084896-0.14349-0.044363-0.064434-0.20474 0.0075995-0.058498 0.11786 0.040017 0.030171 0.079776 0.036208 0.14339 0.025633z" fill="#5292b5"/>
 </g>
</svg>
