<svg width="14.556" height="12.954" version="1.1" viewBox="0 0 3.8512 3.4274" xmlns="http://www.w3.org/2000/svg" xmlns:xlink="http://www.w3.org/1999/xlink">
 <path d="m0.40674 0c-0.22427 0-0.40677 0.16241-0.40677 0.362v2.7023c0 0.19959 0.1825 0.36316 0.40677 0.36316h3.0364c0.22427 0 0.40808-0.16357 0.40808-0.36316v-2.7023c0-0.19959-0.1838-0.362-0.40808-0.362z" color="#000000" color-rendering="auto" dominant-baseline="auto" fill="#520" fill-rule="evenodd" image-rendering="auto" shape-rendering="auto" solid-color="#000000" style="font-feature-settings:normal;font-variant-alternates:normal;font-variant-caps:normal;font-variant-ligatures:normal;font-variant-numeric:normal;font-variant-position:normal;isolation:auto;mix-blend-mode:normal;shape-padding:0;text-decoration-color:#000000;text-decoration-line:none;text-decoration-style:solid;text-indent:0;text-orientation:mixed;text-transform:none;white-space:normal"/>
 <text x="17.698896" y="111.027" dominant-baseline="auto" fill="#4d4d4d" font-family="'Arial Rounded MT Bold'" font-size="18.91px" letter-spacing="0px" stroke-width=".47275" word-spacing="0px" style="font-feature-settings:normal;font-variant-alternates:normal;font-variant-caps:normal;font-variant-ligatures:normal;font-variant-numeric:normal;font-variant-position:normal;line-height:1.25;shape-padding:0;text-decoration-color:#000000;text-decoration-line:none;text-decoration-style:solid;text-indent:0;text-orientation:mixed;text-transform:none;white-space:normal" xml:space="preserve"><tspan x="17.698896" y="128.06789" stroke-width=".47275"/></text>
 <g fill-rule="evenodd">
  <path d="m0.46005 0.16103h2.9193c0.17463 0 0.31521 0.12297 0.31521 0.27571v2.5535c0 0.15274-0.14058 0.27571-0.31521 0.27571h-2.9193c-0.17462 0-0.31521-0.12297-0.31521-0.27571v-2.5535c0-0.15274 0.14058-0.27571 0.31521-0.27571z" fill="#f60"/>
  <path d="m0.56891 0.26179h2.6961c0.16127 0 0.29111 0.11499 0.29111 0.25782v2.3878c0 0.14283-0.12983 0.25782-0.29111 0.25782h-2.6961c-0.16127 0-0.29111-0.11499-0.29111-0.25782v-2.3878c0-0.14283 0.12983-0.25782 0.29111-0.25782z" fill="#ff7f2a"/>
  <path d="m3.0878 1.7701-1.8695 1.0794v-2.1587z" fill="#3b0503"/>
 </g>
 <path d="m3.1679 1.6425-1.8695 1.0794v-2.1587z" fill="#efff0e" fill-opacity=".70588" fill-rule="evenodd"/>
</svg>
