<svg width="229.09" height="219.66" version="1.1" viewBox="0 0 60.613 58.12" xmlns="http://www.w3.org/2000/svg">
 <g transform="translate(-37.949 -23.866)">
  <g>
   <text x="68.420998" y="131.29288" dominant-baseline="auto" fill="#4d4d4d" font-family="'Arial Rounded MT Bold'" font-size="18.91px" letter-spacing="0px" word-spacing="0px" style="font-feature-settings:normal;font-variant-alternates:normal;font-variant-caps:normal;font-variant-ligatures:normal;font-variant-numeric:normal;font-variant-position:normal;line-height:1.25;shape-padding:0;text-decoration-color:#000000;text-decoration-line:none;text-decoration-style:solid;text-indent:0;text-orientation:mixed;text-transform:none;white-space:normal" xml:space="preserve"/>
   <rect x="38.875" y="35.204" width="58.761" height="45.855" ry="2.3812" fill="#bcdba1" stroke="#0c3806" stroke-width="1.8521"/>
   <g stroke-width=".050666">
    <path d="m80.176 23.866v1.5198h-1.5198v1.5198h-1.5198v1.5203h-1.5203v3.0396h-3.0396v1.5203h-4.5599v1.5198h-3.0401v1.5198h-3.0401v1.5203h-3.0396v1.5198h-3.0401v1.5198h-1.5198v1.5203h-1.5203v1.5198h-1.5198v1.5198h-1.5198v1.5203h-1.5203v7.5995h1.5203v1.5203h1.5198v3.0396h1.5198v1.5203h1.5203v1.5198h1.5198v1.5198h13.68v-1.5198h3.0401v16.72h1.5198v1.5482h22.8v-24.348h-3.0401v-1.5203h-1.5198v-1.5198h-1.5198v-15.2h-1.5203v-4.5599h1.5203v-4.5599h-4.5599v1.5198h-1.5203v1.5198h-1.5198v-6.0797h-1.5198v-1.5198h-0.76016z" fill="#f55"/>
    <path d="m81.696 25.386v1.5198h-1.5203v1.5203h-1.5198v3.0396h-0.76016v1.5203h6.8399v-1.5203h-1.5198v-6.0797h-0.76016zm3.0396 7.6001v1.5198h-9.1199v1.5198h3.0401v1.5203h1.5198v1.5198h-1.5198v-1.5198h-4.5599v1.5198h-1.5198v1.5198h-1.5203v-1.5198h-1.5198v-1.5198h-1.5198v1.5198h-3.0401v1.5198h-3.0401v1.5203h-3.0396v1.5198h-1.5203v1.5198h-1.5198v1.5203h1.5198v1.5198h-3.0396v6.0797h1.5198v3.0401h3.0401v1.5198h15.2v1.5203h1.5198v1.5198h1.5203v16.72h1.5198v1.5482h18.24v-24.348h-3.0401v-1.5203h-1.5198v-1.5198h-1.5198v-15.2h-1.5203v-4.5599h1.5203v-1.5203h-4.5599v1.5203h-0.76016z" fill="#ff2a2a"/>
    <path d="m81.696 25.386v1.5198h-1.5203v1.5203h-1.5198v3.0396h-1.2898c7.9e-4 0.07627-0.0146 0.15575-5e-3 0.23048 5.3e-4 0.16398-5.3e-4 0.32798-2e-3 0.49196 0 0.21771 0.0148 0.43595-5e-3 0.65319 0.0164 0.04811 0.0326 0.09629 0.0481 0.1447h7.3329v-1.5203h-1.5197v-6.0797h-0.76016zm3.0396 7.6001v6.0797h1.5203v10.64h1.5198v4.5599h1.5198v3.0401h1.5203v1.5198h1.5198v1.5203h3.0401v1.5198h1.5198v-6.0797h-3.0401v-1.5203h-1.5198v-1.5198h-1.5198v-15.2h-1.5203v-4.5599h1.5203v-1.5203h-4.5599v1.5203h-0.76016zm-10.64 4.5599v1.5198h-1.5198v3.0401h6.0797v1.5198h3.0401v-4.5599h-3.0401v-1.5198h-2.28zm-19.76 10.64v4.5599h4.5599v-3.0401h-1.5203v-1.5198h-1.5198zm36.479 24.32v3.0396h-1.5203v4.5884h4.5599v-1.5482h1.5203v-6.0797h-2.28z" fill="#d40000"/>
   </g>
  </g>
  <g transform="matrix(.050666 0 0 .050666 307.31 36.795)">
   <path d="m-4751.8 74.814v60h30v30h30v30h30v30h30v60h30v30h30v30h30v-60h-30v-60h-30v-60h-30v-30h-30v-30h-30v-30h-30zm-90 60v60h30v30h30v30h30v30h30v60h30v30h60v-60h-30v-60h-30v-30h-30v-30h-30v-30h-30v-30h-30z" fill="#38cd06"/>
   <path d="m-4751.8 74.814v30h30v30h30v30h30v30h30v30h30v-60h-30v-30h-30v-30h-30v-30h-30zm150 150v60h30v-60h-15zm30 60v30h30v-30h-15zm-270-150v30h30v30h30v30h30v30h30v30h30v60h60v-30h-30v-60h-30v-30h-30v-30h-30v-30h-30v-30h-30z" fill="#2c850f"/>
  </g>
  <path d="m80.176 23.866v1.5198h1.5203v-1.5198h-0.76016zm1.5203 1.5198v6.0797h-4.5599v-3.0396h-1.5203v3.0396h-3.0396v1.5203h12.159v-1.5203h-1.5198v-6.0797h-0.76016zm3.0396 6.0797h1.5203v-1.5198h-1.5203v0.76016zm1.5203-1.5198h3.0396v3.0401h1.5203v-4.5599h-4.5599v0.75964zm3.0396 3.0401h-1.5198v4.5599h1.5198v-2.28zm0 4.5599v15.2h1.5203v-15.2h-0.76016zm1.5203 15.2v1.5198h1.5198v-1.5198h-0.76016zm1.5198 1.5198v1.5203h1.5198v-1.5203h-0.75964zm1.5198 1.5203v1.5198h3.0401v-1.5198h-1.5198zm-21.279-22.8h-4.5599v1.5198h4.5599v-0.76016zm-4.5599 1.5198h-3.0401v1.5198h3.0401v-0.75964zm-3.0401 1.5198h-3.0401v1.5203h3.0401v-0.76016zm-3.0401 1.5203h-3.0396v1.5198h3.0396v-0.76016zm-3.0396 1.5198h-3.0401v1.5198h3.0401v-0.75964zm-3.0401 1.5198h-1.5198v1.5203h1.5198v-0.76016zm-1.5198 1.5203h-1.5203v1.5198h1.5203v-0.76016zm-1.5203 1.5198h-1.5198v1.5198h1.5198v-0.75964zm-1.5198 1.5198h-1.5198v1.5203h1.5198v-0.76016zm-1.5198 1.5203h-1.5203v7.5995h1.5203v-3.7998zm0 7.5995v1.5203h1.5198v-1.5203h-0.76016zm1.5198 1.5203v3.0396h1.5198v-3.0396h-0.75964zm1.5198 3.0396v1.5203h1.5203v-1.5203h-0.76016zm1.5203 1.5203v1.5198h1.5198v-1.5198h-0.76016zm1.5198 1.5198v1.5198h13.68v-1.5198h-6.8399zm13.68 0h3.0401v-1.5198h-3.0401v0.75964zm3.0401 0v16.72h1.5198v-16.72h-0.76016zm1.5198 16.72v1.5482h1.5198v-1.5482h-0.75964zm3.0401-50.159h1.5198v-1.5203h-1.5198v0.76016zm1.5198-1.5203h1.5198v-1.5198h-1.5198v0.76016zm-4.5599 10.64v1.5198h-1.5198v1.5198h6.0797v1.5203h1.5198v-3.0401h-1.5198v-1.5198h-2.28zm-19.76 10.64v3.0401h3.0396v-3.0401h-1.5198zm30.399 19.76v12.188h1.5203v-12.188h-0.76016zm7.6 4.5599v3.0401h1.5198v-3.0401h-0.75964zm0 3.0401h-1.5198v4.5884h1.5198z" stroke-width=".050666"/>
 </g>
</svg>
