<svg version="1.1" viewBox="0 0 376.88 123.03" xmlns="http://www.w3.org/2000/svg">
 <g shape-rendering="auto">
  <path d="m163.17 0 0.31346 7.531 1.1999 28.846-17.47 0.4114-0.51589 4.9842-20.784-16.748-3.43 2.9533-1.3175 1.1363-10.93 9.4052-0.33957-5.0707-5.807 0.84077-40.615 5.8838 0.63506 7.0951 0.57466 6.3882-27.195 10.71-8.8877-61.19-28.598 16.466 0.87506 5.3711 12.545 76.866 63.941-11.908-0.46528-1.7566 36.818 2.1778-0.14041-2.088 35.616 7.9702 0.70364-11.58 39.888 11.944 0.0604-5.1246 9.8264-3.9737-0.0408 2.8358 24.142-0.65956 0.55834 9.7562 11.389-4.0618-0.82608 15.091 42.192 12.532 9.6583-42.473 18.391 14.1 9.2044-9.8362 17.253 13.224 12.372-13.221 14.505 11.123 18.417-19.684-19.521-14.136-3.2749 3.1655-9.4787 9.162-14.123-10.228-3.2749 3.1655-6.0519 5.8511-17.13-12.404-3.2749 3.1639-13.136 12.695 8.011-35.226-22.931-9.5505-2.4276 7.9277-0.19428 0.63506-22.485-2.3117-1.6995 7.1066-0.52731-4.9956-18.414-5.1377-0.40814-10.11-19.073-0.74934 1.1673-3.7647-17.896-4.2104 0.0996-8.3522z" color="#000000" color-rendering="auto" dominant-baseline="auto" fill="#fff" image-rendering="auto" solid-color="#000000" style="font-feature-settings:normal;font-variant-alternates:normal;font-variant-caps:normal;font-variant-ligatures:normal;font-variant-numeric:normal;font-variant-position:normal;isolation:auto;mix-blend-mode:normal;shape-padding:0;text-decoration-color:#000000;text-decoration-line:none;text-decoration-style:solid;text-indent:0;text-orientation:mixed;text-transform:none;white-space:normal"/>
  <path d="m168.91 7.3057 1.4301 34.372-18.216 0.42936-3.7712 36.454 36.081 10.804 0.0327-2.7721 0.89137-74.554zm-144.54 4.5728-18.404 10.597 0.27101 1.662 11.648 71.382 52.725-9.8182-6.8372-25.85-30.679 12.083zm164.14 9.4917-0.40325 2.1501-1.9656 10.484 12.024 1.9395 3.5574-11.466zm17.707 8.3065-0.08 2.0897-0.34937 9.1015-0.64323 43.921 13.684-0.37386 2.0032-31.375 6.4927 3.7092 2.0146 35.167 15.436-5.505-0.89955-8.5106 23.78 5.1214-3.2651 15.356-9.8411-1.3175 0.67099-9.6697-13.794 3.1639-0.87343 15.96 32.519 9.6582 16.246-71.441-13.176-5.4887-0.67425 2.2023-1.5052 4.9026-22.191-2.2807-7.9539 33.27-3.4659-32.81-18.667-5.2095-0.36569-9.0477zm-80.188 2.4178-1.3191 1.1363-15.942 13.718 7.5882 9.3203 10.367-8.5791 5.2699 4.6855-18.601 5.4805-5.2585 23.662 36.023 8.06 2.4831-40.878zm74.117 4.5418-12.086 1.1689 0.0114 1.9085 0.2808 46.541 16.177-6.5417zm-95.278 3.03-35.523 5.1458 0.17632 1.9705 3.2162 35.742 35.146 2.0799zm-11.776 14.205 1.355 17.073-9.5734-1.3942-1.3224-13.916zm77.175 1.7844 1.1428 13.576-9.0346-2.3313 0.45711-10.331zm90.844 2.999 10.135 0.1257-1.3354 10.137-10.976-1.6211zm-128.81 8.0339-0.2204 8.8485-9.7154-2.3999 0.88322-4.9907zm172.23 1.2244-11.216 10.84 11.216 8.5987 10.842-11.588zm53.334 1.2897-11.214 10.84 11.214 8.5987 10.842-11.588zm-26.877 2.0995-11.216 10.842 11.216 8.5971 10.842-11.588z" color="#000000" color-rendering="auto" dominant-baseline="auto" fill="#aa00d4" image-rendering="auto" solid-color="#000000" style="font-feature-settings:normal;font-variant-alternates:normal;font-variant-caps:normal;font-variant-ligatures:normal;font-variant-numeric:normal;font-variant-position:normal;isolation:auto;mix-blend-mode:normal;shape-padding:0;text-decoration-color:#000000;text-decoration-line:none;text-decoration-style:solid;text-indent:0;text-orientation:mixed;text-transform:none;white-space:normal"/>
  <path d="m168.91 7.3057 1.4301 34.372-18.216 0.42936-2.2138 21.398c2.3142-0.0983 4.6367-0.19692 7.0462-0.28896 1.8802-0.0718 3.7328-0.1223 5.5883-0.17468l0.28569-6.4715 7.4347-0.91423 0.60732 7.2094c4.7017-0.0628 9.3232-0.0623 13.878-0.01l0.60731-50.817zm-144.54 4.5728-18.404 10.597 0.27101 1.662 8.8273 54.097c17.144-2.6678 32.299-5.4654 51.455-8.0012l-2.746-10.381-30.679 12.083zm164.14 9.4917-0.40325 2.1501-1.9656 10.484 12.024 1.9395 3.5574-11.466zm17.707 8.3065-0.08 2.0897-0.34937 9.1015-0.33142 22.603c4.9561 0.23714 9.8383 0.53238 14.654 0.87995l0.7216-11.31 6.4927 3.7092 0.47018 8.2004c5.0136 0.42206 9.967 0.8914 14.861 1.4073l-2.3052-21.829-18.667-5.2095-0.36569-9.0477zm-80.188 2.4178-1.3191 1.1363-15.942 13.718 7.5882 9.3203 10.367-8.5791 5.2699 4.6855-18.601 5.4805-1.737 7.8151c10.123-0.74246 21.377-1.4099 34.073-1.9836l0.91098-14.987zm74.117 4.5418-12.086 1.1689 0.0114 1.9085 0.1404 23.184c4.9627 0.0877 9.8434 0.24034 14.652 0.44895zm75.996 2.6072-0.67425 2.2023-1.5052 4.9026-22.191-2.2807-5.425 22.691c12.554 1.3833 24.778 3.0265 36.88 4.7655l6.0927-26.792zm-171.27 0.42284-35.523 5.1458 0.17632 1.9705 2.0521 22.799c4.1835-0.52241 8.5076-1.0347 13.158-1.5264l-1.1803-12.421 9.5407-1.7632 1.0514 13.253c3.9663-0.37004 8.1259-0.72738 12.496-1.071zm156.24 18.988 10.135 0.1257-1.3354 10.137-10.976-1.6211zm43.421 9.2583-6.047 5.8446c5.4921 0.8153 10.986 1.6275 16.487 2.4358l0.40161-0.42936zm53.334 1.2897-11.214 10.84 0.82444 0.63181c5.3141 0.66189 10.677 1.2858 16.105 1.8578l5.1262-5.4789zm-26.877 2.0995-6.4878 6.2723c5.5211 0.78908 11.076 1.5509 16.67 2.2823l0.65956-0.70363z" color="#000000" color-rendering="auto" dominant-baseline="auto" fill="#c0f" image-rendering="auto" solid-color="#000000" style="font-feature-settings:normal;font-variant-alternates:normal;font-variant-caps:normal;font-variant-ligatures:normal;font-variant-numeric:normal;font-variant-position:normal;isolation:auto;mix-blend-mode:normal;shape-padding:0;text-decoration-color:#000000;text-decoration-line:none;text-decoration-style:solid;text-indent:0;text-orientation:mixed;text-transform:none;white-space:normal"/>
 </g>
</svg>
