<svg width="103.45" height="103.45" version="1.1" viewBox="0 0 27.371 27.371" xmlns="http://www.w3.org/2000/svg">
 <defs>
  <clipPath id="clipPath4761">
   <path d="m0 800h800v-800h-800z"/>
  </clipPath>
  <clipPath id="clipPath4709">
   <path d="m546.42 417.46c0-51.956 42.118-94.074 94.074-94.074 51.957 0 94.075 42.118 94.075 94.074 0 51.955-42.118 94.074-94.075 94.074-51.956 0-94.074-42.119-94.074-94.074"/>
  </clipPath>
  <clipPath id="clipPath4745">
   <path d="m567.67 498.4h72.933v-187.62h-72.933z"/>
  </clipPath>
  <clipPath id="clipPath4697">
   <path d="m0 800h800v-800h-800z"/>
  </clipPath>
 </defs>
 <g transform="translate(-50.949 -44.434)">
  <circle cx="64.634" cy="58.119" r="13.685" fill="#520" fill-rule="evenodd"/>
  <text x="68.420998" y="131.29288" dominant-baseline="auto" fill="#4d4d4d" font-family="'Arial Rounded MT Bold'" font-size="18.91px" letter-spacing="0px" word-spacing="0px" style="font-feature-settings:normal;font-variant-alternates:normal;font-variant-caps:normal;font-variant-ligatures:normal;font-variant-numeric:normal;font-variant-position:normal;line-height:1.25;shape-padding:0;text-decoration-color:#000000;text-decoration-line:none;text-decoration-style:solid;text-indent:0;text-orientation:mixed;text-transform:none;white-space:normal" xml:space="preserve"/>
  <g transform="matrix(.13456 0 0 -.13456 10.81 114.19)" fill="#c87137">
   <g clip-path="url(#clipPath4761)" fill="#c87137">
    <g transform="translate(494.07 416.68)" fill="#c87137">
     <path d="m0 0c0-51.956-42.118-94.074-94.074-94.074s-94.075 42.118-94.075 94.074 42.119 94.074 94.075 94.074 94.074-42.118 94.074-94.074" fill="#c87137"/>
    </g>
   </g>
  </g>
  <g transform="matrix(.49253 0 0 .49253 67.194 25.774)">
   <g transform="matrix(.27102 0 0 -.27102 -178.78 179.23)">
    <g clip-path="url(#clipPath4697)"></g>
    <g clip-path="url(#clipPath4709)">
     <g transform="translate(695.99 413.77)">
      <path d="m0 0v-87.412l-110.76 1.885v87.412z" fill="#421800"/>
     </g>
     <g transform="translate(682.36 453.25)">
      <path d="m0 0v-25.775c0-0.453-0.01-0.905-0.02-1.358-0.011-0.37-0.021-0.729-0.042-1.1-0.01-0.329-0.03-0.658-0.061-0.987-0.011-0.236-0.031-0.473-0.052-0.709-0.01-0.144-0.02-0.278-0.041-0.422-0.02-0.257-0.041-0.524-0.082-0.781-0.041-0.493-0.103-0.977-0.175-1.47-0.01-0.124-0.031-0.247-0.051-0.37-0.031-0.247-0.072-0.494-0.113-0.741v-0.03c-0.062-0.36-0.124-0.71-0.185-1.07-0.093-0.493-0.185-0.987-0.288-1.47-0.011-0.02-0.011-0.041-0.021-0.062-0.01-0.072-0.02-0.144-0.041-0.216-0.01-0.02-0.01-0.041-0.021-0.061-0.051-0.267-0.113-0.525-0.174-0.782-0.021-0.113-0.041-0.226-0.083-0.339-0.03-0.185-0.082-0.37-0.123-0.555-0.031-0.103-0.051-0.216-0.092-0.319-0.021-0.092-0.052-0.185-0.072-0.267-0.216-0.843-0.463-1.666-0.72-2.488-0.124-0.391-0.247-0.771-0.381-1.162-0.01-0.041-0.03-0.082-0.041-0.123-0.123-0.35-0.246-0.699-0.37-1.049-0.041-0.103-0.082-0.206-0.123-0.319-0.124-0.329-0.247-0.658-0.381-0.987-0.154-0.401-0.318-0.791-0.483-1.182-0.144-0.35-0.298-0.699-0.452-1.049-0.021-0.062-0.052-0.113-0.072-0.175-0.175-0.37-0.339-0.74-0.514-1.1-0.175-0.38-0.36-0.761-0.555-1.141-0.371-0.75-0.772-1.501-1.173-2.231l-0.555-0.987c-1.583-2.725-3.341-5.285-5.253-7.649-0.258-0.34-0.525-0.669-0.802-0.987-0.381-0.463-0.772-0.915-1.162-1.357-0.329-0.371-0.669-0.751-1.018-1.111-0.01-0.02-0.021-0.031-0.041-0.051-0.987-1.059-1.995-2.067-3.023-3.013-0.206-0.205-0.421-0.39-0.637-0.586-0.35-0.318-0.7-0.627-1.059-0.925-0.278-0.247-0.566-0.483-0.854-0.72-0.74-0.606-1.48-1.192-2.231-1.737-0.308-0.237-0.627-0.463-0.946-0.679-0.514-0.37-1.038-0.719-1.562-1.059-0.288-0.195-0.586-0.38-0.885-0.555-1.048-0.648-2.107-1.244-3.156-1.758-0.257-0.134-0.514-0.257-0.771-0.381-0.257-0.123-0.524-0.246-0.802-0.37-0.339-0.154-0.679-0.298-1.018-0.431-0.134-0.062-0.267-0.114-0.401-0.155-0.401-0.164-0.812-0.318-1.213-0.452-0.504-0.185-1.018-0.339-1.522-0.483-0.349-0.103-0.709-0.196-1.059-0.278-0.02-0.01-0.041-0.021-0.072-0.021-0.349-0.082-0.699-0.164-1.048-0.226-0.093-0.02-0.185-0.041-0.278-0.051-0.288-0.052-0.576-0.103-0.864-0.134-0.411-0.061-0.822-0.113-1.233-0.133-0.144-0.021-0.278-0.031-0.422-0.031-0.329-0.021-0.648-0.031-0.966-0.031h-0.041c-0.319 0-0.638 0.01-0.957 0.031-0.123 0-0.246 0.01-0.37 0.031-0.288 0.01-0.586 0.041-0.894 0.082-0.062 0-0.134 0.01-0.196 0.02-0.38 0.052-0.76 0.113-1.151 0.185-0.329 0.052-0.658 0.124-0.997 0.206-1.758 0.401-3.568 1.008-5.398 1.82-1.563 0.689-3.146 1.522-4.719 2.488-0.792 0.483-1.584 0.997-2.365 1.542-0.391 0.278-0.781 0.555-1.172 0.843-1.223 0.895-2.437 1.871-3.629 2.92-0.329 0.298-0.658 0.596-0.987 0.905-0.329 0.298-0.658 0.607-0.977 0.905-0.761 0.73-1.501 1.48-2.211 2.272-0.051 0.041-0.092 0.093-0.133 0.134-0.298 0.318-0.597 0.647-0.895 0.987-0.822 0.925-1.624 1.881-2.385 2.878-0.298 0.36-0.576 0.73-0.853 1.1-1.039 1.378-2.026 2.818-2.951 4.308-0.247 0.401-0.494 0.813-0.73 1.214-0.288 0.483-0.565 0.976-0.843 1.47-1.028 1.85-1.974 3.773-2.797 5.757-0.123 0.288-0.246 0.576-0.349 0.864-0.165 0.37-0.309 0.75-0.442 1.121-0.206 0.545-0.401 1.089-0.586 1.634s-0.36 1.1-0.535 1.656c-0.164 0.534-0.319 1.069-0.463 1.614-0.164 0.576-0.318 1.162-0.452 1.758-0.01 0.062-0.031 0.123-0.041 0.185-0.195 0.822-0.37 1.655-0.524 2.498-0.206 1.111-0.371 2.242-0.494 3.383-0.051 0.36-0.082 0.72-0.113 1.079-0.041 0.381-0.072 0.751-0.093 1.131-0.051 0.689-0.082 1.388-0.102 2.087-0.011 0.453-0.021 0.905-0.021 1.358v25.775c0 22.341 17.509 40.601 39.563 41.794 0.041 0.01 0.072 0.01 0.113 0.01 0.288 0.01 0.576 0.02 0.863 0.031 0.432 0.01 0.854 0.02 1.286 0.02h0.041c0.442 0 0.884-0.01 1.326-0.02 0.339-0.011 0.679-0.021 1.018-0.041h0.031c2.354-0.134 4.667-0.463 6.898-0.967 2.725-0.617 5.347-1.501 7.835-2.622 3.393-1.521 6.549-3.475 9.387-5.808 2.385-1.954 4.554-4.154 6.446-6.581 5.511-7.022 8.832-15.843 8.904-25.446 0.01-0.123 0.01-0.247 0.01-0.37" fill="#f0d0b4"/>
     </g>
     <g transform="translate(695.04 310.78)">
      <path d="m0 0v-0.01h-109.08v0.01c0 6.097 0.997 11.978 2.858 17.458 0.021 0.051 0.031 0.102 0.052 0.154 0.339 0.997 0.709 1.984 1.11 2.961v0.01c0.391 0.977 0.823 1.933 1.275 2.879 1.799 3.794 4.041 7.341 6.642 10.59 0.658 0.812 1.326 1.604 2.015 2.364 0.339 0.391 0.699 0.772 1.059 1.152 0.36 0.37 0.72 0.74 1.09 1.11 1.84 1.841 3.814 3.527 5.891 5.079 1.038 0.771 2.087 1.491 3.177 2.19 0.144 0.093 0.288 0.185 0.432 0.268 0.401 0.257 0.802 0.503 1.213 0.74 0.555 0.329 1.121 0.648 1.686 0.956 0.021 0.021 0.041 0.021 0.041 0.021 0.442 0.236 0.874 0.493 1.306 0.76 1.285 0.772 2.519 1.625 3.691 2.571 4.966 3.948 8.811 9.253 11.001 15.34 0.637 1.788 1.141 3.649 1.48 5.562 0.35 1.974 0.535 4.009 0.535 6.086l7.948-0.041h0.133l8.04-0.041c0-2.036 0.175-4.03 0.514-5.973 0.329-1.913 0.823-3.763 1.45-5.542 2.159-6.107 5.994-11.433 10.96-15.402 0.74-0.606 1.491-1.161 2.282-1.686 0.083-0.061 0.155-0.113 0.237-0.164 0.37-0.247 0.74-0.494 1.131-0.72 0.421-0.257 0.853-0.514 1.285-0.75 0.072-0.021 0.134-0.052 0.185-0.093 0.905-0.504 1.799-1.028 2.673-1.573 0.072-0.041 0.134-0.082 0.206-0.134 0.349-0.216 0.709-0.442 1.049-0.689 0.853-0.544 1.686-1.141 2.498-1.758 0-0.01 0.01-0.01 0.01-0.01h0.01c1.039-0.771 2.046-1.594 3.033-2.437s1.933-1.727 2.848-2.642c5.902-5.871 10.456-13.088 13.171-21.138 1.85-5.48 2.858-11.351 2.858-17.458" fill="#f0d0b4"/>
      <path d="m0 0h-109.08c0 6.097 0.997 11.978 2.858 17.458 0.021 0.051 0.031 0.102 0.052 0.154 0.339 0.997 0.709 1.984 1.11 2.961v0.01c0.391 0.977 0.823 1.933 1.275 2.879 1.799 3.794 4.041 7.341 6.642 10.59 0.658 0.812 1.326 1.604 2.015 2.364 0.339 0.391 0.699 0.772 1.059 1.152 0.36 0.37 0.72 0.74 1.09 1.11 1.84 1.841 3.814 3.527 5.891 5.079 1.038 0.771 2.087 1.491 3.177 2.19 0.144 0.093 0.288 0.185 0.432 0.268 0.401 0.257 0.802 0.503 1.213 0.74 0.555 0.339 1.121 0.658 1.686 0.966 0.021 0.021 0.041 0.011 0.041 0.011v0.01c0.442 0.247 0.874 0.493 1.306 0.75 1.285 0.782 2.519 1.645 3.67 2.591 0.011-0.01 0.011-0.01 0.021-0.02 5.326-5.449 12.739-8.832 20.964-8.853h0.133c8.205 0.011 15.628 3.404 20.964 8.842l0.01 0.011c0.73-0.607 1.491-1.172 2.272-1.697 0.083-0.061 0.155-0.113 0.237-0.164 0.37-0.247 0.75-0.483 1.131-0.72 0.421-0.257 0.853-0.504 1.285-0.74 0.072-0.021 0.123-0.062 0.185-0.093 0.905-0.503 1.799-1.028 2.673-1.583 0.072-0.041 0.134-0.082 0.206-0.134 0.349-0.216 0.709-0.442 1.049-0.689 0.853-0.544 1.686-1.141 2.498-1.758h0.02c1.039-0.781 2.057-1.593 3.033-2.447 0.987-0.843 1.933-1.727 2.848-2.642 5.902-5.871 10.456-13.088 13.171-21.138 1.85-5.48 2.858-11.351 2.858-17.458" fill="#b150c5"/>
     </g>
     <g transform="translate(696.22 340.95)">
      <path d="m0 0c-0.072-0.031-0.154-0.062-0.237-0.072-5.407-1.408-26.731 24.288-26.947 51.225-0.01 2.169 0.103 4.349 0.381 6.539 0.719 5.809 3.516 11.392 5.839 17.016 1.83 4.451 3.383 8.914 3.383 13.52 0 24.675-7.156 16.635-27.112 29.949-4.822 3.208-8.246 5.84-10.929 7.978-7.413 5.881-9.294 7.989-19.463 7.989-12.934 0-18.074-22.465-19.544-32.067-1.584-10.333-1.604-27.082 4.842-43.028 4.995-12.357 4.997-24.469-4.842-37.928-3.692-5.048-9.346-22.105-16.368-27.605-2.19-1.717-4.504-2.314-6.94-1.07-19.185 9.819-7.639 41.332-1.882 61.061 6.2 21.231 8.071 42.75 12.574 64.187 5.079 24.141 25.745 38.853 34.093 32.89 2.786 4.997 10.076 6.868 17.53 6.868 5.459 0 11.022-1.018 14.97-2.55 30.484-11.834 30.998-40.087 32.622-51.838 1.337-9.706 6.118-18.774 7.793-28.356v-0.031c0.36-2.015 0.576-4.072 0.587-6.149 0.072-11.216-1.183-18.804 7.34-28.15 6.467-7.084 1.522-36.338-7.69-40.378" fill="#421800"/>
     </g>
     <g transform="translate(640.6 353.19)">
      <path d="m0 0-0.031-0.051-0.01-0.021c-2.899-4.503-7.701-6.847-12.543-6.847-3.938 0-7.896 1.552-10.868 4.739l-5.582 5.984c0.945 0.607 1.912 1.172 2.899 1.707 0.02 0.02 0.041 0.01 0.041 0.01v0.01c0.442 0.247 0.874 0.494 1.306 0.751 1.285 0.781 2.519 1.645 3.67 2.591 0.01-0.011 0.01-0.011 0.021-0.021 5.325-5.449 12.738-8.831 20.963-8.852z" fill="#e7ecf2"/>
     </g>
     <g transform="translate(669.56 356.92)">
      <path d="m0 0-5.5-5.901c-2.972-3.188-6.93-4.74-10.878-4.74-4.832 0-9.644 2.344-12.533 6.847l-0.01 0.021-0.041 0.051c8.204 0.01 15.627 3.403 20.963 8.842l0.011 0.01c0.729-0.606 1.49-1.172 2.272-1.696 0.082-0.062 0.154-0.113 0.236-0.165 0.37-0.246 0.751-0.483 1.131-0.719 0.422-0.257 0.853-0.504 1.285-0.74 0.072-0.021 0.124-0.062 0.185-0.093 0.905-0.504 1.8-1.028 2.673-1.583 0.072-0.042 0.134-0.083 0.206-0.134" fill="#e7ecf2"/>
     </g>
     <g clip-path="url(#clipPath4745)" opacity=".5">
      <g transform="translate(640.6 498.4)">
       <path d="m0 0v-187.62h-54.635v0.01c0 6.097 0.997 11.978 2.858 17.458h-3.598v6.22c-2.19-1.717-4.504-2.313-6.94-1.069-19.185 9.818-7.639 41.331-1.882 61.061 6.2 21.23 8.071 42.749 12.574 64.186 5.079 24.141 25.745 38.853 34.093 32.89 2.786 4.997 10.076 6.868 17.53 6.868" fill="#f0d0b4"/>
      </g>
     </g>
    </g>
   </g>
  </g>
 </g>
</svg>
