<svg width="103.45" height="103.45" version="1.1" viewBox="0 0 27.371 27.371" xmlns="http://www.w3.org/2000/svg">
 <g transform="translate(-50.949 -44.434)">
  <circle cx="64.634" cy="58.119" r="13.685" fill="#520"/>
  <circle cx="64.634" cy="58.119" r="12.659" fill="#ff7f2a"/>
  <text x="68.420998" y="131.29288" dominant-baseline="auto" fill="#4d4d4d" font-family="'Arial Rounded MT Bold'" font-size="18.91px" letter-spacing="0px" word-spacing="0px" style="font-feature-settings:normal;font-variant-alternates:normal;font-variant-caps:normal;font-variant-ligatures:normal;font-variant-numeric:normal;font-variant-position:normal;line-height:1.25;shape-padding:0;text-decoration-color:#000000;text-decoration-line:none;text-decoration-style:solid;text-indent:0;text-orientation:mixed;text-transform:none;white-space:normal" xml:space="preserve"/>
  <path transform="matrix(.26458 0 0 .26458 50.949 44.434)" d="m79.727 49.938c-0.48512-0.0131-1.0045 0.0063-1.5938 0.05273-0.33668 0.02646-0.69556 0.06403-1.084 0.10742-1.3198 0.14786-2.5225 0.38458-3.6387 0.72852-1.1161 0.34394-2.1468 0.7945-3.1211 1.3711-0.97428 0.57658-1.8929 1.2792-2.7871 2.125-0.89426 0.8458-1.7646 1.8347-2.6406 2.9863-0.79125 1.0401-1.457 2.0546-2.0059 3.0684-0.54889 1.0138-0.98152 2.0257-1.3027 3.0605-0.32122 1.0348-0.53046 2.0921-0.63867 3.1953-0.10821 1.1032-0.11343 2.2536-0.02344 3.4727 0.09831 1.33 0.21073 2.1363 0.48828 2.7441 0.13875 0.30391 0.31996 0.55876 0.55859 0.80274 0.23868 0.24397 0.53681 0.47776 0.91211 0.74219 0.71959 0.50703 1.1068 0.8181 1.2031 1.0117 0.04815 0.09679 0.02214 0.16387-0.07031 0.21289-0.09252 0.04902-0.25157 0.07998-0.47461 0.10156-0.29529 0.02872-0.72172-0.03573-1.1699-0.16016-0.4482-0.12446-0.91817-0.30997-1.3027-0.52734-0.3335-0.18848-0.59684-0.32412-0.84375-0.37695-0.24692-0.05284-0.47734-0.02345-0.75 0.11719-0.54532 0.28157-1.2557 1.0083-2.5781 2.4121-0.76246 0.80941-1.7905 1.7312-2.832 2.5625-1.0416 0.83131-2.0964 1.5735-2.9141 2.0254-0.81768 0.45186-1.5565 0.90787-2.0898 1.2812-0.53332 0.37338-0.8598 0.66442-0.85156 0.7793 0.01285 0.1734 0.28729 0.3324 0.75781 0.4707 0.47051 0.13833 1.1351 0.25523 1.9316 0.34375 1.5931 0.17703 3.7081 0.23916 5.8145 0.12891 2.1822-0.11422 3.9721-0.16767 3.9785-0.11914 0.0064 0.04857-0.81685 0.69155-1.8301 1.4297-0.36741 0.26767-0.68184 0.54265-0.96094 0.85938-0.27912 0.31672-0.52393 0.67592-0.75195 1.1133-0.45604 0.87472-0.84711 2.063-1.3223 3.8496-0.3357 1.2622-0.63697 2.6449-0.89453 4.0664-0.25758 1.4215-0.47209 2.8809-0.63281 4.2969-0.12214 1.0762-0.20105 2.1063-0.25781 3.0957a51.724 51.724 0 0 0 15.426-3.0918c-0.08074-0.2538-0.1486-0.48922-0.25586-0.78125-0.26321-0.71667-0.55749-1.8792-0.84375-3.2422-0.28626-1.363-0.56514-2.9252-0.79883-4.4434s-0.42184-2.9915-0.52734-4.1738c-0.10549-1.1823-0.12956-2.0743-0.03125-2.4297 0.06629-0.23974 0.3-0.51882 0.62109-0.77539 0.32111-0.25656 0.73145-0.48928 1.1523-0.63867 0.77685-0.27576 1.5982-0.63427 2.4492-1.0566 0.85102-0.42237 1.7314-0.90833 2.6191-1.4473 1.7755-1.0779 3.5872-2.3608 5.2852-3.7246 1.698-1.3638 3.2825-2.8095 4.6035-4.2188 0.66051-0.70463 1.2555-1.4013 1.7656-2.0723 0.51013-0.67092 0.93548-1.3167 1.2578-1.9238 0.42283-0.79648 0.78824-1.6608 1.0938-2.5664 0.3055-0.90565 0.5503-1.8515 0.72852-2.8125 0.17824-0.96102 0.29102-1.9358 0.33203-2.8984 0.04097-0.9626 0.01043-1.9139-0.0957-2.8242-0.1415-1.2129-0.28168-2.1742-0.46875-2.959-0.18705-0.78475-0.42199-1.3938-0.75-1.8965-0.32799-0.50267-0.75012-0.89892-1.3145-1.2656-0.56433-0.36673-1.27-0.70321-2.166-1.0801-1.1759-0.49457-2.0758-0.80498-2.9766-0.96875-0.45036-0.08188-0.9016-0.12753-1.3867-0.14062z" fill="#fff"/>
  <path transform="matrix(.26458 0 0 .26458 50.949 44.434)" d="m59.223 16.449c-0.18651-2e-3 -0.36723 0.0047-0.54102 0.02148-0.7428 0.07196-1.5197 0.24577-2.2832 0.49219-0.76348 0.24642-1.5128 0.56706-2.1992 0.93555-0.68642 0.36847-1.3107 0.78456-1.8223 1.2227-0.5116 0.4381-0.91135 0.89823-1.1504 1.3535-0.54348 1.0351-0.77634 1.6127-0.67383 1.7715 0.10254 0.15874 0.54143-0.10102 1.3398-0.74219 0.49984-0.40139 1.0509-0.68026 1.748-0.85742 0.69712-0.17715 1.5402-0.25304 2.623-0.25391 0.90313-6.92e-4 1.7523 0.09581 2.5508 0.28906 0.79846 0.19325 1.5461 0.48134 2.2402 0.86914 0.69417 0.3878 1.3355 0.87405 1.9258 1.457 0.59027 0.58298 1.1304 1.2642 1.6172 2.043 0.48675 0.77878 0.92105 1.6557 1.3047 2.6309 0.38363 0.9752 0.71521 2.0484 0.99609 3.2207 0.28089 1.1722 0.51092 2.4445 0.68945 3.8145 0.17854 1.3699 0.30624 2.838 0.38281 4.4062 0.12979 2.6583 0.19963 4.0065 0.4043 4.6738 0.10231 0.33366 0.23809 0.49636 0.43164 0.56836 0.19355 0.07204 0.4462 0.05376 0.7793 0.02148 0.37179-0.03591 0.71592 0.0051 0.97266 0.10156 0.25674 0.09653 0.42572 0.24752 0.44336 0.42969 0.02079 0.21373-0.14546 0.36712-0.48047 0.45703-0.33498 0.08988-0.83909 0.11662-1.498 0.07422-0.58423-0.0378-1.4296 0.05168-2.4082 0.23242-0.97861 0.18077-2.0912 0.45295-3.207 0.77734-1.1158 0.3244-2.2345 0.70244-3.2305 1.0957-0.99593 0.39327-1.8694 0.80206-2.4883 1.1895-0.41242 0.25818-0.72241 0.45051-0.97266 0.56641-0.25024 0.11588-0.43941 0.15375-0.60742 0.10352-0.16804-0.05019-0.31471-0.18954-0.48047-0.42969-0.16577-0.24015-0.35026-0.57928-0.59375-1.0332-0.35524-0.66224-0.92703-1.3744-1.6543-2.0957-0.72726-0.7213-1.611-1.4534-2.5957-2.1523-0.98466-0.69899-2.0699-1.3656-3.1973-1.9609-1.1274-0.5953-2.2976-1.1191-3.4531-1.5293-1.3183-0.46799-2.6629-0.80473-4.0195-1.0176-1.3566-0.21286-2.724-0.30066-4.084-0.27148-1.36 0.0291-2.7126 0.1755-4.041 0.43359-1.3284 0.2581-2.6326 0.62768-3.8945 1.1016-1.2619 0.47389-2.4821 1.052-3.6426 1.7285-1.1605 0.67656-2.263 1.4522-3.2871 2.3184-1.0242 0.86611-1.9694 1.8227-2.8223 2.8652-0.85285 1.0426-1.6112 2.1711-2.2578 3.377-0.60942 1.1365-1.1061 2.2398-1.4922 3.3418-0.38613 1.102-0.66388 2.2021-0.83594 3.3301-0.17204 1.128-0.23792 2.2837-0.20508 3.498 0.03288 1.2143 0.16606 2.4865 0.39453 3.8477 0.30641 1.8255 0.77976 3.5407 1.4043 5.1348 0.62454 1.5941 1.4008 3.0674 2.3086 4.4102 0.90776 1.3427 1.9474 2.5554 3.1035 3.627 1.1561 1.0715 2.4274 2.0028 3.7969 2.7832 1.3695 0.7804 2.8368 1.4095 4.3848 1.8789 1.548 0.46941 3.1775 0.77749 4.8691 0.91602 1.6916 0.13852 3.4458 0.1087 5.2461-0.10352 1.8003-0.21226 3.6454-0.60656 5.5195-1.1895 0.93203-0.28989 1.9709-0.71178 3.0469-1.2227 1.076-0.51088 2.189-1.1115 3.2695-1.7598 1.0805-0.64826 2.1285-1.3429 3.0742-2.0449 0.94567-0.70203 1.7895-1.4098 2.4609-2.082 0.73463-0.73541 1.2185-1.3391 1.4961-1.8984 0.27757-0.55938 0.34867-1.0759 0.25781-1.6367-0.22091-1.364-0.28453-2.2039-0.19141-2.5215 0.04656-0.15882 0.13102-0.18754 0.25586-0.08398 0.12484 0.10356 0.29116 0.33862 0.49414 0.70508 0.18323 0.33082 0.32355 0.57322 0.43555 0.70703 0.11199 0.13383 0.19463 0.15878 0.26172 0.05469 0.13414-0.20818 0.20404-0.93272 0.31641-2.3379 0.13898-1.7381 0.45132-3.3996 0.92578-4.9668 0.47446-1.5672 1.1112-3.0401 1.9004-4.4004 0.78917-1.3603 1.7313-2.6089 2.8145-3.7266 0.54155-0.55881 1.1193-1.0848 1.7305-1.5762 0.61114-0.49141 1.2555-0.94765 1.9336-1.3672 1.3908-0.86045 2.7823-1.5403 4.1621-2.0391 1.3798-0.49876 2.7479-0.81661 4.0918-0.95117 1.3439-0.13482 2.6642-0.08565 3.9473 0.14648 1.2831 0.23214 2.5292 0.6467 3.7266 1.248 0.68492 0.34401 1.1143 0.45264 1.3145 0.37305 0.10008-0.0398 0.14343-0.12676 0.13281-0.25391-0.01058-0.12711-0.07711-0.29406-0.19141-0.49609-0.22859-0.4041-0.65653-0.94668-1.2578-1.5762-0.60128-0.6295-1.3751-1.3477-2.293-2.1035-0.96598-0.79538-1.904-1.6875-2.6387-2.4863-0.73464-0.79879-1.2655-1.5031-1.4141-1.9199-0.14857-0.4168-0.52273-1.0529-1.0039-1.7402-0.48118-0.6873-1.069-1.4268-1.6504-2.0527-0.81886-0.88159-1.3882-1.6482-1.8223-2.5391-0.43403-0.89088-0.73291-1.9049-1.0117-3.2754-0.18985-0.93319-0.46302-1.9196-0.80274-2.9238-0.3397-1.0042-0.74718-2.0259-1.2031-3.0273-0.45594-1.0015-0.96144-1.9832-1.5-2.9082-0.53855-0.92496-1.1097-1.7936-1.6973-2.5684-0.48582-0.6406-1.1341-1.2593-1.877-1.8223-0.74282-0.56295-1.58-1.0712-2.4434-1.4902-0.86338-0.41907-1.7521-0.74805-2.5996-0.95703-0.63561-0.15673-1.2491-0.24588-1.8086-0.25195zm-12.459 2.498c-0.19811 5.02e-4 -0.40135 0.0093-0.60938 0.02734-0.9153 0.07941-1.9052 0.32424-2.7754 0.68164-0.43507 0.1787-0.83958 0.38571-1.1914 0.61523-0.35184 0.22953-0.6505 0.48014-0.87109 0.74805l-1.0586 1.2852 2.3105-0.53906c0.75488-0.17666 1.4863-0.24721 2.1758-0.21289 0.68951 0.03439 1.3376 0.17224 1.9219 0.41602 0.81451 0.3397 1.2751 0.50529 1.6055 0.4668 0.16517-0.01965 0.29817-0.08941 0.42578-0.21289 0.12763-0.12348 0.24884-0.301 0.39453-0.53516 0.35172-0.56532 0.6218-1.2332 0.59766-1.4824-0.02419-0.24926-0.64062-0.69918-1.3672-1.002-0.42493-0.17708-0.96427-0.25737-1.5586-0.25586zm25.07 65.516c-0.17703 0.02079-0.39827 0.08863-0.67773 0.19336-0.70605 0.26445-1.7453 0.53064-2.3086 0.58984-0.22224 0.02343-0.39354 0.07961-0.51953 0.21484-0.12601 0.13519-0.2055 0.3485-0.24609 0.68555-0.08111 0.67408-0.0024 1.8423 0.19336 3.8633 0.12404 1.2807 0.34449 2.7837 0.59961 4.1738 0.25512 1.3901 0.5434 2.6662 0.80664 3.4941l0.72461 2.2754a51.724 51.724 0 0 0 0.63477-0.27734l0.47852-1.207c0.242-0.61035 0.61882-1.3146 1.0312-1.959 0.41244-0.64437 0.86031-1.2286 1.2441-1.5957l1.3965-1.334-1.209-2.9824c-0.66519-1.6405-1.2854-3.7556-1.377-4.7012-0.05439-0.56141-0.11325-0.93669-0.22656-1.1621-0.11327-0.22541-0.27937-0.30221-0.54492-0.27148zm5.373 11.215c-0.36472 0.03515-0.7046 0.15666-1.0469 0.4043-0.34227 0.24764-0.68761 0.62213-1.0645 1.1641-0.17136 0.24643-0.35198 0.53782-0.53906 0.85742a51.724 51.724 0 0 0 3.6875-2.0352 51.724 51.724 0 0 0 0.01172-0.0059c-0.0054-0.0048-0.01021-0.01284-0.01563-0.01758-0.31094-0.27247-0.65569-0.40374-1.0332-0.36719z" fill="#3c9539"/>
  <path transform="matrix(.26458 0 0 .26458 50.949 44.434)" d="m90.67 85.709c-1.8523 0.14768-3.8001 0.72946-5.752 1.5762-0.07744 0.09407-0.06217 0.31848 0.0293 0.64258 0.09146 0.3241 0.25909 0.74887 0.48242 1.2402 0.16129 0.35488 0.3783 0.77548 0.5918 1.1895a51.724 51.724 0 0 0 4.6484-4.6484z" fill="#d40000"/>
  <path transform="matrix(.26458 0 0 .26458 50.949 44.434)" d="m75.244 84.461 0.6582 2.5254c0.21294 0.81646 0.53434 1.5744 0.94726 2.2441 0.41293 0.66976 0.91857 1.2517 1.4941 1.7148 0.52155 0.41965 1.1154 1.1416 1.6855 2.0156 0.29024 0.44497 0.57334 0.92952 0.83789 1.4336a51.724 51.724 0 0 0 3.5879-2.6602c-0.60074-1.1165-1.1563-2.1-1.6621-2.8887-0.62383-0.9726-1.1994-1.7196-1.7812-2.2949-0.5819-0.57529-1.1695-0.97988-1.8223-1.2695-0.65281-0.28966-1.3705-0.46439-2.207-0.58008z" fill="#fff"/>
  <path d="m71.597 53.301c-0.13171 0.01276-0.23053 0.02532-0.29591 0.04601-0.06538 0.0207-0.09727 0.04963-0.09576 0.09544 0.0015 0.04581 0.03654 0.10841 0.10549 0.19651 0.06896 0.0881 0.1718 0.20158 0.30876 0.34914 0.11988 0.12916 0.25461 0.30428 0.37519 0.48212 0.12058 0.17784 0.22701 0.35841 0.29007 0.49904 0.11445 0.25524 0.22175 0.45339 0.31866 0.5935 0.09691 0.14012 0.18338 0.22211 0.25619 0.24504 0.0364 0.01145 0.06952 0.0084 0.09867-0.0099 0.02915-0.01822 0.05424-0.05157 0.0753-0.09974 0.04213-0.09634 0.06742-0.25275 0.07231-0.47042 0.0069-0.3073-0.0264-0.58688-0.09466-0.8321s-0.17161-0.4561-0.30443-0.6257c-0.06641-0.0848-0.13996-0.15941-0.22052-0.22276-0.08056-0.06335-0.16791-0.11547-0.2613-0.15569-0.09338-0.04021-0.19282-0.06827-0.2977-0.08365-0.10488-0.01538-0.2153-0.01804-0.33035-0.0069zm3.0578 4.2958c-0.04384 7e-3 -0.0574 0.05054-0.04091 0.13051 0.01649 0.07997 0.06304 0.19637 0.13886 0.34944 0.05611 0.11328 0.12362 0.3444 0.18715 0.62569 0.06354 0.28128 0.1231 0.61272 0.16331 0.92627 0.08042 0.62709 0.16101 1.1389 0.17925 1.1371 0.01824-0.0018 0.18481-0.28077 0.37017-0.61983 0.12227-0.22366 0.20701-0.43193 0.2539-0.62802 0.04689-0.19608 0.05604-0.37998 0.02641-0.55512s-0.09786-0.34163-0.20514-0.50248c-0.10728-0.16085-0.2537-0.31609-0.43976-0.46928-0.16801-0.13834-0.30425-0.24042-0.4096-0.30617-0.10535-0.06574-0.1798-0.09514-0.22364-0.08813zm-0.21349 5.9098c-0.04132 4e-3 -0.25363 0.21996-0.47169 0.47978-0.21806 0.25982-0.62148 0.69215-0.8966 0.96072l-0.50049 0.48826 0.74512-0.14636c0.20488-0.04027 0.41244-0.10302 0.58202-0.17156 0.16958-0.06854 0.30119-0.14286 0.35365-0.20658 0.04573-0.05553 0.09001-0.17195 0.12833-0.31519 0.03832-0.14324 0.07065-0.31337 0.09241-0.47596 0.02177-0.16259 0.03308-0.31764 0.02913-0.43123-0.0039-0.11359-0.0231-0.18564-0.0619-0.18188z" fill="#ea5105"/>
  <path d="m65.806 50.082c-0.05428 0.0037-0.10917 0.0092-0.1647 0.01687-0.157 0.02144-0.31516 0.06201-0.46897 0.11872-0.1538 0.05671-0.30321 0.12966-0.44281 0.21581-0.13961 0.08615-0.26924 0.18558-0.38365 0.29534-0.1144 0.10976-0.21358 0.22981-0.29178 0.35735-0.06657 0.10856-0.11723 0.22881-0.15686 0.36044-0.0388 0.21939-0.13096 0.34641-0.17265-0.1918 0.0085-0.15997-0.01462-0.29626-0.06572-0.40978-0.05111-0.11352-0.13014-0.20429-0.23432-0.27258-0.10419-0.06829-0.2333-0.11412-0.38408-0.13841-0.15078-0.02429-0.32333-0.02702-0.5142-0.0085-0.1757 0.01702-0.37178 0.0637-0.54614 0.125-0.17436 0.0613-0.32701 0.13722-0.41584 0.2132-0.12082 0.10334-0.23441 0.249-0.3367 0.42482-0.1023 0.17583-0.19342 0.38197-0.26915 0.60646-0.07573 0.22449-0.13598 0.46728-0.1771 0.71661s-0.063 0.50503-0.06146 0.75537l0.0054 0.88951 0.47436 0.02346c0.19963 0.0098 0.49513 0.05606 0.63034 0.08943 0.5456 0.13464 0.83436 0.225 1.3315 0.47475 0.43248 0.21726 0.843 0.50386 1.2288 0.8105 0.38581 0.30664 0.73235 0.63588 0.99369 0.94666 0.29382 0.3494 0.55737 0.63291 0.58548 0.63018 0.02811-0.0027 0.27677-0.12384 0.55282-0.26925 0.13802-0.0727 0.36422-0.16105 0.61742-0.24469s0.53343-0.16257 0.77959-0.21672l0.8952-0.1968-0.26087-2.1126c-0.11714-0.94861-0.19417-1.4956-0.29473-1.8876-0.05028-0.19602-0.10652-0.35308-0.17642-0.50257-0.0699-0.14949-0.15358-0.29128-0.25897-0.45598-0.13287-0.20766-0.27461-0.38756-0.42505-0.53982-0.15044-0.15226-0.3097-0.27686-0.47778-0.37376-0.16808-0.0969-0.34502-0.16609-0.5308-0.20767-0.18578-0.04158-0.3803-0.05558-0.58385-0.04187z" fill="#fff"/>
  <path transform="matrix(.26458 0 0 .26458 50.949 44.434)" d="m59.766 14.104c-0.51092 0.0012-1.0304 0.02476-1.5508 0.07226-2.0814 0.19004-4.1668 0.74558-5.6836 1.6113-1.8904 1.079-2.5445 1.1922-4.3652 0.75586-2.2744-0.54511-5.7988 0.17248-7.9648 1.623-2.6081 1.7466-5.4294 8.5625-6.3496 15.344-0.42221 3.1117-0.44939 3.1464-2.6484 3.3594-1.2226 0.11841-3.8478 0.89547-5.834 1.7266-9.9585 4.167-15.079 12.571-14.6 23.963 0.43489 10.342 5.7384 18.485 14.221 21.84 3.4898 1.3802 9.8277 1.8992 14.773 1.2109 3.6961-0.51438 4.9828-0.46841 6.1855 0.21875 0.83531 0.47724 2.9529 1.044 4.7051 1.2617 1.7522 0.2177 3.2049 0.59761 3.2285 0.8418 0.02381 0.2442-0.38032 1.7708-0.89844 3.3926-0.51818 1.6218-1.117 4.5615-1.3301 6.5332-0.27095 2.5077-0.64261 3.5682-1.2383 3.5293-0.46831-0.0306-2.2105-0.23708-3.8711-0.45703-2.5331-0.33551-4.2687 0.0544-5.668 1.3418a51.724 51.724 0 0 0 10.848 1.1777 51.724 51.724 0 0 0 2.2852-0.0801c0.20585-3.5927 0.8587-7.9772 1.7852-11.461 0.95035-3.5732 1.5655-4.7497 3.0352-5.8203 1.0132-0.73814 1.8365-1.3811 1.8301-1.4297-0.0045-0.04868-1.7963 0.0048-3.9785 0.11914-4.2126 0.22046-8.4535-0.24962-8.5039-0.94336-0.01663-0.22976 1.306-1.1568 2.9414-2.0605 1.6354-0.90373 4.2232-2.9691 5.748-4.5879 2.6449-2.8077 2.8359-2.9063 4.1699-2.1523 0.76913 0.43473 1.8821 0.74275 2.4727 0.68555 0.89221-0.0864 0.78099-0.31016-0.6582-1.3242-1.5012-1.0577-1.7624-1.6291-1.959-4.2891-0.36045-4.876 0.80764-8.6365 3.9727-12.797 3.5043-4.6064 6.9062-6.6215 12.186-7.2129 0.38772-0.04346 0.74581-0.07895 1.082-0.10547h2e-3c2.3555-0.18525 3.604 0.0678 5.9551 1.0566 3.5842 1.5075 4.1332 2.3494 4.6992 7.2012 0.42485 3.6415-0.36727 7.9157-2.0586 11.102-2.5787 4.8573-11.766 12.237-17.98 14.443-0.84182 0.29881-1.6408 0.93461-1.7734 1.4141-0.3932 1.4215 1.1482 11.424 2.2012 14.291 0.10708 0.29155 0.17327 0.52592 0.25391 0.77929a51.724 51.724 0 0 0 0.97461-0.32421l-0.72461-2.2754c-0.52645-1.6559-1.1581-5.1065-1.4062-7.668-0.39149-4.0419-0.3167-4.6705 0.57226-4.7637 0.56335-0.05919 1.6026-0.32538 2.3086-0.58984 0.27946-0.10469 0.50072-0.17287 0.67773-0.19336 0.53112-0.06145 0.66273 0.31077 0.77148 1.4336 0.09158 0.94559 0.71173 3.0607 1.377 4.7012l1.209 2.9824-1.3965 1.334c-0.76764 0.73412-1.7914 2.334-2.2754 3.5547l-0.47852 1.207a51.724 51.724 0 0 0 3.5156-1.5723c1.0099-1.7254 1.7551-2.3391 2.6504-2.4258 0.38332-0.03713 0.73223 0.10372 1.0469 0.38477a51.724 51.724 0 0 0 2.6133-1.668c-0.78453-1.4942-1.7364-2.8159-2.5235-3.4492-1.1511-0.92624-2.0155-2.3261-2.4414-3.959l-0.6582-2.5254 1.7383 0.24023c3.188 0.44086 4.6501 1.7867 7.4727 7.0332a51.724 51.724 0 0 0 1.5664-1.377c-0.80457-1.5602-1.3143-2.8161-1.1035-3.0723 2.0551-0.72174 3.8762-1.1873 5.5098-1.3184a51.724 51.724 0 0 0 2.1465-2.6152c-0.61909-0.07145-1.2524-0.11372-1.9121-0.09766-1.9031 0.04634-4.2353 0.44169-5.1836 0.87891-1.4951 0.6893-2.0675 0.61533-4.2969-0.55078l-2.5703-1.3438 4.5957-0.79883c2.5275-0.43932 5.1479-1.1657 5.8223-1.6152 2.0582-1.372 2.78-4.1427 2.2148-8.5l-0.51172-3.9375 2.8242-3.1895c6.26-7.0756 5.1105-13.321-3.1094-16.9-2.5578-1.1137-3.6937-1.9341-3.6719-2.6523 0.2245-7.3912 0.0285-8.7217-1.5605-10.641-1.8391-2.2209-5.068-3.6457-7.6934-3.3926-1.7005 0.16414-1.9048-0.02144-2.7949-2.5391-2.2919-6.4814-6.4529-11.587-10.854-13.32-1.1244-0.44282-2.5747-0.6519-4.1074-0.64844zm-0.54297 2.3457c2.7975 0.02982 6.9067 2.1192 8.7285 4.5215 2.3501 3.0989 4.4437 7.695 5.2031 11.428 0.55762 2.741 1.1963 4.0513 2.834 5.8145 1.1629 1.2519 2.3572 2.9594 2.6543 3.793 0.29722 0.83359 2.1208 2.8174 4.0527 4.4082 3.6716 3.0232 5.0346 5.4307 2.2949 4.0547-4.7893-2.4054-10.364-1.8461-15.928 1.5957-5.4251 3.3563-8.7488 9.0845-9.3047 16.037-0.22473 2.8103-0.28074 2.8995-1.0137 1.5762-0.81186-1.4658-1.0004-0.8277-0.55859 1.9004 0.18172 1.1217-0.28467 2.0643-1.7539 3.5352-2.6859 2.6888-8.1234 5.9498-11.852 7.1094-14.993 4.6632-28.181-2.8528-30.633-17.457-0.9139-5.4445-0.29899-9.4716 2.1387-14.018 5.173-9.6468 17.503-14.279 28.049-10.535 4.622 1.6408 9.4795 5.0893 10.9 7.7383 0.97392 1.8157 1.0046 1.8257 2.6543 0.79297 2.4754-1.5495 8.9971-3.4454 11.334-3.2949 1.3179 0.08489 2.0199-0.10383 1.9785-0.53125-0.03515-0.36431-0.67247-0.60327-1.416-0.53125-1.3324 0.12907-1.3557 0.05293-1.6152-5.2637-0.61257-12.546-4.482-18.736-11.707-18.73-2.1657 0.0017-3.3715 0.30662-4.3711 1.1094-1.5969 1.2823-1.753 1.0429-0.66602-1.0273 0.95616-1.8211 4.4839-3.7161 7.4551-4.0039 0.17378-0.01683 0.35451-0.02347 0.54102-0.02148zm-12.459 2.498c0.59433-0.0015 1.1336 0.07872 1.5586 0.25586 0.72659 0.30278 1.343 0.7527 1.3672 1.002 0.02419 0.24926-0.24594 0.9171-0.59766 1.4824-0.58275 0.93662-0.79675 0.96066-2.4258 0.28125-1.1686-0.48757-2.5879-0.55644-4.0977-0.20312l-2.3105 0.53906 1.0586-1.2852c0.88235-1.0716 3.0073-1.8861 4.8379-2.0449 0.20803-0.01805 0.41126-0.02684 0.60938-0.02734zm9.3887 2.4023c3.0773-0.20723 5.6163 1.2571 7.625 4.3965 1.5932 2.49 1.8742 3.5853 2.7598 10.756l0.98633 7.9844-3.3828 0.74414c-1.8607 0.40932-4.2379 1.1946-5.2812 1.7441-1.0433 0.54956-1.9816 1.0073-2.0879 1.0176-0.10628 0.0102-1.1024-1.0603-2.2129-2.3809-1.9755-2.3492-5.2413-4.9809-8.4004-6.6426-0.4996-0.26283-1.4035-0.63799-1.7969-0.85742 0.75001-0.01739 1.3347-1.4706 1.3281-2.5469-0.02343-3.8342-1.0061-5.6736-2.7051-5.748-1.5538-0.06811-2.5141 0.77188-2.6211 3.7969-0.03957 1.1193 0.17014 3.0077 0.76172 3.5625-0.49943-0.16603-1.6283-0.30074-2.3828-0.33789l-1.793-0.08984-0.01953-3.3613c-0.02306-3.7847 1.3648-7.8986 3.1914-9.4609 0.67145-0.5743 2.3086-1.1507 3.6367-1.2793 2.8857-0.2795 4.6553 0.71629 4.5273 3.1348-0.12034 2.2744-0.36518 4.0633-0.04102 6.2793 0.22995-2.9161 0.28069-5.2748 1.2871-6.916 1.1823-1.9282 3.6245-3.4083 5.998-3.7324 0.20992-0.02872 0.41795-0.04859 0.62305-0.0625zm-3.332 8.1758c-0.9981 0.08636-2.0189 0.77656-2.4961 1.9453-0.77077 1.8877-0.02669 7.1586 1.1855 8.3613 1.2347 1.2252 3.3503 1.331 4.248-0.08984 0.95235-1.5073 0.75876-7.1855-0.91602-9.2637-0.5443-0.67535-1.2452-1.0203-2.0215-0.95312zm25.861 3.9648c3.1219 0.06606 5.1623 2.9532 5.0645 7.3086-0.07389 3.2907-1.3733 2.8803-3.1035-0.97852-0.47667-1.063-1.6074-2.7307-2.5137-3.707-2.0706-2.2308-2.0771-2.4048-0.08594-2.5977 0.21743-0.02106 0.43054-0.0298 0.63867-0.02539zm-46.342 12.723c-1.7176 0.04592-3.5655 2.6346-3.2383 5.2266 0.13909 1.1014 0.27072 1.0027 0.91602-0.68359 0.44842-1.1718 1.4485-2.2903 2.4668-2.7598 1.2579-0.57992 1.5218-0.94606 0.99609-1.3789-0.35399-0.29152-0.74427-0.41489-1.1406-0.4043zm-10.213 2.2871c-0.22398-0.0042-0.43534 0.0088-0.62695 0.03711-0.57484 0.08462-0.96636 0.30093-0.94141 0.55859 0.03326 0.34356 0.45255 0.58723 0.92969 0.54102 0.47708-0.04622 1.0949 0.55791 1.375 1.3438 0.74019 2.0761 1.6918 1.6499 1.2598-0.56445-0.30656-1.5715-0.63892-1.8916-1.9961-1.916zm67.473 1.252c0.33139-0.05299 1.1226 0.44454 2.3926 1.4902 2.8128 2.316 3.2274 4.7632 1.3789 8.1445-0.70062 1.2815-1.3296 2.3351-1.3984 2.3418-0.06894 0.0068-0.37377-1.9268-0.67773-4.2969-0.30395-2.3701-0.90005-5.0089-1.3242-5.8652-0.57308-1.1571-0.70243-1.7615-0.37109-1.8145zm-0.80664 22.336c0.58662-0.05681-0.01974 4.4671-0.71094 5.3066-0.39652 0.48161-1.9885 1.1253-3.5371 1.4297l-2.8145 0.55273 1.8906-1.8438c1.0399-1.0151 2.5645-2.6489 3.3887-3.6309 0.82416-0.982 1.627-1.7993 1.7832-1.8145z" fill="#183c16" stroke-width=".58849"/>
 </g>
</svg>
