<svg width="103.45" height="103.45" version="1.1" viewBox="0 0 27.371 27.371" xmlns="http://www.w3.org/2000/svg">
 <defs>
  <clipPath id="clipPath4761">
   <path d="m0 800h800v-800h-800z"/>
  </clipPath>
 </defs>
 <g transform="translate(-50.949 -44.434)">
  <circle cx="64.634" cy="58.119" r="13.685" fill="#520" fill-rule="evenodd"/>
  <text x="68.420998" y="131.29288" dominant-baseline="auto" fill="#4d4d4d" font-family="'Arial Rounded MT Bold'" font-size="18.91px" letter-spacing="0px" word-spacing="0px" style="font-feature-settings:normal;font-variant-alternates:normal;font-variant-caps:normal;font-variant-ligatures:normal;font-variant-numeric:normal;font-variant-position:normal;line-height:1.25;shape-padding:0;text-decoration-color:#000000;text-decoration-line:none;text-decoration-style:solid;text-indent:0;text-orientation:mixed;text-transform:none;white-space:normal" xml:space="preserve"/>
  <g transform="matrix(.13456 0 0 -.13456 10.81 114.19)" fill="#c83737">
   <g clip-path="url(#clipPath4761)" fill="#c83737">
    <g transform="translate(494.07 416.68)" fill="#c83737">
     <path d="m0 0c0-51.956-42.118-94.074-94.074-94.074s-94.075 42.118-94.075 94.074 42.119 94.074 94.075 94.074 94.074-42.118 94.074-94.074" fill="#c83737"/>
    </g>
   </g>
  </g>
  <path d="m68.136 63.308h-7.4204v6.8784c1.3944 0.43291 2.9132 0.61582 3.9179 0.5914 1.773-0.04309 2.187-0.18822 3.5025-0.48509v-6.9847" fill="#333232" fill-opacity=".59799"/>
  <g>
   <path d="m58.346 47.567 3.6316 6.9834-2.2774 1.1846-1.7713-7.9517 0.41702-0.21629" fill="#4167b0"/>
   <path d="m64.255 53.366-2.2767 1.1843-3.6322-6.9829 0.416-0.21649 5.4929 6.015" fill="#304c9f"/>
   <path d="m59.943 46.736c0.45925 0.88142 0.11553 1.9697-0.7659 2.4275-0.88142 0.45925-1.9697 0.11553-2.4289-0.7659-0.45783-0.88285-0.11553-1.9697 0.76732-2.4275 0.88142-0.45925 1.9697-0.11695 2.4275 0.7659" fill="#2f9ad5"/>
   <path d="m71.152 47.567-3.6316 6.9834 2.2774 1.1846 1.7713-7.9517-0.41702-0.21629" fill="#4167b0"/>
   <path d="m65.243 53.366 2.2781 1.1843 3.6308-6.9829-0.416-0.21649-5.4929 6.015" fill="#304c9f"/>
   <path d="m74.737 65.761c-0.53373 0.64319-4.1341 5.2213-10.242 4.9993 0.8911-2.717 6.246-5.2458 10.242-4.9993z" fill="#84888b"/>
   <path d="m66.149 70.687c-0.14121-1.4614 4.5856-4.6303 7.7122-4.6303 0.20292 0 0.4041 0.0073 0.60331 0.02156-0.868 1.0697-1.4553 1.735-3.4626 2.9773-2.3092 1.4291-3.3355 1.4162-4.8529 1.6315z" fill="#3f3b3a"/>
   <path d="m70.255 58.63c0 4.2338-3.5676 7.6655-7.9683 7.6655-4.4034 0-7.9683-3.4357-7.9683-7.6655h15.937" fill="#a1a5a8"/>
   <path d="m58.813 58.63v0.75094c0 1.1022-0.89359 1.9958-1.9958 1.9958h-1.9716c-0.34048-0.85322-0.52754-1.7791-0.52754-2.7467h4.4949" fill="#333232"/>
   <path d="m70.254 58.63v-4.9723c0-1.1025-0.89282-1.9967-1.9953-1.9967h-6.5247c-1.1025 0-1.9967 0.89421-1.9967 1.9967v4.9723h10.517" fill="#84888b"/>
   <path d="m62.464 55.688c0 0.97186-0.78766 1.7609-1.7595 1.7609-0.97323 0-1.7609-0.78903-1.7609-1.7609 0-0.97186 0.78766-1.7609 1.7609-1.7609 0.97186 0 1.7595 0.78903 1.7595 1.7609" fill="#dededd"/>
   <path d="m61.494 55.687c0 0.4366-0.35312 0.79109-0.78972 0.79109-0.4366 0-0.78972-0.35449-0.78972-0.79109 0-0.43524 0.35312-0.78972 0.78972-0.78972 0.43661 0 0.78972 0.35449 0.78972 0.78972" fill="#282020"/>
   <path d="m67.576 55.688c0 0.97186-0.78766 1.7609-1.7595 1.7609-0.97323 0-1.7623-0.78903-1.7623-1.7609 0-0.97186 0.78903-1.7609 1.7623-1.7609 0.97186 0 1.7595 0.78903 1.7595 1.7609" fill="#dededd"/>
   <path d="m66.605 55.687c0 0.4366-0.35312 0.79109-0.78972 0.79109s-0.78972-0.35449-0.78972-0.79109c0-0.43524 0.35312-0.78972 0.78972-0.78972s0.78972 0.35449 0.78972 0.78972" fill="#282020"/>
  </g>
  <g fill="#84888b">
   <path d="m61.494 60.004c0 0.37159-0.30183 0.67342-0.67342 0.67342-0.37293 0-0.67476-0.30183-0.67476-0.67342 0-0.37159 0.30183-0.67342 0.67476-0.67342 0.37159 0 0.67342 0.30183 0.67342 0.67342"/>
   <path d="m64.31 60.004c0 0.37159-0.30183 0.67342-0.67342 0.67342-0.37159 0-0.67342-0.30183-0.67342-0.67342 0-0.37159 0.30183-0.67342 0.67342-0.67342 0.37159 0 0.67342 0.30183 0.67342 0.67342"/>
   <path d="m67.127 60.004c0 0.37159-0.30183 0.67342-0.67342 0.67342-0.37293 0-0.67476-0.30183-0.67476-0.67342 0-0.37159 0.30183-0.67342 0.67476-0.67342 0.37159 0 0.67342 0.30183 0.67342 0.67342"/>
  </g>
  <path d="m70.323 49.164c0.88 0.45925 1.9682 0.11553 2.4275-0.7659 0.45783-0.88285 0.11553-1.9697-0.76732-2.4275-0.88142-0.45925-1.9682-0.11695-2.4275 0.7659-0.45925 0.88142-0.11553 1.9697 0.76732 2.4275z" fill="#2f9ad5"/>
 </g>
</svg>
