<svg width="103.45" height="103.45" version="1.1" viewBox="0 0 27.371 27.371" xmlns="http://www.w3.org/2000/svg">
 <defs>
  <clipPath id="clipPath4773">
   <path d="m305.92 416.68c0-51.956 42.119-94.074 94.075-94.074s94.074 42.118 94.074 94.074c0 51.955-42.118 94.074-94.074 94.074s-94.075-42.119-94.075-94.074"/>
  </clipPath>
  <clipPath id="clipPath4981">
   <path d="m339.31 507.32h60.691v-194.2h-60.691z"/>
  </clipPath>
  <clipPath id="clipPath4761">
   <path d="m0 800h800v-800h-800z"/>
  </clipPath>
 </defs>
 <g transform="translate(-50.949 -44.434)">
  <circle cx="64.634" cy="58.119" r="13.685" fill="#520" fill-rule="evenodd"/>
  <text x="68.420998" y="131.29288" dominant-baseline="auto" fill="#4d4d4d" font-family="'Arial Rounded MT Bold'" font-size="18.91px" letter-spacing="0px" word-spacing="0px" style="font-feature-settings:normal;font-variant-alternates:normal;font-variant-caps:normal;font-variant-ligatures:normal;font-variant-numeric:normal;font-variant-position:normal;line-height:1.25;shape-padding:0;text-decoration-color:#000000;text-decoration-line:none;text-decoration-style:solid;text-indent:0;text-orientation:mixed;text-transform:none;white-space:normal" xml:space="preserve"/>
  <g transform="matrix(.13456 0 0 -.13456 10.81 114.19)" fill="#536c5d">
   <g clip-path="url(#clipPath4761)" fill="#536c5d">
    <g transform="translate(494.07 416.68)" fill="#536c5d">
     <path d="m0 0c0-51.956-42.118-94.074-94.074-94.074s-94.075 42.118-94.075 94.074 42.119 94.074 94.075 94.074 94.074-42.118 94.074-94.074" fill="#536c5d"/>
    </g>
   </g>
  </g>
  <g transform="matrix(.13456 0 0 -.13456 10.81 114.19)" clip-path="url(#clipPath4773)">
   <g transform="translate(457.88 444.07)">
    <path d="m0 0c0-1.624-0.072-3.228-0.195-4.822-0.226-2.704-0.638-5.346-1.213-7.927-0.802-3.588-1.944-7.043-3.383-10.333-1.357-3.135-2.992-6.127-4.863-8.934-1.491-2.242-3.136-4.37-4.915-6.375-0.442-0.493-0.884-0.976-1.336-1.449-1.481-1.573-3.054-3.043-4.699-4.421-0.421-0.36-0.843-0.71-1.275-1.049-2.046-1.635-4.215-3.136-6.477-4.472-0.699-0.422-1.419-0.823-2.138-1.213-5.799-3.126-12.194-5.285-18.959-6.262-2.745-0.411-5.563-0.617-8.421-0.617-2.817 0-5.582 0.206-8.286 0.597-6.827 0.976-13.274 3.146-19.113 6.282-0.957 0.524-1.903 1.059-2.818 1.624-2.786 1.707-5.408 3.64-7.854 5.788-0.268 0.227-0.545 0.463-0.802 0.71-1.83 1.655-3.558 3.434-5.162 5.315-0.298 0.35-0.596 0.699-0.884 1.059-2.416 2.972-4.544 6.179-6.343 9.593-0.175 0.329-0.34 0.658-0.504 0.987-1.399 2.786-2.581 5.706-3.527 8.729-0.185 0.606-0.36 1.213-0.524 1.819-0.864 3.126-1.47 6.354-1.789 9.675-0.051 0.555-0.103 1.11-0.144 1.676-0.082 1.326-0.134 2.673-0.134 4.02 0 0.812 0.021 1.614 0.052 2.416 0.01 0.401 0.031 0.792 0.061 1.193 0.155 2.621 0.494 5.202 0.998 7.721 0.113 0.566 0.236 1.131 0.36 1.686 0.462 2.005 1.028 3.979 1.696 5.891 0.236 0.7 0.493 1.399 0.761 2.077 0.812 2.108 1.758 4.154 2.807 6.128 0.832 1.573 1.737 3.105 2.714 4.585 0.627 0.967 1.285 1.902 1.974 2.828 0.75 1.018 1.542 2.005 2.365 2.961 1.439 1.696 2.971 3.3 4.585 4.791 0.555 0.524 1.111 1.028 1.686 1.522 2.17 1.881 4.473 3.598 6.909 5.13 0.823 0.524 1.656 1.028 2.509 1.501 1.234 0.699 2.498 1.357 3.794 1.964 0.802 0.38 1.614 0.74 2.437 1.079 2.426 1.008 4.924 1.851 7.505 2.53 1.295 0.339 2.611 0.627 3.948 0.873 2.015 0.381 4.061 0.658 6.148 0.823 1.049 0.082 2.108 0.134 3.177 0.154 0.463 0.01 0.925 0.021 1.398 0.021 1.111 0 2.211-0.031 3.301-0.093 0.699-0.041 1.398-0.092 2.087-0.154 2.909-0.267 5.747-0.751 8.502-1.439 0.638-0.155 1.265-0.319 1.892-0.494 3.115-0.884 6.118-2.015 8.996-3.383 0.823-0.39 1.625-0.791 2.427-1.223 1.501-0.792 2.95-1.655 4.369-2.581 0.247-0.164 0.504-0.329 0.751-0.493 1.974-1.337 3.876-2.797 5.665-4.37 1.193-1.018 2.323-2.097 3.413-3.228 1.707-1.738 3.301-3.578 4.761-5.521 0.298-0.381 0.586-0.761 0.853-1.152 1.439-1.994 2.745-4.071 3.917-6.24 0.216-0.391 0.422-0.792 0.617-1.183 1.923-3.752 3.444-7.731 4.513-11.895 0.545-2.118 0.967-4.277 1.265-6.477 0.36-2.602 0.545-5.254 0.545-7.948" fill="#141720"/>
   </g>
   <g transform="translate(364.56 404.95)">
    <path d="m0 0c0-0.051 0-0.103-0.01-0.154-0.052-1.861-1.09-3.465-2.622-4.308-0.195-0.113-0.391-0.216-0.606-0.288-0.576-0.237-1.214-0.36-1.872-0.36-2.817 0-5.099 2.293-5.099 5.11 0 0.483 0.072 0.956 0.195 1.408 0.123 0.432 0.308 0.844 0.535 1.214 0.884 1.48 2.508 2.477 4.369 2.477 0.463 0 0.905-0.061 1.326-0.174 0.659-0.165 1.255-0.463 1.769-0.864 0.442-0.339 0.822-0.74 1.141-1.203 0.555-0.812 0.874-1.799 0.874-2.858" fill="#141720"/>
   </g>
   <g transform="translate(350.57 459.99)">
    <path d="m0 0c0-0.987-0.288-1.912-0.781-2.694-0.895-1.449-2.499-2.406-4.329-2.406-0.802 0-1.552 0.185-2.231 0.514-0.37 0.175-0.709 0.401-1.018 0.648-1.131 0.936-1.85 2.355-1.85 3.938 0 2.282 1.49 4.205 3.536 4.863 0.494 0.165 1.018 0.247 1.563 0.247 0.196 0 0.391-0.01 0.586-0.041 2.283-0.247 4.102-2.005 4.452-4.257 0.051-0.267 0.072-0.534 0.072-0.812" fill="#141720"/>
   </g>
   <g transform="translate(379.17 494.09)">
    <path d="m0 0c0-1.11-0.36-2.149-0.956-2.982-0.699-0.976-1.748-1.696-2.951-1.984-0.38-0.092-0.781-0.144-1.193-0.144-2.447 0-4.492 1.717-4.986 4.02-0.082 0.35-0.124 0.72-0.124 1.09 0 0.452 0.062 0.884 0.175 1.295 0.566 2.19 2.571 3.805 4.935 3.805 0.545 0 1.059-0.083 1.553-0.237 0.853-0.277 1.604-0.761 2.2-1.409 0.833-0.904 1.347-2.117 1.347-3.454" fill="#141720"/>
   </g>
   <g transform="translate(432.34 491.9)">
    <path d="m0 0c0-2.819-2.285-5.104-5.104-5.104s-5.105 2.285-5.105 5.104 2.286 5.104 5.105 5.104 5.104-2.285 5.104-5.104" fill="#141720"/>
   </g>
   <g transform="translate(349.52 443.08)">
    <path d="m0 0c0-0.648-0.124-1.275-0.35-1.84-0.74-1.913-2.591-3.27-4.76-3.27-0.72 0-1.398 0.144-2.015 0.411-0.422 0.185-0.812 0.432-1.172 0.71-1.162 0.935-1.912 2.375-1.912 3.989 0 1.738 0.863 3.27 2.189 4.195 0.227 0.154 0.473 0.298 0.73 0.411 0.658 0.319 1.399 0.493 2.18 0.493 2.159 0 4.01-1.336 4.75-3.228 0.236-0.576 0.36-1.213 0.36-1.871" fill="#141720"/>
   </g>
   <g transform="translate(444.18 402.82)">
    <path d="m0 0c0-2.819-2.285-5.104-5.104-5.104s-5.105 2.285-5.105 5.104 2.286 5.104 5.105 5.104 5.104-2.285 5.104-5.104" fill="#141720"/>
   </g>
   <g transform="translate(449.43 408.76)">
    <path d="m0 0c0-2.819-2.285-5.104-5.104-5.104s-5.105 2.285-5.105 5.104 2.286 5.104 5.105 5.104 5.104-2.285 5.104-5.104" fill="#141720"/>
   </g>
   <g transform="translate(437.44 398.55)">
    <path d="m0 0c0-2.819-2.285-5.104-5.104-5.104s-5.105 2.285-5.105 5.104 2.286 5.104 5.105 5.104 5.104-2.285 5.104-5.104" fill="#141720"/>
   </g>
   <g transform="translate(405.5 500.62)">
    <path d="m0 0c0-1.902-1.038-3.557-2.581-4.431-0.75-0.432-1.614-0.679-2.529-0.679-0.133 0-0.257 0-0.39 0.021-0.998 0.072-1.913 0.432-2.663 1.007-1.245 0.926-2.046 2.416-2.046 4.082 0 0.401 0.041 0.781 0.133 1.152 0.267 1.192 0.967 2.22 1.913 2.919 0.75 0.576 1.665 0.936 2.663 1.008 0.133 0.021 0.257 0.021 0.39 0.021 1.748 0 3.29-0.874 4.205-2.211 0.37-0.534 0.648-1.151 0.792-1.809 0.072-0.35 0.113-0.71 0.113-1.08" fill="#141720"/>
   </g>
   <g transform="translate(454.54 475.04)">
    <path d="m0 0c0-2.819-2.285-5.104-5.104-5.104s-5.105 2.285-5.105 5.104 2.286 5.104 5.105 5.104 5.104-2.285 5.104-5.104" fill="#141720"/>
   </g>
   <g transform="translate(361.93 413.87)">
    <path d="m0 0c0-0.833-0.134-1.624-0.391-2.375-0.185-0.576-0.442-1.11-0.761-1.614-1.059-1.697-2.786-2.941-4.811-3.362-0.453-0.103-0.936-0.154-1.419-0.154-0.041-0.011-0.093-0.011-0.134-0.011-4.153 0-7.526 3.362-7.526 7.516 0 1.224 0.299 2.385 0.813 3.403 0.154 0.309 0.329 0.607 0.534 0.884 1.357 1.954 3.619 3.239 6.179 3.239 0.216 0 0.432-0.01 0.648-0.031 1.552-0.133 2.971-0.74 4.113-1.676 1.686-1.378 2.755-3.475 2.755-5.819" fill="#141720"/>
   </g>
   <g transform="translate(376.11 402.11)">
    <path d="m0 0c0-3.311-2.138-6.117-5.11-7.115-0.39-0.133-0.791-0.236-1.213-0.298-0.391-0.072-0.792-0.103-1.203-0.103-3.496 0-6.426 2.375-7.258 5.604-0.093 0.318-0.165 0.658-0.196 0.997-0.041 0.298-0.062 0.607-0.062 0.915 0 2.077 0.844 3.948 2.19 5.305 0.144 0.144 0.288 0.278 0.432 0.391 1.316 1.151 3.023 1.83 4.894 1.83 4.154 0 7.526-3.372 7.526-7.526" fill="#141720"/>
   </g>
   <g transform="translate(358.09 468.33)">
    <path d="m0 0c0-4.154-3.362-7.526-7.516-7.526h-0.072c-2.025 0.021-3.865 0.843-5.212 2.18-0.555 0.534-1.028 1.172-1.388 1.871-0.545 1.038-0.854 2.221-0.854 3.475 0 3.115 1.902 5.788 4.606 6.919 0.895 0.391 1.882 0.597 2.92 0.597 0.34 0 0.669-0.021 0.998-0.072 3.331-0.432 5.963-3.044 6.426-6.365 0.061-0.349 0.092-0.709 0.092-1.079" fill="#141720"/>
   </g>
   <g transform="translate(427.23 495.51)">
    <path d="m0 0c0-4.154-3.367-7.521-7.522-7.521-4.154 0-7.521 3.367-7.521 7.521s3.367 7.522 7.521 7.522c4.155 0 7.522-3.368 7.522-7.522" fill="#141720"/>
   </g>
   <g transform="translate(390.4 497.01)">
    <path d="m0 0c0-0.966-0.185-1.892-0.524-2.745-1.09-2.797-3.815-4.781-7.002-4.781-1.758 0-3.383 0.607-4.658 1.625-1.614 1.264-2.683 3.177-2.827 5.356-0.02 0.175-0.031 0.36-0.031 0.545 0 0.668 0.093 1.326 0.268 1.943 0.843 3.208 3.763 5.573 7.248 5.573 1.162 0 2.262-0.268 3.239-0.74 1.316-0.617 2.416-1.604 3.166-2.838 0.71-1.141 1.121-2.488 1.121-3.938" fill="#141720"/>
   </g>
   <g transform="translate(354.36 434.09)">
    <path d="m0 0c0-1.789-0.627-3.434-1.676-4.719-1.378-1.707-3.485-2.797-5.85-2.797-0.73 0-1.45 0.103-2.118 0.309-0.524 0.144-1.038 0.36-1.511 0.627-2.314 1.275-3.887 3.742-3.887 6.58 0 1.923 0.72 3.671 1.913 4.997 0.298 0.36 0.647 0.689 1.028 0.966 1.264 0.987 2.858 1.563 4.575 1.563 0.822 0 1.604-0.134 2.344-0.381 3.002-0.976 5.182-3.814 5.182-7.145" fill="#141720"/>
   </g>
   <g transform="translate(447.51 480.47)">
    <path d="m0 0c0-4.154-3.367-7.522-7.522-7.522-4.154 0-7.521 3.368-7.521 7.522s3.367 7.522 7.521 7.522c4.155 0 7.522-3.368 7.522-7.522" fill="#141720"/>
   </g>
   <g transform="translate(458.56 464.07)">
    <path d="m0 0c0-4.154-3.368-7.522-7.522-7.522s-7.521 3.368-7.521 7.522 3.367 7.522 7.521 7.522 7.522-3.368 7.522-7.522" fill="#141720"/>
   </g>
   <g transform="translate(375.36 487.99)">
    <path d="m0 0c0-4.154-3.372-7.526-7.526-7.526-0.607 0-1.193 0.072-1.758 0.216-2.776 0.658-4.956 2.869-5.583 5.665-0.123 0.524-0.185 1.08-0.185 1.645 0 0.134 0 0.267 0.021 0.401 0.195 3.969 3.485 7.115 7.505 7.115 0.442 0 0.884-0.042 1.306-0.124 0.884-0.144 1.717-0.452 2.457-0.884 1.943-1.121 3.331-3.074 3.671-5.377 0.061-0.37 0.092-0.74 0.092-1.131" fill="#141720"/>
   </g>
   <g transform="translate(355.55 423.87)">
    <path d="m0 0c0-0.884-0.175-1.738-0.483-2.509-0.997-2.457-3.413-4.195-6.231-4.195h-0.092c-0.36 0.011-0.699 0.042-1.038 0.103-3.167 0.535-5.583 3.29-5.583 6.601 0 1.347 0.39 2.591 1.079 3.639 0.278 0.432 0.607 0.833 0.987 1.193 1.203 1.172 2.838 1.882 4.647 1.882 1.43 0 2.756-0.453 3.846-1.214 1.737-1.213 2.868-3.218 2.868-5.5" fill="#141720"/>
   </g>
   <g transform="translate(361.07 475.04)">
    <path d="m0 0c0-2.365-1.223-4.441-3.074-5.634-1.049-0.689-2.303-1.08-3.64-1.08-2.272 0-4.277 1.131-5.5 2.859-0.761 1.089-1.213 2.426-1.213 3.855 0 0.072 0 0.134 0.01 0.206 0.082 3.064 2.241 5.603 5.11 6.302 0.503 0.134 1.038 0.195 1.593 0.195 0.535 0 1.059-0.061 1.553-0.185 2.899-0.688 5.068-3.248 5.151-6.323 0.01-0.061 0.01-0.133 0.01-0.195" fill="#141720"/>
   </g>
   <g transform="translate(415.89 498.61)">
    <path d="m0 0c0-3.706-3.004-6.71-6.71-6.71-3.705 0-6.709 3.004-6.709 6.71s3.004 6.71 6.709 6.71c3.706 0 6.71-3.004 6.71-6.71" fill="#141720"/>
   </g>
   <g transform="translate(353.6 451.26)">
    <path d="m0 0c0-1.121-0.267-2.169-0.751-3.095-0.771-1.49-2.087-2.652-3.691-3.218-0.709-0.257-1.48-0.401-2.272-0.401-1.84 0-3.506 0.741-4.719 1.943-0.247 0.247-0.473 0.504-0.668 0.782-0.833 1.11-1.316 2.488-1.316 3.989 0 1.882 0.771 3.578 2.025 4.791 0.412 0.411 0.874 0.761 1.378 1.039 0.977 0.555 2.097 0.873 3.3 0.873 1.039 0 2.026-0.236 2.9-0.668 0.945-0.442 1.768-1.1 2.405-1.922 0.885-1.131 1.409-2.561 1.409-4.113" fill="#141720"/>
   </g>
   <g transform="translate(462.17 445.58)">
    <path d="m0 0c0-3.706-3.004-6.71-6.71-6.71-3.705 0-6.709 3.004-6.709 6.71s3.004 6.71 6.709 6.71c3.706 0 6.71-3.004 6.71-6.71" fill="#141720"/>
   </g>
   <g transform="translate(457.75 427.38)">
    <path d="m0 0c0-3.706-3.004-6.71-6.71-6.71-3.705 0-6.709 3.004-6.709 6.71s3.004 6.71 6.709 6.71c3.706 0 6.71-3.004 6.71-6.71" fill="#141720"/>
   </g>
   <g transform="translate(366.17 481.74)">
    <path d="m0 0c0-0.36-0.031-0.72-0.092-1.059-0.412-2.673-2.417-4.812-5.018-5.449-0.514-0.134-1.049-0.195-1.604-0.195-2.56 0-4.791 1.439-5.912 3.557-0.483 0.884-0.76 1.881-0.781 2.951-0.01 0.061-0.01 0.133-0.01 0.195 0 3.712 3.002 6.714 6.703 6.714 0.298 0 0.586-0.021 0.874-0.062 0.648-0.082 1.275-0.257 1.851-0.524 2.354-1.028 3.989-3.383 3.989-6.128" fill="#141720"/>
   </g>
   <g transform="translate(441.86 486.91)">
    <path d="m0 0c0-3.706-3.004-6.71-6.71-6.71-3.705 0-6.709 3.004-6.709 6.71s3.004 6.71 6.709 6.71c3.706 0 6.71-3.004 6.71-6.71" fill="#141720"/>
   </g>
   <g transform="translate(398.73 500.62)">
    <path d="m0 0c0-1.532-0.514-2.951-1.388-4.082-1.223-1.604-3.146-2.632-5.315-2.632-0.751 0-1.481 0.124-2.149 0.36-2.498 0.833-4.328 3.095-4.544 5.809-0.011 0.185-0.021 0.36-0.021 0.545 0 1.141 0.288 2.221 0.802 3.167 1.121 2.107 3.352 3.537 5.912 3.537 2.169 0 4.092-1.029 5.315-2.633 0.617-0.791 1.059-1.737 1.265-2.765 0.082-0.422 0.123-0.854 0.123-1.306" fill="#141720"/>
   </g>
   <g transform="translate(454.54 313.13)">
    <path d="m0 0v-0.01h-109.08v0.01c0 15.124 6.148 28.798 16.101 38.668 0.37 0.37 0.74 0.73 1.12 1.09 1.522 1.419 3.116 2.755 4.781 4 0.514 0.38 1.039 0.76 1.563 1.12 1.08 0.74 2.19 1.45 3.321 2.108 0.535 0.319 1.08 0.627 1.624 0.925 0.011 0.021 0.031 0.021 0.031 0.021 0.442 0.236 0.874 0.493 1.306 0.761 0.329 0.185 0.648 0.38 0.956 0.596 0.946 0.607 1.871 1.264 2.745 1.964v0.01c4.966 3.958 8.811 9.253 10.991 15.35 0.812 2.252 1.388 4.616 1.717 7.053 0.195 1.501 0.298 3.033 0.298 4.585l7.989-0.041 8.132-0.041c0-1.522 0.103-3.012 0.288-4.483 0.319-2.426 0.884-4.791 1.676-7.032 2.169-6.107 5.994-11.422 10.95-15.412 0.37-0.288 0.74-0.575 1.12-0.853 0 0 0.011 0 0.021-0.01 0.288-0.227 0.586-0.432 0.884-0.628 0.082-0.071 0.175-0.133 0.267-0.185 0.083-0.061 0.155-0.113 0.237-0.164 0.031-0.021 0.062-0.041 0.092-0.062 0.34-0.226 0.689-0.442 1.039-0.658 0.421-0.257 0.853-0.514 1.285-0.75 0.072-0.021 0.134-0.052 0.185-0.093 0.483-0.267 0.967-0.545 1.439-0.833 0.628-0.359 1.245-0.74 1.851-1.131 1.08-0.699 2.118-1.418 3.146-2.2h0.021c2.076-1.552 4.04-3.249 5.87-5.079 9.912-9.87 16.029-23.503 16.029-38.596" fill="#b08874"/>
    <path d="m0 0h-109.08c0 15.124 6.148 28.798 16.101 38.668 0.37 0.37 0.74 0.73 1.12 1.09 1.522 1.419 3.116 2.755 4.781 4 0.514 0.38 1.039 0.76 1.563 1.12 1.08 0.74 2.18 1.45 3.311 2.118 0.534 0.319 1.079 0.627 1.624 0.925 0.021 0.021 0.041 0.011 0.041 0.011v0.01c0.874 0.483 1.738 1.007 2.571 1.563 0.39 0.257 0.771 0.524 1.151 0.812 0.041 0.02 0.072 0.051 0.113 0.072 0.278 0.206 0.555 0.421 0.833 0.648 0.103 0.082 0.206 0.164 0.308 0.246h0.011l0.02-0.02c0.658-0.679 1.357-1.316 2.077-1.933 0-0.01 0-0.01 0.01-0.01 1.82-1.532 3.825-2.848 5.984-3.907 3.886-1.913 8.256-2.992 12.883-3.002h0.082c8.225 0 15.658 3.392 21.005 8.831l0.01 0.011 0.01 0.01c0.381-0.319 0.771-0.617 1.172-0.915 0.268-0.206 0.545-0.401 0.833-0.597 0.082-0.061 0.175-0.123 0.267-0.185 0.083-0.061 0.155-0.113 0.237-0.164 0.031-0.021 0.062-0.041 0.092-0.062 0.34-0.226 0.689-0.442 1.039-0.658 0.421-0.257 0.853-0.504 1.285-0.74 0.072-0.021 0.123-0.062 0.185-0.093 0.483-0.267 0.977-0.544 1.45-0.832 0.627-0.37 1.244-0.751 1.84-1.142 1.08-0.688 2.118-1.418 3.146-2.19h0.021c2.076-1.552 4.04-3.259 5.87-5.089 9.912-9.87 16.029-23.503 16.029-38.596" fill="#eec8a2"/>
   </g>
   <g transform="translate(427.63 360.15)">
    <path d="m0 0-0.01-0.01-1.121-1.141c-7.053-7.187-16.46-11.135-26.495-11.145h-0.021c-10.147 0.02-19.544 3.989-26.567 11.165l-1.069 1.1-0.01 0.01c0.535 0.319 1.079 0.628 1.624 0.926 0.021 0.02 0.041 0.01 0.041 0.01v0.01c0.443 0.247 0.874 0.494 1.306 0.751 0.319 0.195 0.638 0.391 0.956 0.596l0.309 0.216c0.39 0.257 0.781 0.525 1.151 0.812 0.041 0.021 0.072 0.052 0.114 0.072 0.277 0.216 0.565 0.432 0.832 0.648 0.103 0.082 0.206 0.165 0.309 0.247 0.01-0.01 0.01-0.01 0.02-0.021h0.01v-0.01c0.659-0.679 1.347-1.316 2.077-1.923 0-0.01 0-0.01 0.011-0.01 1.819-1.532 3.824-2.858 5.983-3.907 3.887-1.912 8.256-2.992 12.883-3.002h0.082c8.225 0 15.659 3.393 21.005 8.832l0.01 0.01 0.011 0.01c0.359-0.298 0.719-0.586 1.099-0.874 0 0 0.011 0 0.021-0.01s0.031-0.021 0.052-0.031c0.267-0.205 0.545-0.401 0.832-0.596 0.082-0.062 0.175-0.123 0.268-0.185 0.082-0.062 0.154-0.113 0.236-0.165 0.031-0.02 0.062-0.041 0.093-0.061 0.339-0.226 0.689-0.442 1.038-0.658 0.422-0.257 0.853-0.504 1.285-0.741 0.072-0.02 0.124-0.061 0.185-0.092 0.484-0.267 0.977-0.545 1.45-0.833" fill="#543e36"/>
   </g>
   <g transform="translate(441.86 454.34)">
    <path d="m0 0v-24.511c0-2.303-0.164-4.575-0.473-6.806-0.751-5.552-2.406-10.826-4.688-15.689-0.669-1.429-1.388-2.828-2.159-4.185-0.175-0.308-0.35-0.617-0.525-0.915-1.562-2.632-3.3-5.12-5.161-7.413-0.473-0.596-0.966-1.182-1.47-1.747-5.274-6.056-11.402-10.673-17.283-13.294-3.526-1.563-6.981-2.416-10.096-2.416-3.095 0-6.508 0.832-10.004 2.375-5.912 2.611-12.081 7.248-17.396 13.335-0.545 0.627-1.08 1.264-1.604 1.922-2.396 2.982-4.585 6.272-6.447 9.798-0.452 0.864-0.884 1.738-1.295 2.622-0.247 0.524-0.483 1.059-0.709 1.594-0.36 0.812-0.689 1.645-1.008 2.477-0.987 2.632-1.789 5.378-2.365 8.195-0.226 1.1-0.421 2.21-0.565 3.341-0.308 2.231-0.473 4.503-0.473 6.806v24.511z" fill="#b08874"/>
   </g>
   <g transform="translate(357.11 422.82)">
    <path d="m0 0c3.072 0 5.561 2.49 5.561 5.561v26.708h-5.561z" fill="#141720"/>
   </g>
   <g transform="translate(437.32 455.09)">
    <path d="m0 0h5.561v-32.269c-3.071 0-5.561 2.49-5.561 5.562z" fill="#141720"/>
   </g>
   <g transform="translate(396.3 453.37)">
    <path d="m0 0c0-3.706-3.004-6.71-6.71-6.71-3.705 0-6.709 3.004-6.709 6.71s3.004 6.71 6.709 6.71c3.706 0 6.71-3.004 6.71-6.71" fill="#141720"/>
   </g>
   <g transform="translate(380.78 454.89)">
    <path d="m0 0c0-3.706-3.004-6.71-6.71-6.71-3.705 0-6.709 3.004-6.709 6.71s3.004 6.71 6.709 6.71c3.706 0 6.71-3.004 6.71-6.71" fill="#141720"/>
   </g>
   <g transform="translate(364.85 452.29)">
    <path d="m0 0c0-3.706-3.004-6.71-6.71-6.71-3.705 0-6.709 3.004-6.709 6.71s3.004 6.71 6.709 6.71c3.706 0 6.71-3.004 6.71-6.71" fill="#141720"/>
   </g>
   <g transform="translate(415.89 454.09)">
    <path d="m0 0c0-3.706-3.004-6.71-6.71-6.71-3.705 0-6.709 3.004-6.709 6.71s3.004 6.71 6.709 6.71c3.706 0 6.71-3.004 6.71-6.71" fill="#141720"/>
   </g>
   <g transform="translate(436.18 454.09)">
    <path d="m0 0c0-3.706-3.004-6.71-6.71-6.71-3.705 0-6.709 3.004-6.709 6.71s3.004 6.71 6.709 6.71c3.706 0 6.71-3.004 6.71-6.71" fill="#141720"/>
   </g>
   <g transform="translate(450.1 447.74)">
    <path d="m0 0c0-3.706-3.004-6.71-6.71-6.71s-6.71 3.004-6.71 6.71 3.004 6.71 6.71 6.71 6.71-3.004 6.71-6.71" fill="#141720"/>
   </g>
   <g transform="translate(405.1 452.86)">
    <path d="m0 0c0-2.819-2.285-5.104-5.104-5.104s-5.105 2.285-5.105 5.104 2.286 5.104 5.105 5.104 5.104-2.285 5.104-5.104" fill="#141720"/>
   </g>
   <g transform="translate(370.52 453.37)">
    <path d="m0 0c0-2.819-2.285-5.104-5.104-5.104s-5.105 2.285-5.105 5.104 2.286 5.104 5.105 5.104 5.104-2.285 5.104-5.104" fill="#141720"/>
   </g>
   <g transform="translate(387.98 453.37)">
    <path d="m0 0c0-2.819-2.285-5.104-5.104-5.104s-5.105 2.285-5.105 5.104 2.286 5.104 5.105 5.104 5.104-2.285 5.104-5.104" fill="#141720"/>
   </g>
   <g transform="translate(424.82 451.76)">
    <path d="m0 0c0-2.819-2.285-5.104-5.104-5.104s-5.105 2.285-5.105 5.104 2.286 5.104 5.105 5.104 5.104-2.285 5.104-5.104" fill="#141720"/>
   </g>
   <g transform="translate(441.28 451.76)">
    <path d="m0 0c0-2.819-2.285-5.104-5.104-5.104s-5.105 2.285-5.105 5.104 2.286 5.104 5.105 5.104 5.104-2.285 5.104-5.104" fill="#141720"/>
   </g>
   <g transform="translate(435.23 441.66)">
    <path d="m0 0c0 0.164-0.123 0.308-0.288 0.329-1.419 0.216-7.783 1.09-14.62 1.09-7.773 0-17.797-2.437-19.545-2.437h-1.552c-0.813 0-3.424 0.535-6.765 1.09-3.835 0.648-8.626 1.347-12.77 1.347-5.007 0-9.767-0.473-12.502-0.802-1.007-0.124-1.737-0.226-2.118-0.288-0.175-0.021-0.298-0.165-0.298-0.329l-0.082-4.174c0-0.155 0.092-0.278 0.226-0.34l0.473-0.164c0.699-0.267 0.637-12.841 4.39-15.988 2.231-1.85 4.215-2.909 12.564-2.909 4.842 0 7.886 1.306 10.775 5.202 2.087 2.797 3.927 9.418 3.927 9.418 0.566 2.725 2.591 2.94 2.92 2.961h0.041c0.062 0 2.354-0.041 2.951-2.961 0 0 1.851-6.621 3.928-9.418 2.888-3.896 5.932-5.202 10.774-5.202 8.349 0 10.333 1.059 12.564 2.909 3.753 3.147 3.691 15.721 4.39 15.988l0.473 0.164c0.134 0.062 0.226 0.185 0.226 0.34z" fill="#1a1a1a"/>
   </g>
   <g transform="translate(457.68 417.84)">
    <path d="m0 0c0-4.154-3.367-7.521-7.522-7.521-4.154 0-7.521 3.367-7.521 7.521s3.367 7.522 7.521 7.522c4.155 0 7.522-3.368 7.522-7.522" fill="#141720"/>
   </g>
   <g transform="translate(462.78 454.99)">
    <path d="m0 0c0-2.819-2.285-5.104-5.104-5.104s-5.105 2.285-5.105 5.104 2.286 5.104 5.105 5.104 5.104-2.285 5.104-5.104" fill="#141720"/>
   </g>
   <g transform="translate(461.59 435.78)">
    <path d="m0 0c0-2.819-2.285-5.104-5.104-5.104s-5.105 2.285-5.105 5.104 2.286 5.104 5.105 5.104 5.104-2.285 5.104-5.104" fill="#141720"/>
   </g>
   <g clip-path="url(#clipPath4981)" opacity=".5">
    <g transform="translate(400 505.7)">
     <path d="m0 0v-192.58h-54.543v0.01c0 15.124 6.149 28.798 16.101 38.669 0.37 0.37 0.74 0.729 1.121 1.089 1.521 1.419 3.115 2.756 4.78 4 0.515 0.38 1.039 0.761 1.563 1.121 1.08 0.74 2.18 1.449 3.311 2.117 0.534 0.319 1.079 0.628 1.624 0.926 0.021 0.02 0.041 0.01 0.041 0.01v0.01c0.874 0.483 1.738 1.008 2.571 1.563 0.39 0.257 0.771 0.524 1.151 0.812 0.041 0.021 0.072 0.052 0.113 0.072 0.278 0.206 0.556 0.422 0.833 0.648 0.103 0.082 0.206 0.164 0.309 0.247h0.01l0.02-0.021c4.966 3.958 8.812 9.253 10.991 15.35-5.912 2.612-12.081 7.249-17.396 13.335-0.956 0.524-1.902 1.059-2.817 1.625-0.391-0.072-0.792-0.103-1.203-0.103-3.496 0-6.426 2.375-7.258 5.603-0.576-0.236-1.214-0.36-1.872-0.36-2.817 0-5.099 2.293-5.099 5.11 0 0.483 0.072 0.956 0.195 1.409-0.041-0.011-0.092-0.011-0.134-0.011-4.153 0-7.526 3.362-7.526 7.516 0 1.224 0.299 2.385 0.813 3.403-3.167 0.535-5.583 3.29-5.583 6.601 0 1.347 0.391 2.591 1.079 3.639-2.313 1.275-3.886 3.743-3.886 6.58 0 1.923 0.72 3.671 1.912 4.997-1.161 0.936-1.912 2.375-1.912 3.989 0 1.738 0.864 3.27 2.19 4.195-0.833 1.11-1.316 2.488-1.316 3.989 0 1.882 0.771 3.578 2.025 4.791-1.13 0.936-1.85 2.355-1.85 3.938 0 2.283 1.491 4.205 3.537 4.863-0.545 1.039-0.854 2.221-0.854 3.475 0 3.115 1.902 5.789 4.606 6.92 0.083 3.064 2.242 5.603 5.11 6.302-0.01 0.062-0.01 0.134-0.01 0.195 0 3.712 3.002 6.714 6.703 6.714 0.298 0 0.586-0.02 0.874-0.061 0.196 3.968 3.486 7.114 7.506 7.114 0.442 0 0.884-0.041 1.305-0.123 0.566 2.19 2.571 3.804 4.935 3.804 0.545 0 1.059-0.082 1.553-0.237 0.843 3.208 3.763 5.573 7.248 5.573 1.162 0 2.262-0.267 3.239-0.74 1.12 2.107 3.352 3.537 5.912 3.537 2.169 0 4.092-1.029 5.315-2.633 0.751 0.576 1.666 0.936 2.663 1.008" fill="#ecc19c"/>
    </g>
   </g>
  </g>
 </g>
</svg>
